{"glyphs":{"0":{"ha":882,"x_min":57,"x_max":824,"o":"m 440 -18 q 226 48 313 -18 q 99 227 140 114 q 57 481 57 340 q 99 726 57 617 q 226 898 140 835 q 440 961 313 961 q 654 898 568 961 q 782 726 740 835 q 824 481 824 617 q 782 227 824 340 q 654 48 740 114 q 440 -18 568 -18 m 442 142 q 566 238 526 142 q 606 481 606 333 q 566 711 606 621 q 442 801 526 801 q 317 711 357 801 q 278 481 278 621 q 317 238 278 333 q 442 142 357 142 z "},"1":{"ha":882,"x_min":149,"x_max":808,"o":"m 808 154 l 808 0 l 149 0 l 149 154 l 369 154 l 369 776 l 194 754 l 158 906 l 403 944 l 404 943 l 404 944 l 589 944 l 589 154 l 808 154 z "},"2":{"ha":882,"x_min":61,"x_max":801,"o":"m 88 117 l 317 339 q 476 526 425 443 q 528 665 528 608 q 484 765 528 729 q 361 801 440 801 q 236 776 297 801 q 110 700 175 750 l 61 844 q 392 960 207 960 q 569 926 489 960 q 696 830 649 892 q 743 688 743 768 q 681 477 743 583 q 489 253 619 371 l 386 160 l 386 157 l 801 157 l 801 0 l 88 0 l 88 117 z "},"3":{"ha":882,"x_min":60,"x_max":785,"o":"m 583 514 q 728 429 672 489 q 785 286 785 369 q 737 133 785 203 q 598 22 689 63 q 382 -19 507 -19 q 204 0 289 -19 q 60 58 119 19 l 106 207 q 382 140 239 140 q 517 176 469 140 q 565 274 565 213 q 524 372 565 335 q 411 410 483 410 q 260 388 340 410 l 244 542 q 401 585 351 568 q 483 633 451 603 q 514 714 514 663 q 484 776 514 753 q 401 800 454 800 q 274 781 339 800 q 136 715 210 761 l 88 858 q 413 960 222 960 q 581 931 508 960 q 694 848 654 901 q 733 725 733 794 q 694 605 733 658 q 583 514 654 551 z "},"4":{"ha":882,"x_min":35,"x_max":860,"o":"m 860 215 l 706 215 l 706 0 l 486 0 l 486 215 l 35 215 l 35 338 l 493 944 l 494 944 l 706 944 l 706 372 l 860 372 l 860 215 m 486 372 l 486 524 l 492 717 l 490 715 l 363 529 l 243 372 l 486 372 z "},"5":{"ha":882,"x_min":79,"x_max":804,"o":"m 429 601 q 631 564 546 601 q 760 459 715 526 q 804 306 804 392 q 755 142 804 217 q 612 24 706 68 q 389 -19 518 -19 q 219 0 300 -19 q 79 58 138 19 l 125 207 q 389 140 253 140 q 535 181 485 140 q 585 293 585 222 q 541 403 585 364 q 406 442 497 442 q 290 429 347 442 q 165 393 233 417 l 133 417 l 178 944 l 775 944 l 775 788 l 371 788 l 351 594 q 429 601 396 601 z "},"6":{"ha":882,"x_min":68,"x_max":813,"o":"m 475 601 q 656 558 579 601 q 772 444 732 514 q 813 296 813 374 q 768 139 813 211 q 639 23 724 67 q 440 -21 554 -21 q 169 78 271 -21 q 68 371 68 178 q 141 660 68 535 q 350 861 214 785 q 671 961 486 938 l 701 810 q 455 721 546 774 q 324 568 364 668 q 475 601 399 601 m 440 136 q 553 178 514 136 q 593 285 593 221 q 556 399 593 353 q 453 444 518 444 q 288 375 357 444 l 288 347 q 329 190 288 244 q 440 136 371 136 z "},"7":{"ha":882,"x_min":60,"x_max":821,"o":"m 596 785 l 596 788 l 60 788 l 60 944 l 821 944 l 821 815 l 397 0 l 146 0 l 596 785 z "},"8":{"ha":882,"x_min":71,"x_max":810,"o":"m 622 500 q 760 403 710 458 q 810 263 810 347 q 769 120 810 183 q 647 19 729 57 q 442 -18 564 -18 q 235 17 319 -18 q 111 111 151 53 q 71 236 71 169 q 239 476 71 388 q 135 563 171 514 q 99 683 99 613 q 137 824 99 761 q 252 924 175 886 q 442 961 329 961 q 628 926 551 961 q 744 835 706 892 q 782 714 782 779 q 742 593 782 644 q 622 500 701 542 m 442 804 q 349 772 381 804 q 318 694 318 740 q 356 622 318 651 q 467 561 394 592 q 540 630 517 593 q 563 703 563 667 q 533 775 563 746 q 442 804 503 804 m 442 139 q 554 171 518 139 q 590 250 590 203 q 546 338 590 304 q 415 404 501 372 q 323 338 356 379 q 290 247 290 297 q 328 171 290 203 q 442 139 365 139 z "},"9":{"ha":882,"x_min":68,"x_max":813,"o":"m 440 961 q 711 861 610 961 q 813 568 813 761 q 740 279 813 404 q 531 78 667 154 q 210 -21 394 1 l 179 131 q 425 218 335 165 q 557 372 515 271 q 406 339 482 339 q 225 383 301 339 q 108 496 149 426 q 68 643 68 565 q 113 801 68 728 q 242 917 157 874 q 440 961 326 961 m 428 494 q 593 565 522 494 l 593 593 q 552 750 593 696 q 440 804 511 804 q 327 762 367 804 q 288 656 288 719 q 325 541 288 588 q 428 494 363 494 z "},"\r":{"ha":686,"x_min":0,"x_max":0,"o":""}," ":{"ha":347,"x_min":0,"x_max":0,"o":""},"A":{"ha":963,"x_min":13,"x_max":951,"o":"m 647 238 l 314 238 l 233 0 l 13 0 l 376 957 l 586 957 l 951 0 l 728 0 l 647 238 m 596 389 l 481 731 l 365 389 l 596 389 z "},"Á":{"ha":963,"x_min":13,"x_max":951,"o":"m 13 0 m 647 238 l 314 238 l 233 0 l 13 0 l 376 957 l 586 957 l 951 0 l 728 0 l 647 238 m 596 389 l 481 731 l 365 389 l 596 389 m 569 1260 l 794 1260 l 558 1028 l 379 1028 l 569 1260 z "},"Ă":{"ha":963,"x_min":13,"x_max":951,"o":"m 13 0 m 647 238 l 314 238 l 233 0 l 13 0 l 376 957 l 586 957 l 951 0 l 728 0 l 647 238 m 596 389 l 481 731 l 365 389 l 596 389 m 479 1024 q 290 1088 358 1024 q 218 1265 221 1153 l 372 1267 q 403 1190 375 1215 q 479 1164 432 1164 q 554 1190 526 1164 q 585 1267 582 1215 l 739 1264 q 667 1088 736 1151 q 479 1024 599 1024 z "},"Â":{"ha":963,"x_min":13,"x_max":951,"o":"m 13 0 m 647 238 l 314 238 l 233 0 l 13 0 l 376 957 l 586 957 l 951 0 l 728 0 l 647 238 m 596 389 l 481 731 l 365 389 l 596 389 m 581 1028 l 479 1158 l 378 1028 l 178 1028 l 376 1260 l 582 1260 l 781 1028 l 581 1028 z "},"Ä":{"ha":963,"x_min":13,"x_max":951,"o":"m 13 0 m 647 238 l 314 238 l 233 0 l 13 0 l 376 957 l 586 957 l 951 0 l 728 0 l 647 238 m 596 389 l 481 731 l 365 389 l 596 389 m 310 1038 q 236 1069 267 1038 q 206 1142 206 1100 q 236 1216 206 1185 q 310 1247 267 1247 q 384 1216 353 1247 q 415 1142 415 1185 q 384 1069 415 1100 q 310 1038 353 1038 m 649 1038 q 575 1069 606 1038 q 544 1142 544 1100 q 575 1216 544 1185 q 649 1247 606 1247 q 723 1216 692 1247 q 754 1142 754 1185 q 723 1069 754 1100 q 649 1038 692 1038 z "},"À":{"ha":963,"x_min":13,"x_max":951,"o":"m 13 0 m 647 238 l 314 238 l 233 0 l 13 0 l 376 957 l 586 957 l 951 0 l 728 0 l 647 238 m 596 389 l 481 731 l 365 389 l 596 389 m 168 1260 l 393 1260 l 583 1028 l 403 1028 l 168 1260 z "},"Ā":{"ha":963,"x_min":13,"x_max":951,"o":"m 13 0 m 647 238 l 314 238 l 233 0 l 13 0 l 376 957 l 586 957 l 951 0 l 728 0 l 647 238 m 596 389 l 481 731 l 365 389 l 596 389 m 217 1224 l 743 1224 l 743 1074 l 217 1074 l 217 1224 z "},"Ą":{"ha":963,"x_min":13,"x_max":974,"o":"m 974 -292 q 892 -349 946 -324 q 782 -374 839 -374 q 651 -331 700 -374 q 603 -215 603 -289 q 635 -102 603 -161 q 726 4 668 -43 l 647 238 l 314 238 l 233 0 l 13 0 l 376 957 l 586 957 l 951 0 l 892 0 q 771 -172 771 -104 q 785 -208 771 -196 q 822 -221 799 -221 q 917 -176 865 -221 l 974 -292 m 596 389 l 481 731 l 365 389 l 596 389 z "},"Å":{"ha":963,"x_min":13,"x_max":951,"o":"m 13 0 m 647 238 l 314 238 l 233 0 l 13 0 l 376 957 l 586 957 l 951 0 l 728 0 l 647 238 m 596 389 l 481 731 l 365 389 l 596 389 m 479 1017 q 334 1058 386 1017 q 282 1163 282 1099 q 334 1267 282 1226 q 479 1307 386 1307 q 624 1267 572 1307 q 676 1163 676 1226 q 624 1058 676 1099 q 479 1017 572 1017 m 479 1114 q 538 1163 538 1114 q 522 1197 538 1185 q 479 1210 507 1210 q 435 1197 451 1210 q 419 1163 419 1185 q 435 1126 419 1139 q 479 1114 451 1114 z "},"Ã":{"ha":963,"x_min":13,"x_max":951,"o":"m 13 0 m 647 238 l 314 238 l 233 0 l 13 0 l 376 957 l 586 957 l 951 0 l 728 0 l 647 238 m 596 389 l 481 731 l 365 389 l 596 389 m 213 1025 q 264 1196 219 1133 q 378 1258 308 1258 q 432 1247 407 1258 q 488 1217 457 1236 q 534 1192 517 1200 q 569 1183 551 1183 q 605 1203 590 1183 q 629 1269 619 1224 l 746 1264 q 693 1097 739 1163 q 581 1031 647 1031 q 525 1041 550 1031 q 463 1074 500 1051 q 420 1098 436 1090 q 389 1106 404 1106 q 353 1085 368 1106 q 329 1019 339 1065 l 213 1025 z "},"Æ":{"ha":1399,"x_min":-11,"x_max":1326,"o":"m 1326 154 l 1326 0 l 701 0 l 701 324 l 406 324 l 213 0 l -11 0 l 585 944 l 1299 944 l 1299 790 l 921 790 l 921 551 l 1243 551 l 1243 397 l 921 397 l 921 154 l 1326 154 m 701 478 l 701 817 l 499 478 l 701 478 z "},"B":{"ha":940,"x_min":132,"x_max":882,"o":"m 663 500 q 826 415 769 479 q 882 257 882 350 q 783 66 882 132 q 494 0 685 0 l 132 0 l 132 944 l 494 944 q 753 888 667 944 q 840 711 840 831 q 794 578 840 635 q 663 500 749 522 m 351 790 l 351 576 l 494 576 q 621 685 621 576 q 589 766 621 742 q 494 790 557 790 l 351 790 m 494 154 q 619 188 575 154 q 663 288 663 221 q 494 422 663 422 l 351 422 l 351 154 l 494 154 z "},"C":{"ha":951,"x_min":67,"x_max":890,"o":"m 582 -18 q 298 49 414 -18 q 124 228 182 117 q 67 474 67 340 q 127 717 67 606 q 307 894 188 828 q 596 961 426 961 q 756 941 681 961 q 886 885 831 921 l 835 732 q 596 801 731 801 q 428 758 499 801 q 322 640 358 714 q 286 472 286 565 q 363 234 286 326 q 582 142 440 142 q 724 163 657 142 q 843 217 792 185 l 890 68 q 750 6 831 31 q 582 -18 669 -18 z "},"Ć":{"ha":951,"x_min":67,"x_max":890,"o":"m 67 0 m 582 -18 q 298 49 414 -18 q 124 228 182 117 q 67 474 67 340 q 127 717 67 606 q 307 894 188 828 q 596 961 426 961 q 756 941 681 961 q 886 885 831 921 l 835 732 q 596 801 731 801 q 428 758 499 801 q 322 640 358 714 q 286 472 286 565 q 363 234 286 326 q 582 142 440 142 q 724 163 657 142 q 843 217 792 185 l 890 68 q 750 6 831 31 q 582 -18 669 -18 m 665 1260 l 890 1260 l 654 1028 l 475 1028 l 665 1260 z "},"Č":{"ha":951,"x_min":67,"x_max":890,"o":"m 67 0 m 582 -18 q 298 49 414 -18 q 124 228 182 117 q 67 474 67 340 q 127 717 67 606 q 307 894 188 828 q 596 961 426 961 q 756 941 681 961 q 886 885 831 921 l 835 732 q 596 801 731 801 q 428 758 499 801 q 322 640 358 714 q 286 472 286 565 q 363 234 286 326 q 582 142 440 142 q 724 163 657 142 q 843 217 792 185 l 890 68 q 750 6 831 31 q 582 -18 669 -18 m 876 1260 l 678 1028 l 472 1028 l 274 1260 l 474 1260 l 575 1129 l 676 1260 l 876 1260 z "},"Ç":{"ha":951,"x_min":67,"x_max":890,"o":"m 614 -65 q 703 -101 668 -69 q 739 -178 739 -132 q 680 -285 739 -237 q 492 -337 621 -333 l 463 -243 q 557 -224 532 -237 q 582 -187 582 -210 q 569 -163 582 -172 q 536 -154 557 -154 q 496 -162 515 -154 l 453 -107 l 503 -14 q 262 72 360 3 q 115 247 164 142 q 67 474 67 351 q 127 717 67 606 q 307 894 188 828 q 596 961 426 961 q 756 941 681 961 q 886 885 831 921 l 835 732 q 596 801 731 801 q 428 758 499 801 q 322 640 358 714 q 286 472 286 565 q 363 234 286 326 q 582 142 440 142 q 724 163 657 142 q 843 217 792 185 l 890 68 q 777 15 842 38 q 642 -15 713 -8 l 614 -65 z "},"D":{"ha":1065,"x_min":132,"x_max":999,"o":"m 508 944 q 775 883 664 944 q 942 715 886 822 q 999 474 999 608 q 942 228 999 336 q 776 60 886 121 q 508 0 665 0 l 132 0 l 132 944 l 508 944 m 508 157 q 707 242 636 157 q 778 472 778 328 q 707 701 778 615 q 508 788 636 788 l 351 788 l 351 157 l 508 157 z "},"Ð":{"ha":1065,"x_min":4,"x_max":999,"o":"m 508 944 q 775 883 664 944 q 942 715 886 822 q 999 474 999 608 q 942 228 999 336 q 776 60 886 121 q 508 0 665 0 l 132 0 l 132 421 l 4 421 l 4 569 l 132 569 l 132 944 l 508 944 m 508 157 q 707 242 636 157 q 778 472 778 328 q 707 701 778 615 q 508 788 636 788 l 351 788 l 351 569 l 546 569 l 546 421 l 351 421 l 351 157 l 508 157 z "},"Ď":{"ha":1065,"x_min":132,"x_max":999,"o":"m 132 0 m 508 944 q 775 883 664 944 q 942 715 886 822 q 999 474 999 608 q 942 228 999 336 q 776 60 886 121 q 508 0 665 0 l 132 0 l 132 944 l 508 944 m 508 157 q 707 242 636 157 q 778 472 778 328 q 707 701 778 615 q 508 788 636 788 l 351 788 l 351 157 l 508 157 m 803 1260 l 604 1028 l 399 1028 l 200 1260 l 400 1260 l 501 1129 l 603 1260 l 803 1260 z "},"Đ":{"ha":1065,"x_min":4,"x_max":999,"o":"m 508 944 q 775 883 664 944 q 942 715 886 822 q 999 474 999 608 q 942 228 999 336 q 776 60 886 121 q 508 0 665 0 l 132 0 l 132 421 l 4 421 l 4 569 l 132 569 l 132 944 l 508 944 m 508 157 q 707 242 636 157 q 778 472 778 328 q 707 701 778 615 q 508 788 636 788 l 351 788 l 351 569 l 546 569 l 546 421 l 351 421 l 351 157 l 508 157 z "},"E":{"ha":829,"x_min":132,"x_max":757,"o":"m 757 154 l 757 0 l 132 0 l 132 944 l 729 944 l 729 790 l 351 790 l 351 576 l 674 576 l 674 422 l 351 422 l 351 154 l 757 154 z "},"É":{"ha":829,"x_min":132,"x_max":757,"o":"m 132 0 m 757 154 l 757 0 l 132 0 l 132 944 l 729 944 l 729 790 l 351 790 l 351 576 l 674 576 l 674 422 l 351 422 l 351 154 l 757 154 m 526 1260 l 751 1260 l 515 1028 l 336 1028 l 526 1260 z "},"Ě":{"ha":829,"x_min":132,"x_max":757,"o":"m 132 0 m 757 154 l 757 0 l 132 0 l 132 944 l 729 944 l 729 790 l 351 790 l 351 576 l 674 576 l 674 422 l 351 422 l 351 154 l 757 154 m 738 1260 l 539 1028 l 333 1028 l 135 1260 l 335 1260 l 436 1129 l 538 1260 l 738 1260 z "},"Ê":{"ha":829,"x_min":132,"x_max":757,"o":"m 132 0 m 757 154 l 757 0 l 132 0 l 132 944 l 729 944 l 729 790 l 351 790 l 351 576 l 674 576 l 674 422 l 351 422 l 351 154 l 757 154 m 538 1028 l 436 1158 l 335 1028 l 135 1028 l 333 1260 l 539 1260 l 738 1028 l 538 1028 z "},"Ë":{"ha":829,"x_min":132,"x_max":757,"o":"m 132 0 m 757 154 l 757 0 l 132 0 l 132 944 l 729 944 l 729 790 l 351 790 l 351 576 l 674 576 l 674 422 l 351 422 l 351 154 l 757 154 m 267 1038 q 193 1069 224 1038 q 163 1142 163 1100 q 193 1216 163 1185 q 267 1247 224 1247 q 341 1216 310 1247 q 372 1142 372 1185 q 341 1069 372 1100 q 267 1038 310 1038 m 606 1038 q 532 1069 563 1038 q 501 1142 501 1100 q 532 1216 501 1185 q 606 1247 563 1247 q 680 1216 649 1247 q 711 1142 711 1185 q 680 1069 711 1100 q 606 1038 649 1038 z "},"Ė":{"ha":829,"x_min":132,"x_max":757,"o":"m 132 0 m 757 154 l 757 0 l 132 0 l 132 944 l 729 944 l 729 790 l 351 790 l 351 576 l 674 576 l 674 422 l 351 422 l 351 154 l 757 154 m 436 1038 q 363 1068 393 1038 q 332 1142 332 1099 q 363 1215 332 1185 q 436 1246 393 1246 q 510 1215 479 1246 q 542 1142 542 1185 q 510 1068 542 1099 q 436 1038 479 1038 z "},"È":{"ha":829,"x_min":125,"x_max":757,"o":"m 125 0 m 757 154 l 757 0 l 132 0 l 132 944 l 729 944 l 729 790 l 351 790 l 351 576 l 674 576 l 674 422 l 351 422 l 351 154 l 757 154 m 125 1260 l 350 1260 l 540 1028 l 360 1028 l 125 1260 z "},"Ē":{"ha":829,"x_min":132,"x_max":757,"o":"m 132 0 m 757 154 l 757 0 l 132 0 l 132 944 l 729 944 l 729 790 l 351 790 l 351 576 l 674 576 l 674 422 l 351 422 l 351 154 l 757 154 m 174 1224 l 700 1224 l 700 1074 l 174 1074 l 174 1224 z "},"Ę":{"ha":829,"x_min":132,"x_max":757,"o":"m 132 0 m 757 154 l 757 0 l 132 0 l 132 944 l 729 944 l 729 790 l 351 790 l 351 576 l 674 576 l 674 422 l 351 422 l 351 154 l 757 154 m 561 -374 q 431 -331 479 -374 q 382 -215 382 -289 q 421 -92 382 -156 q 528 21 460 -28 l 696 21 q 550 -172 550 -96 q 564 -208 550 -196 q 601 -221 578 -221 q 696 -176 644 -221 l 753 -292 q 672 -349 725 -324 q 561 -374 618 -374 z "},"F":{"ha":760,"x_min":132,"x_max":729,"o":"m 351 788 l 351 529 l 674 529 l 674 374 l 351 374 l 351 0 l 132 0 l 132 944 l 729 944 l 729 788 l 351 788 z "},"G":{"ha":989,"x_min":67,"x_max":917,"o":"m 917 461 l 917 50 q 764 1 851 19 q 582 -18 676 -18 q 298 49 414 -18 q 124 228 182 117 q 67 474 67 340 q 127 717 67 606 q 307 894 188 828 q 596 961 426 961 q 756 941 681 961 q 886 885 831 921 l 835 732 q 596 801 731 801 q 428 758 499 801 q 322 640 358 714 q 286 472 286 565 q 363 234 286 326 q 582 142 440 142 q 704 151 639 142 l 704 461 l 917 461 z "},"Ğ":{"ha":989,"x_min":67,"x_max":917,"o":"m 67 0 m 917 461 l 917 50 q 764 1 851 19 q 582 -18 676 -18 q 298 49 414 -18 q 124 228 182 117 q 67 474 67 340 q 127 717 67 606 q 307 894 188 828 q 596 961 426 961 q 756 941 681 961 q 886 885 831 921 l 835 732 q 596 801 731 801 q 428 758 499 801 q 322 640 358 714 q 286 472 286 565 q 363 234 286 326 q 582 142 440 142 q 704 151 639 142 l 704 461 l 917 461 m 575 1024 q 385 1088 454 1024 q 314 1265 317 1153 l 468 1267 q 499 1190 471 1215 q 575 1164 528 1164 q 650 1190 622 1164 q 681 1267 678 1215 l 835 1264 q 763 1088 832 1151 q 575 1024 694 1024 z "},"Ģ":{"ha":989,"x_min":67,"x_max":917,"o":"m 67 0 m 917 461 l 917 50 q 764 1 851 19 q 582 -18 676 -18 q 298 49 414 -18 q 124 228 182 117 q 67 474 67 340 q 127 717 67 606 q 307 894 188 828 q 596 961 426 961 q 756 941 681 961 q 886 885 831 921 l 835 732 q 596 801 731 801 q 428 758 499 801 q 322 640 358 714 q 286 472 286 565 q 363 234 286 326 q 582 142 440 142 q 704 151 639 142 l 704 461 l 917 461 m 454 -265 q 535 -244 513 -261 q 558 -200 558 -228 q 489 -150 558 -154 l 532 -47 q 672 -97 628 -57 q 715 -192 715 -136 q 655 -309 715 -262 q 486 -361 594 -356 l 454 -265 z "},"H":{"ha":1122,"x_min":132,"x_max":989,"o":"m 989 944 l 989 0 l 769 0 l 769 421 l 351 421 l 351 0 l 132 0 l 132 944 l 351 944 l 351 578 l 769 578 l 769 944 l 989 944 z "},"Ħ":{"ha":1122,"x_min":4,"x_max":1118,"o":"m 1118 690 l 989 690 l 989 0 l 769 0 l 769 421 l 351 421 l 351 0 l 132 0 l 132 690 l 4 690 l 4 840 l 132 840 l 132 944 l 351 944 l 351 840 l 769 840 l 769 944 l 989 944 l 989 840 l 1118 840 l 1118 690 m 769 690 l 351 690 l 351 578 l 769 578 l 769 690 z "},"I":{"ha":485,"x_min":132,"x_max":351,"o":"m 132 944 l 351 944 l 351 0 l 132 0 l 132 944 z "},"Ĳ":{"ha":968,"x_min":132,"x_max":836,"o":"m 132 0 m 132 944 l 351 944 l 351 0 l 132 0 l 132 944 m 531 -333 q 396 -322 476 -333 l 411 -167 q 494 -174 460 -174 q 588 -135 558 -174 q 617 -15 617 -96 l 617 944 l 836 944 l 836 -18 q 760 -252 836 -171 q 531 -333 685 -333 z "},"Í":{"ha":485,"x_min":132,"x_max":557,"o":"m 132 0 m 132 944 l 351 944 l 351 0 l 132 0 l 132 944 m 332 1260 l 557 1260 l 321 1028 l 142 1028 l 332 1260 z "},"Î":{"ha":485,"x_min":-60,"x_max":543,"o":"m 0 0 m 132 944 l 351 944 l 351 0 l 132 0 l 132 944 m 343 1028 l 242 1158 l 140 1028 l -60 1028 l 139 1260 l 344 1260 l 543 1028 l 343 1028 z "},"Ï":{"ha":485,"x_min":-32,"x_max":517,"o":"m 0 0 m 132 944 l 351 944 l 351 0 l 132 0 l 132 944 m 72 1038 q -1 1069 29 1038 q -32 1142 -32 1100 q -1 1216 -32 1185 q 72 1247 29 1247 q 147 1216 115 1247 q 178 1142 178 1185 q 147 1069 178 1100 q 72 1038 115 1038 m 411 1038 q 338 1069 368 1038 q 307 1142 307 1100 q 338 1216 307 1185 q 411 1247 368 1247 q 485 1216 454 1247 q 517 1142 517 1185 q 485 1069 517 1100 q 411 1038 454 1038 z "},"İ":{"ha":485,"x_min":132,"x_max":351,"o":"m 132 0 m 132 944 l 351 944 l 351 0 l 132 0 l 132 944 m 242 1038 q 168 1068 199 1038 q 138 1142 138 1099 q 168 1215 138 1185 q 242 1246 199 1246 q 316 1215 285 1246 q 347 1142 347 1185 q 316 1068 347 1099 q 242 1038 285 1038 z "},"Ì":{"ha":485,"x_min":-69,"x_max":351,"o":"m 0 0 m 132 944 l 351 944 l 351 0 l 132 0 l 132 944 m -69 1260 l 156 1260 l 346 1028 l 165 1028 l -69 1260 z "},"Ī":{"ha":485,"x_min":-21,"x_max":506,"o":"m 0 0 m 132 944 l 351 944 l 351 0 l 132 0 l 132 944 m -21 1224 l 506 1224 l 506 1074 l -21 1074 l -21 1224 z "},"Į":{"ha":485,"x_min":8,"x_max":379,"o":"m 379 -292 q 298 -349 351 -324 q 188 -374 244 -374 q 57 -331 106 -374 q 8 -215 8 -289 q 41 -102 8 -161 q 132 4 74 -43 l 132 944 l 351 944 l 351 0 l 297 0 q 176 -172 176 -104 q 190 -208 176 -196 q 228 -221 204 -221 q 322 -176 271 -221 l 379 -292 z "},"Ĩ":{"ha":485,"x_min":-25,"x_max":508,"o":"m 0 0 m 132 944 l 351 944 l 351 0 l 132 0 l 132 944 m -25 1025 q 26 1196 -18 1133 q 140 1258 71 1258 q 194 1247 169 1258 q 250 1217 219 1236 q 297 1192 279 1200 q 332 1183 314 1183 q 367 1203 353 1183 q 392 1269 382 1224 l 508 1264 q 456 1097 501 1163 q 343 1031 410 1031 q 288 1041 313 1031 q 225 1074 263 1051 q 183 1098 199 1090 q 151 1106 167 1106 q 116 1085 131 1106 q 92 1019 101 1065 l -25 1025 z "},"J":{"ha":485,"x_min":-89,"x_max":351,"o":"m 46 -333 q -89 -322 -8 -333 l -74 -167 q 10 -174 -25 -174 q 103 -135 74 -174 q 132 -15 132 -96 l 132 944 l 351 944 l 351 -18 q 276 -252 351 -171 q 46 -333 200 -333 z "},"Ĵ":{"ha":485,"x_min":-89,"x_max":543,"o":"m 0 0 m 46 -333 q -89 -322 -8 -333 l -74 -167 q 10 -174 -25 -174 q 103 -135 74 -174 q 132 -15 132 -96 l 132 944 l 351 944 l 351 -18 q 276 -252 351 -171 q 46 -333 200 -333 m 343 1028 l 242 1158 l 140 1028 l -60 1028 l 139 1260 l 344 1260 l 543 1028 l 343 1028 z "},"K":{"ha":1007,"x_min":132,"x_max":992,"o":"m 726 0 l 351 489 l 351 0 l 132 0 l 132 944 l 351 944 l 351 524 l 699 944 l 951 944 l 565 510 l 992 0 l 726 0 z "},"Ķ":{"ha":1007,"x_min":132,"x_max":992,"o":"m 132 0 m 726 0 l 351 489 l 351 0 l 132 0 l 132 944 l 351 944 l 351 524 l 699 944 l 951 944 l 565 510 l 992 0 l 726 0 m 399 -265 q 480 -244 457 -261 q 503 -200 503 -228 q 433 -150 503 -154 l 476 -47 q 616 -97 572 -57 q 660 -192 660 -136 q 599 -309 660 -262 q 431 -361 539 -356 l 399 -265 z "},"L":{"ha":779,"x_min":132,"x_max":757,"o":"m 757 154 l 757 0 l 132 0 l 132 944 l 351 944 l 351 154 l 757 154 z "},"Ĺ":{"ha":779,"x_min":132,"x_max":757,"o":"m 132 0 m 757 154 l 757 0 l 132 0 l 132 944 l 351 944 l 351 154 l 757 154 m 335 1260 l 560 1260 l 324 1028 l 144 1028 l 335 1260 z "},"Ľ":{"ha":779,"x_min":132,"x_max":757,"o":"m 132 0 m 757 154 l 757 0 l 132 0 l 132 944 l 351 944 l 351 154 l 757 154 m 461 639 q 514 713 497 674 q 531 804 531 753 q 496 944 531 872 l 685 944 q 703 824 703 881 q 651 672 703 740 q 521 561 599 603 l 461 639 z "},"Ļ":{"ha":779,"x_min":132,"x_max":757,"o":"m 132 0 m 757 154 l 757 0 l 132 0 l 132 944 l 351 944 l 351 154 l 757 154 m 333 -265 q 415 -244 392 -261 q 438 -200 438 -228 q 368 -150 438 -154 l 411 -47 q 551 -97 507 -57 q 594 -192 594 -136 q 534 -309 594 -262 q 365 -361 474 -356 l 333 -265 z "},"Ŀ":{"ha":779,"x_min":132,"x_max":757,"o":"m 132 0 m 757 154 l 757 0 l 132 0 l 132 944 l 351 944 l 351 154 l 757 154 m 617 375 q 524 413 563 375 q 486 506 486 451 q 524 598 486 560 q 617 636 563 636 q 709 598 671 636 q 747 506 747 560 q 709 413 747 451 q 617 375 671 375 z "},"Ł":{"ha":779,"x_min":-18,"x_max":757,"o":"m 757 154 l 757 0 l 132 0 l 132 254 l 64 211 l -18 342 l 132 436 l 132 944 l 351 944 l 351 575 l 576 717 l 658 588 l 351 393 l 351 154 l 757 154 z "},"M":{"ha":1265,"x_min":132,"x_max":1132,"o":"m 1132 944 l 1132 0 l 918 0 l 918 269 l 932 606 l 714 249 l 550 249 l 328 611 l 346 269 l 346 0 l 132 0 l 132 944 l 338 944 l 632 469 l 926 944 l 1132 944 z "},"N":{"ha":1122,"x_min":132,"x_max":989,"o":"m 989 944 l 989 0 l 793 -1 l 335 629 l 351 315 l 351 0 l 132 0 l 132 944 l 329 944 l 786 318 l 769 638 l 769 944 l 989 944 z "},"Ń":{"ha":1122,"x_min":132,"x_max":989,"o":"m 132 0 m 989 944 l 989 0 l 793 -1 l 335 629 l 351 315 l 351 0 l 132 0 l 132 944 l 329 944 l 786 318 l 769 638 l 769 944 l 989 944 m 650 1260 l 875 1260 l 639 1028 l 460 1028 l 650 1260 z "},"Ň":{"ha":1122,"x_min":132,"x_max":989,"o":"m 132 0 m 989 944 l 989 0 l 793 -1 l 335 629 l 351 315 l 351 0 l 132 0 l 132 944 l 329 944 l 786 318 l 769 638 l 769 944 l 989 944 m 861 1260 l 663 1028 l 457 1028 l 258 1260 l 458 1260 l 560 1129 l 661 1260 l 861 1260 z "},"Ņ":{"ha":1122,"x_min":132,"x_max":989,"o":"m 132 0 m 989 944 l 989 0 l 793 -1 l 335 629 l 351 315 l 351 0 l 132 0 l 132 944 l 329 944 l 786 318 l 769 638 l 769 944 l 989 944 m 432 -265 q 513 -244 490 -261 q 536 -200 536 -228 q 467 -150 536 -154 l 510 -47 q 649 -97 606 -57 q 693 -192 693 -136 q 633 -309 693 -262 q 464 -361 572 -356 l 432 -265 z "},"Ñ":{"ha":1122,"x_min":132,"x_max":989,"o":"m 132 0 m 989 944 l 989 0 l 793 -1 l 335 629 l 351 315 l 351 0 l 132 0 l 132 944 l 329 944 l 786 318 l 769 638 l 769 944 l 989 944 m 293 1025 q 344 1196 300 1133 q 458 1258 389 1258 q 513 1247 488 1258 q 568 1217 538 1236 q 615 1192 597 1200 q 650 1183 632 1183 q 685 1203 671 1183 q 710 1269 700 1224 l 826 1264 q 774 1097 819 1163 q 661 1031 728 1031 q 606 1041 631 1031 q 543 1074 581 1051 q 501 1098 517 1090 q 469 1106 485 1106 q 434 1085 449 1106 q 410 1019 419 1065 l 293 1025 z "},"O":{"ha":1132,"x_min":67,"x_max":1067,"o":"m 567 -18 q 295 48 408 -18 q 124 225 182 114 q 67 472 67 336 q 124 718 67 607 q 295 895 182 829 q 567 961 408 961 q 838 895 725 961 q 1009 718 951 829 q 1067 472 1067 607 q 1009 224 1067 336 q 839 47 951 113 q 567 -18 726 -18 m 567 142 q 718 185 654 142 q 815 303 782 228 q 847 472 847 378 q 815 641 847 567 q 718 758 782 715 q 567 801 654 801 q 415 758 479 801 q 319 641 351 715 q 286 472 286 567 q 319 303 286 378 q 415 185 351 228 q 567 142 479 142 z "},"Ó":{"ha":1132,"x_min":67,"x_max":1067,"o":"m 67 0 m 567 -18 q 295 48 408 -18 q 124 225 182 114 q 67 472 67 336 q 124 718 67 607 q 295 895 182 829 q 567 961 408 961 q 838 895 725 961 q 1009 718 951 829 q 1067 472 1067 607 q 1009 224 1067 336 q 839 47 951 113 q 567 -18 726 -18 m 567 142 q 718 185 654 142 q 815 303 782 228 q 847 472 847 378 q 815 641 847 567 q 718 758 782 715 q 567 801 654 801 q 415 758 479 801 q 319 641 351 715 q 286 472 286 567 q 319 303 286 378 q 415 185 351 228 q 567 142 479 142 m 657 1260 l 882 1260 l 646 1028 l 467 1028 l 657 1260 z "},"Ô":{"ha":1132,"x_min":67,"x_max":1067,"o":"m 67 0 m 567 -18 q 295 48 408 -18 q 124 225 182 114 q 67 472 67 336 q 124 718 67 607 q 295 895 182 829 q 567 961 408 961 q 838 895 725 961 q 1009 718 951 829 q 1067 472 1067 607 q 1009 224 1067 336 q 839 47 951 113 q 567 -18 726 -18 m 567 142 q 718 185 654 142 q 815 303 782 228 q 847 472 847 378 q 815 641 847 567 q 718 758 782 715 q 567 801 654 801 q 415 758 479 801 q 319 641 351 715 q 286 472 286 567 q 319 303 286 378 q 415 185 351 228 q 567 142 479 142 m 668 1028 l 567 1158 l 465 1028 l 265 1028 l 464 1260 l 669 1260 l 868 1028 l 668 1028 z "},"Ö":{"ha":1132,"x_min":67,"x_max":1067,"o":"m 67 0 m 567 -18 q 295 48 408 -18 q 124 225 182 114 q 67 472 67 336 q 124 718 67 607 q 295 895 182 829 q 567 961 408 961 q 838 895 725 961 q 1009 718 951 829 q 1067 472 1067 607 q 1009 224 1067 336 q 839 47 951 113 q 567 -18 726 -18 m 567 142 q 718 185 654 142 q 815 303 782 228 q 847 472 847 378 q 815 641 847 567 q 718 758 782 715 q 567 801 654 801 q 415 758 479 801 q 319 641 351 715 q 286 472 286 567 q 319 303 286 378 q 415 185 351 228 q 567 142 479 142 m 397 1038 q 324 1069 354 1038 q 293 1142 293 1100 q 324 1216 293 1185 q 397 1247 354 1247 q 472 1216 440 1247 q 503 1142 503 1185 q 472 1069 503 1100 q 397 1038 440 1038 m 736 1038 q 663 1069 693 1038 q 632 1142 632 1100 q 663 1216 632 1185 q 736 1247 693 1247 q 810 1216 779 1247 q 842 1142 842 1185 q 810 1069 842 1100 q 736 1038 779 1038 z "},"Ò":{"ha":1132,"x_min":67,"x_max":1067,"o":"m 67 0 m 567 -18 q 295 48 408 -18 q 124 225 182 114 q 67 472 67 336 q 124 718 67 607 q 295 895 182 829 q 567 961 408 961 q 838 895 725 961 q 1009 718 951 829 q 1067 472 1067 607 q 1009 224 1067 336 q 839 47 951 113 q 567 -18 726 -18 m 567 142 q 718 185 654 142 q 815 303 782 228 q 847 472 847 378 q 815 641 847 567 q 718 758 782 715 q 567 801 654 801 q 415 758 479 801 q 319 641 351 715 q 286 472 286 567 q 319 303 286 378 q 415 185 351 228 q 567 142 479 142 m 256 1260 l 481 1260 l 671 1028 l 490 1028 l 256 1260 z "},"Ő":{"ha":1132,"x_min":67,"x_max":1067,"o":"m 67 0 m 567 -18 q 295 48 408 -18 q 124 225 182 114 q 67 472 67 336 q 124 718 67 607 q 295 895 182 829 q 567 961 408 961 q 838 895 725 961 q 1009 718 951 829 q 1067 472 1067 607 q 1009 224 1067 336 q 839 47 951 113 q 567 -18 726 -18 m 567 142 q 718 185 654 142 q 815 303 782 228 q 847 472 847 378 q 815 641 847 567 q 718 758 782 715 q 567 801 654 801 q 415 758 479 801 q 319 641 351 715 q 286 472 286 567 q 319 303 286 378 q 415 185 351 228 q 567 142 479 142 m 535 1260 l 736 1260 l 501 1028 l 344 1028 l 535 1260 m 818 1260 l 1019 1260 l 785 1028 l 628 1028 l 818 1260 z "},"Ō":{"ha":1132,"x_min":67,"x_max":1067,"o":"m 67 0 m 567 -18 q 295 48 408 -18 q 124 225 182 114 q 67 472 67 336 q 124 718 67 607 q 295 895 182 829 q 567 961 408 961 q 838 895 725 961 q 1009 718 951 829 q 1067 472 1067 607 q 1009 224 1067 336 q 839 47 951 113 q 567 -18 726 -18 m 567 142 q 718 185 654 142 q 815 303 782 228 q 847 472 847 378 q 815 641 847 567 q 718 758 782 715 q 567 801 654 801 q 415 758 479 801 q 319 641 351 715 q 286 472 286 567 q 319 303 286 378 q 415 185 351 228 q 567 142 479 142 m 304 1224 l 831 1224 l 831 1074 l 304 1074 l 304 1224 z "},"Ø":{"ha":1144,"x_min":67,"x_max":1067,"o":"m 954 800 q 1038 651 1010 735 q 1067 472 1067 567 q 1009 224 1067 336 q 839 47 951 113 q 567 -18 726 -18 q 306 42 418 -18 l 196 -86 l 78 15 l 183 139 q 97 290 126 204 q 67 472 67 375 q 124 718 67 607 q 295 895 182 829 q 567 961 408 961 q 833 899 715 961 l 938 1021 l 1056 919 l 954 800 m 286 472 q 321 299 286 372 l 715 761 q 567 801 649 801 q 415 758 479 801 q 319 641 351 715 q 286 472 286 567 m 567 142 q 718 185 654 142 q 815 303 782 228 q 847 472 847 378 q 815 639 847 564 l 424 179 q 567 142 485 142 z "},"Õ":{"ha":1132,"x_min":67,"x_max":1067,"o":"m 67 0 m 567 -18 q 295 48 408 -18 q 124 225 182 114 q 67 472 67 336 q 124 718 67 607 q 295 895 182 829 q 567 961 408 961 q 838 895 725 961 q 1009 718 951 829 q 1067 472 1067 607 q 1009 224 1067 336 q 839 47 951 113 q 567 -18 726 -18 m 567 142 q 718 185 654 142 q 815 303 782 228 q 847 472 847 378 q 815 641 847 567 q 718 758 782 715 q 567 801 654 801 q 415 758 479 801 q 319 641 351 715 q 286 472 286 567 q 319 303 286 378 q 415 185 351 228 q 567 142 479 142 m 300 1025 q 351 1196 307 1133 q 465 1258 396 1258 q 519 1247 494 1258 q 575 1217 544 1236 q 622 1192 604 1200 q 657 1183 639 1183 q 692 1203 678 1183 q 717 1269 707 1224 l 833 1264 q 781 1097 826 1163 q 668 1031 735 1031 q 613 1041 638 1031 q 550 1074 588 1051 q 508 1098 524 1090 q 476 1106 492 1106 q 441 1085 456 1106 q 417 1019 426 1065 l 300 1025 z "},"Œ":{"ha":1410,"x_min":67,"x_max":1338,"o":"m 1338 154 l 1338 0 l 557 0 q 290 61 400 0 q 123 229 179 122 q 67 471 67 336 q 123 716 67 608 q 290 884 179 824 q 557 944 400 944 l 1310 944 l 1310 790 l 932 790 l 932 576 l 1254 576 l 1254 422 l 932 422 l 932 154 l 1338 154 m 713 157 l 713 788 l 557 788 q 358 702 429 788 q 286 472 286 617 q 358 243 286 329 q 557 157 429 157 l 713 157 z "},"P":{"ha":924,"x_min":132,"x_max":882,"o":"m 506 944 q 791 869 700 944 q 882 640 882 794 q 791 411 882 486 q 506 336 700 336 l 351 336 l 351 0 l 132 0 l 132 944 l 506 944 m 506 490 q 625 527 588 492 q 663 640 663 563 q 625 753 663 717 q 506 790 588 790 l 351 790 l 351 490 l 506 490 z "},"Þ":{"ha":964,"x_min":132,"x_max":882,"o":"m 506 790 q 791 715 700 790 q 882 486 882 640 q 791 257 882 332 q 506 182 700 182 l 351 182 l 351 0 l 132 0 l 132 944 l 351 944 l 351 790 l 506 790 m 506 336 q 625 373 588 338 q 663 486 663 408 q 625 599 663 563 q 506 636 588 636 l 351 636 l 351 336 l 506 336 z "},"Q":{"ha":1132,"x_min":67,"x_max":1268,"o":"m 1268 -272 q 1171 -318 1217 -304 q 1075 -332 1125 -332 q 892 -299 972 -332 q 749 -192 811 -267 l 601 -17 q 567 -18 590 -18 q 295 48 408 -18 q 124 225 182 114 q 67 472 67 336 q 124 718 67 607 q 295 895 182 829 q 567 961 408 961 q 838 895 725 961 q 1009 718 951 829 q 1067 472 1067 607 q 999 207 1067 325 q 806 31 932 89 l 874 -50 q 978 -142 928 -115 q 1082 -168 1029 -168 q 1246 -122 1169 -168 l 1268 -272 m 286 472 q 319 303 286 378 q 415 185 351 228 q 567 142 479 142 q 718 185 654 142 q 815 303 782 228 q 847 472 847 378 q 815 641 847 567 q 718 758 782 715 q 567 801 654 801 q 415 758 479 801 q 319 641 351 715 q 286 472 286 567 z "},"R":{"ha":1010,"x_min":132,"x_max":985,"o":"m 496 364 l 351 364 l 351 0 l 132 0 l 132 944 l 494 944 q 778 876 688 944 q 868 667 868 807 q 710 408 868 469 l 985 0 l 732 0 l 496 364 m 351 518 l 494 518 q 612 551 575 518 q 649 654 649 585 q 612 757 649 724 q 494 790 575 790 l 351 790 l 351 518 z "},"Ŕ":{"ha":1010,"x_min":132,"x_max":985,"o":"m 132 0 m 496 364 l 351 364 l 351 0 l 132 0 l 132 944 l 494 944 q 778 876 688 944 q 868 667 868 807 q 710 408 868 469 l 985 0 l 732 0 l 496 364 m 351 518 l 494 518 q 612 551 575 518 q 649 654 649 585 q 612 757 649 724 q 494 790 575 790 l 351 790 l 351 518 m 561 1260 l 786 1260 l 550 1028 l 371 1028 l 561 1260 z "},"Ř":{"ha":1010,"x_min":132,"x_max":985,"o":"m 132 0 m 496 364 l 351 364 l 351 0 l 132 0 l 132 944 l 494 944 q 778 876 688 944 q 868 667 868 807 q 710 408 868 469 l 985 0 l 732 0 l 496 364 m 351 518 l 494 518 q 612 551 575 518 q 649 654 649 585 q 612 757 649 724 q 494 790 575 790 l 351 790 l 351 518 m 772 1260 l 574 1028 l 368 1028 l 169 1260 l 369 1260 l 471 1129 l 572 1260 l 772 1260 z "},"Ŗ":{"ha":1010,"x_min":132,"x_max":985,"o":"m 132 0 m 496 364 l 351 364 l 351 0 l 132 0 l 132 944 l 494 944 q 778 876 688 944 q 868 667 868 807 q 710 408 868 469 l 985 0 l 732 0 l 496 364 m 351 518 l 494 518 q 612 551 575 518 q 649 654 649 585 q 612 757 649 724 q 494 790 575 790 l 351 790 l 351 518 m 385 -265 q 466 -244 443 -261 q 489 -200 489 -228 q 419 -150 489 -154 l 463 -47 q 602 -97 558 -57 q 646 -192 646 -136 q 585 -309 646 -262 q 417 -361 525 -356 l 385 -265 z "},"S":{"ha":844,"x_min":58,"x_max":785,"o":"m 385 -18 q 206 1 290 -18 q 58 53 121 19 l 104 204 q 244 157 178 172 q 382 142 310 142 q 515 172 461 142 q 569 257 569 201 q 544 319 569 293 q 480 363 518 346 q 374 406 442 381 q 226 468 283 439 q 129 548 169 497 q 89 675 89 599 q 191 886 89 811 q 465 961 293 961 q 615 943 542 961 q 746 892 688 925 l 699 742 q 472 801 576 801 q 349 772 396 801 q 303 689 303 743 q 347 615 303 643 q 489 551 392 588 q 641 487 582 517 q 742 404 700 457 q 785 271 785 351 q 681 58 785 135 q 385 -18 576 -18 z "},"Ś":{"ha":844,"x_min":58,"x_max":785,"o":"m 58 0 m 385 -18 q 206 1 290 -18 q 58 53 121 19 l 104 204 q 244 157 178 172 q 382 142 310 142 q 515 172 461 142 q 569 257 569 201 q 544 319 569 293 q 480 363 518 346 q 374 406 442 381 q 226 468 283 439 q 129 548 169 497 q 89 675 89 599 q 191 886 89 811 q 465 961 293 961 q 615 943 542 961 q 746 892 688 925 l 699 742 q 472 801 576 801 q 349 772 396 801 q 303 689 303 743 q 347 615 303 643 q 489 551 392 588 q 641 487 582 517 q 742 404 700 457 q 785 271 785 351 q 681 58 785 135 q 385 -18 576 -18 m 533 1260 l 758 1260 l 522 1028 l 343 1028 l 533 1260 z "},"Š":{"ha":844,"x_min":58,"x_max":785,"o":"m 58 0 m 385 -18 q 206 1 290 -18 q 58 53 121 19 l 104 204 q 244 157 178 172 q 382 142 310 142 q 515 172 461 142 q 569 257 569 201 q 544 319 569 293 q 480 363 518 346 q 374 406 442 381 q 226 468 283 439 q 129 548 169 497 q 89 675 89 599 q 191 886 89 811 q 465 961 293 961 q 615 943 542 961 q 746 892 688 925 l 699 742 q 472 801 576 801 q 349 772 396 801 q 303 689 303 743 q 347 615 303 643 q 489 551 392 588 q 641 487 582 517 q 742 404 700 457 q 785 271 785 351 q 681 58 785 135 q 385 -18 576 -18 m 744 1260 l 546 1028 l 340 1028 l 142 1260 l 342 1260 l 443 1129 l 544 1260 l 744 1260 z "},"Ş":{"ha":844,"x_min":58,"x_max":785,"o":"m 785 271 q 710 83 785 157 q 496 -11 636 10 l 465 -65 q 555 -101 519 -69 q 590 -178 590 -132 q 531 -285 590 -237 q 343 -337 472 -333 l 314 -243 q 408 -224 383 -237 q 433 -187 433 -210 q 421 -163 433 -172 q 388 -154 408 -154 q 347 -162 367 -154 l 304 -107 l 353 -18 q 192 3 268 -15 q 58 53 115 22 l 104 204 q 244 157 178 172 q 382 142 310 142 q 515 172 461 142 q 569 257 569 201 q 544 319 569 293 q 480 363 518 346 q 374 406 442 381 q 226 468 283 439 q 129 548 169 497 q 89 675 89 599 q 191 886 89 811 q 465 961 293 961 q 615 943 542 961 q 746 892 688 925 l 699 742 q 472 801 576 801 q 349 772 396 801 q 303 689 303 743 q 347 615 303 643 q 489 551 392 588 q 641 487 582 517 q 742 404 700 457 q 785 271 785 351 z "},"Ș":{"ha":844,"x_min":58,"x_max":785,"o":"m 58 0 m 385 -18 q 206 1 290 -18 q 58 53 121 19 l 104 204 q 244 157 178 172 q 382 142 310 142 q 515 172 461 142 q 569 257 569 201 q 544 319 569 293 q 480 363 518 346 q 374 406 442 381 q 226 468 283 439 q 129 548 169 497 q 89 675 89 599 q 191 886 89 811 q 465 961 293 961 q 615 943 542 961 q 746 892 688 925 l 699 742 q 472 801 576 801 q 349 772 396 801 q 303 689 303 743 q 347 615 303 643 q 489 551 392 588 q 641 487 582 517 q 742 404 700 457 q 785 271 785 351 q 681 58 785 135 q 385 -18 576 -18 m 307 -265 q 388 -244 365 -261 q 411 -200 411 -228 q 342 -150 411 -154 l 385 -47 q 524 -97 481 -57 q 568 -192 568 -136 q 508 -309 568 -262 q 339 -361 447 -356 l 307 -265 z "},"T":{"ha":829,"x_min":33,"x_max":797,"o":"m 797 788 l 524 788 l 524 0 l 304 0 l 304 788 l 33 788 l 33 944 l 797 944 l 797 788 z "},"Ť":{"ha":829,"x_min":33,"x_max":797,"o":"m 33 0 m 797 788 l 524 788 l 524 0 l 304 0 l 304 788 l 33 788 l 33 944 l 797 944 l 797 788 m 717 1260 l 518 1028 l 313 1028 l 114 1260 l 314 1260 l 415 1129 l 517 1260 l 717 1260 z "},"Ț":{"ha":829,"x_min":33,"x_max":797,"o":"m 33 0 m 797 788 l 524 788 l 524 0 l 304 0 l 304 788 l 33 788 l 33 944 l 797 944 l 797 788 m 288 -265 q 369 -244 346 -261 q 392 -200 392 -228 q 322 -150 392 -154 l 365 -47 q 505 -97 461 -57 q 549 -192 549 -136 q 488 -309 549 -262 q 319 -361 428 -356 l 288 -265 z "},"U":{"ha":1094,"x_min":118,"x_max":975,"o":"m 547 -18 q 228 86 339 -18 q 118 372 118 190 l 118 944 l 338 944 l 338 374 q 547 142 338 142 q 756 374 756 142 l 756 944 l 975 944 l 975 375 q 865 87 975 192 q 547 -18 756 -18 z "},"Ú":{"ha":1094,"x_min":118,"x_max":975,"o":"m 118 0 m 547 -18 q 228 86 339 -18 q 118 372 118 190 l 118 944 l 338 944 l 338 374 q 547 142 338 142 q 756 374 756 142 l 756 944 l 975 944 l 975 375 q 865 87 975 192 q 547 -18 756 -18 m 638 1260 l 863 1260 l 626 1028 l 447 1028 l 638 1260 z "},"Û":{"ha":1094,"x_min":118,"x_max":975,"o":"m 118 0 m 547 -18 q 228 86 339 -18 q 118 372 118 190 l 118 944 l 338 944 l 338 374 q 547 142 338 142 q 756 374 756 142 l 756 944 l 975 944 l 975 375 q 865 87 975 192 q 547 -18 756 -18 m 649 1028 l 547 1158 l 446 1028 l 246 1028 l 444 1260 l 650 1260 l 849 1028 l 649 1028 z "},"Ü":{"ha":1094,"x_min":118,"x_max":975,"o":"m 118 0 m 547 -18 q 228 86 339 -18 q 118 372 118 190 l 118 944 l 338 944 l 338 374 q 547 142 338 142 q 756 374 756 142 l 756 944 l 975 944 l 975 375 q 865 87 975 192 q 547 -18 756 -18 m 378 1038 q 304 1069 335 1038 q 274 1142 274 1100 q 304 1216 274 1185 q 378 1247 335 1247 q 452 1216 421 1247 q 483 1142 483 1185 q 452 1069 483 1100 q 378 1038 421 1038 m 717 1038 q 643 1069 674 1038 q 613 1142 613 1100 q 643 1216 613 1185 q 717 1247 674 1247 q 791 1216 760 1247 q 822 1142 822 1185 q 791 1069 822 1100 q 717 1038 760 1038 z "},"Ù":{"ha":1094,"x_min":118,"x_max":975,"o":"m 118 0 m 547 -18 q 228 86 339 -18 q 118 372 118 190 l 118 944 l 338 944 l 338 374 q 547 142 338 142 q 756 374 756 142 l 756 944 l 975 944 l 975 375 q 865 87 975 192 q 547 -18 756 -18 m 236 1260 l 461 1260 l 651 1028 l 471 1028 l 236 1260 z "},"Ű":{"ha":1094,"x_min":118,"x_max":1001,"o":"m 118 0 m 547 -18 q 228 86 339 -18 q 118 372 118 190 l 118 944 l 338 944 l 338 374 q 547 142 338 142 q 756 374 756 142 l 756 944 l 975 944 l 975 375 q 865 87 975 192 q 547 -18 756 -18 m 517 1260 l 718 1260 l 483 1028 l 326 1028 l 517 1260 m 800 1260 l 1001 1260 l 767 1028 l 610 1028 l 800 1260 z "},"Ū":{"ha":1094,"x_min":118,"x_max":975,"o":"m 118 0 m 547 -18 q 228 86 339 -18 q 118 372 118 190 l 118 944 l 338 944 l 338 374 q 547 142 338 142 q 756 374 756 142 l 756 944 l 975 944 l 975 375 q 865 87 975 192 q 547 -18 756 -18 m 285 1224 l 811 1224 l 811 1074 l 285 1074 l 285 1224 z "},"Ų":{"ha":1094,"x_min":118,"x_max":975,"o":"m 975 944 l 975 375 q 910 139 975 235 q 718 4 844 43 q 592 -172 592 -101 q 606 -208 592 -196 q 643 -221 619 -221 q 738 -176 686 -221 l 794 -292 q 713 -349 767 -324 q 603 -374 660 -374 q 472 -331 521 -374 q 424 -215 424 -289 q 449 -115 424 -167 q 522 -18 475 -62 q 222 92 325 -11 q 118 372 118 196 l 118 944 l 338 944 l 338 374 q 547 142 338 142 q 756 374 756 142 l 756 944 l 975 944 z "},"Ů":{"ha":1094,"x_min":118,"x_max":975,"o":"m 118 0 m 547 -18 q 228 86 339 -18 q 118 372 118 190 l 118 944 l 338 944 l 338 374 q 547 142 338 142 q 756 374 756 142 l 756 944 l 975 944 l 975 375 q 865 87 975 192 q 547 -18 756 -18 m 547 1017 q 402 1058 454 1017 q 350 1163 350 1099 q 402 1267 350 1226 q 547 1307 454 1307 q 692 1267 640 1307 q 744 1163 744 1226 q 692 1058 744 1099 q 547 1017 640 1017 m 547 1114 q 606 1163 606 1114 q 590 1197 606 1185 q 547 1210 575 1210 q 503 1197 519 1210 q 488 1163 488 1185 q 503 1126 488 1139 q 547 1114 519 1114 z "},"V":{"ha":989,"x_min":19,"x_max":968,"o":"m 968 944 l 607 -8 l 382 -8 l 19 944 l 243 944 l 496 200 l 747 944 l 968 944 z "},"W":{"ha":1514,"x_min":19,"x_max":1493,"o":"m 1493 944 l 1171 -8 l 950 -8 l 747 676 l 544 -8 l 322 -8 l 19 944 l 243 944 l 436 221 l 643 944 l 853 944 l 1061 215 l 1267 944 l 1493 944 z "},"X":{"ha":1022,"x_min":28,"x_max":994,"o":"m 736 0 l 510 346 l 282 0 l 28 0 l 382 486 l 49 944 l 307 944 l 510 621 l 713 944 l 967 944 l 633 490 l 994 0 l 736 0 z "},"Y":{"ha":946,"x_min":14,"x_max":931,"o":"m 582 382 l 582 0 l 363 0 l 363 378 l 14 944 l 246 944 l 472 538 l 701 944 l 931 944 l 582 382 z "},"Ý":{"ha":946,"x_min":14,"x_max":931,"o":"m 14 0 m 582 382 l 582 0 l 363 0 l 363 378 l 14 944 l 246 944 l 472 538 l 701 944 l 931 944 l 582 382 m 563 1260 l 788 1260 l 551 1028 l 372 1028 l 563 1260 z "},"Ÿ":{"ha":946,"x_min":14,"x_max":931,"o":"m 14 0 m 582 382 l 582 0 l 363 0 l 363 378 l 14 944 l 246 944 l 472 538 l 701 944 l 931 944 l 582 382 m 303 1038 q 229 1069 260 1038 q 199 1142 199 1100 q 229 1216 199 1185 q 303 1247 260 1247 q 377 1216 346 1247 q 408 1142 408 1185 q 377 1069 408 1100 q 303 1038 346 1038 m 642 1038 q 568 1069 599 1038 q 538 1142 538 1100 q 568 1216 538 1185 q 642 1247 599 1247 q 716 1216 685 1247 q 747 1142 747 1185 q 716 1069 747 1100 q 642 1038 685 1038 z "},"Z":{"ha":969,"x_min":76,"x_max":921,"o":"m 921 157 l 921 0 l 76 0 l 76 121 l 624 788 l 94 788 l 94 944 l 901 944 l 901 813 l 357 157 l 921 157 z "},"Ź":{"ha":969,"x_min":76,"x_max":921,"o":"m 76 0 m 921 157 l 921 0 l 76 0 l 76 121 l 624 788 l 94 788 l 94 944 l 901 944 l 901 813 l 357 157 l 921 157 m 590 1260 l 815 1260 l 579 1028 l 400 1028 l 590 1260 z "},"Ž":{"ha":969,"x_min":76,"x_max":921,"o":"m 76 0 m 921 157 l 921 0 l 76 0 l 76 121 l 624 788 l 94 788 l 94 944 l 901 944 l 901 813 l 357 157 l 921 157 m 801 1260 l 603 1028 l 397 1028 l 199 1260 l 399 1260 l 500 1129 l 601 1260 l 801 1260 z "},"Ż":{"ha":969,"x_min":76,"x_max":921,"o":"m 76 0 m 921 157 l 921 0 l 76 0 l 76 121 l 624 788 l 94 788 l 94 944 l 901 944 l 901 813 l 357 157 l 921 157 m 500 1038 q 426 1068 457 1038 q 396 1142 396 1099 q 426 1215 396 1185 q 500 1246 457 1246 q 574 1215 543 1246 q 606 1142 606 1185 q 574 1068 606 1099 q 500 1038 543 1038 z "},"a":{"ha":835,"x_min":58,"x_max":825,"o":"m 825 7 q 681 -11 746 -11 q 515 78 551 -11 q 397 10 456 33 q 271 -12 338 -12 q 161 13 210 -12 q 85 81 113 38 q 58 178 58 125 q 101 312 58 261 q 219 394 144 363 q 442 467 294 425 l 500 483 l 500 501 q 381 639 500 639 q 257 613 321 639 q 111 526 193 588 l 64 671 q 447 796 256 796 q 644 726 576 796 q 711 489 711 656 l 711 200 q 723 156 711 169 q 763 143 735 143 q 817 151 786 143 l 825 7 m 271 204 q 342 140 271 140 q 415 156 378 140 q 500 203 453 172 l 500 363 l 464 350 q 313 281 354 313 q 271 204 271 250 z "},"á":{"ha":835,"x_min":58,"x_max":825,"o":"m 58 0 m 825 7 q 681 -11 746 -11 q 515 78 551 -11 q 397 10 456 33 q 271 -12 338 -12 q 161 13 210 -12 q 85 81 113 38 q 58 178 58 125 q 101 312 58 261 q 219 394 144 363 q 442 467 294 425 l 500 483 l 500 501 q 381 639 500 639 q 257 613 321 639 q 111 526 193 588 l 64 671 q 447 796 256 796 q 644 726 576 796 q 711 489 711 656 l 711 200 q 723 156 711 169 q 763 143 735 143 q 817 151 786 143 l 825 7 m 271 204 q 342 140 271 140 q 415 156 378 140 q 500 203 453 172 l 500 363 l 464 350 q 313 281 354 313 q 271 204 271 250 m 454 1160 l 682 1160 l 483 865 l 319 865 l 454 1160 z "},"ă":{"ha":835,"x_min":58,"x_max":825,"o":"m 58 0 m 825 7 q 681 -11 746 -11 q 515 78 551 -11 q 397 10 456 33 q 271 -12 338 -12 q 161 13 210 -12 q 85 81 113 38 q 58 178 58 125 q 101 312 58 261 q 219 394 144 363 q 442 467 294 425 l 500 483 l 500 501 q 381 639 500 639 q 257 613 321 639 q 111 526 193 588 l 64 671 q 447 796 256 796 q 644 726 576 796 q 711 489 711 656 l 711 200 q 723 156 711 169 q 763 143 735 143 q 817 151 786 143 l 825 7 m 271 204 q 342 140 271 140 q 415 156 378 140 q 500 203 453 172 l 500 363 l 464 350 q 313 281 354 313 q 271 204 271 250 m 421 869 q 240 940 304 869 q 172 1150 175 1011 l 315 1153 q 346 1046 318 1082 q 421 1010 374 1010 q 497 1046 469 1010 q 528 1154 525 1082 l 671 1150 q 603 940 668 1011 q 421 869 538 869 z "},"â":{"ha":835,"x_min":58,"x_max":825,"o":"m 58 0 m 825 7 q 681 -11 746 -11 q 515 78 551 -11 q 397 10 456 33 q 271 -12 338 -12 q 161 13 210 -12 q 85 81 113 38 q 58 178 58 125 q 101 312 58 261 q 219 394 144 363 q 442 467 294 425 l 500 483 l 500 501 q 381 639 500 639 q 257 613 321 639 q 111 526 193 588 l 64 671 q 447 796 256 796 q 644 726 576 796 q 711 489 711 656 l 711 200 q 723 156 711 169 q 763 143 735 143 q 817 151 786 143 l 825 7 m 271 204 q 342 140 271 140 q 415 156 378 140 q 500 203 453 172 l 500 363 l 464 350 q 313 281 354 313 q 271 204 271 250 m 518 865 l 421 1028 l 322 865 l 158 865 l 315 1157 l 525 1157 l 683 865 l 518 865 z "},"ä":{"ha":835,"x_min":58,"x_max":825,"o":"m 58 0 m 825 7 q 681 -11 746 -11 q 515 78 551 -11 q 397 10 456 33 q 271 -12 338 -12 q 161 13 210 -12 q 85 81 113 38 q 58 178 58 125 q 101 312 58 261 q 219 394 144 363 q 442 467 294 425 l 500 483 l 500 501 q 381 639 500 639 q 257 613 321 639 q 111 526 193 588 l 64 671 q 447 796 256 796 q 644 726 576 796 q 711 489 711 656 l 711 200 q 723 156 711 169 q 763 143 735 143 q 817 151 786 143 l 825 7 m 271 204 q 342 140 271 140 q 415 156 378 140 q 500 203 453 172 l 500 363 l 464 350 q 313 281 354 313 q 271 204 271 250 m 251 913 q 172 947 206 913 q 138 1026 138 981 q 172 1106 138 1072 q 251 1140 206 1140 q 331 1106 297 1140 q 365 1026 365 1072 q 331 947 365 981 q 251 913 297 913 m 590 913 q 510 947 544 913 q 476 1026 476 981 q 510 1106 476 1072 q 590 1140 544 1140 q 670 1106 636 1140 q 704 1026 704 1072 q 670 947 704 981 q 590 913 636 913 z "},"à":{"ha":835,"x_min":58,"x_max":825,"o":"m 58 0 m 825 7 q 681 -11 746 -11 q 515 78 551 -11 q 397 10 456 33 q 271 -12 338 -12 q 161 13 210 -12 q 85 81 113 38 q 58 178 58 125 q 101 312 58 261 q 219 394 144 363 q 442 467 294 425 l 500 483 l 500 501 q 381 639 500 639 q 257 613 321 639 q 111 526 193 588 l 64 671 q 447 796 256 796 q 644 726 576 796 q 711 489 711 656 l 711 200 q 723 156 711 169 q 763 143 735 143 q 817 151 786 143 l 825 7 m 271 204 q 342 140 271 140 q 415 156 378 140 q 500 203 453 172 l 500 363 l 464 350 q 313 281 354 313 q 271 204 271 250 m 157 1160 l 385 1160 l 519 865 l 356 865 l 157 1160 z "},"ā":{"ha":835,"x_min":58,"x_max":825,"o":"m 58 0 m 825 7 q 681 -11 746 -11 q 515 78 551 -11 q 397 10 456 33 q 271 -12 338 -12 q 161 13 210 -12 q 85 81 113 38 q 58 178 58 125 q 101 312 58 261 q 219 394 144 363 q 442 467 294 425 l 500 483 l 500 501 q 381 639 500 639 q 257 613 321 639 q 111 526 193 588 l 64 671 q 447 796 256 796 q 644 726 576 796 q 711 489 711 656 l 711 200 q 723 156 711 169 q 763 143 735 143 q 817 151 786 143 l 825 7 m 271 204 q 342 140 271 140 q 415 156 378 140 q 500 203 453 172 l 500 363 l 464 350 q 313 281 354 313 q 271 204 271 250 m 158 1132 l 685 1132 l 685 982 l 158 982 l 158 1132 z "},"ą":{"ha":835,"x_min":58,"x_max":831,"o":"m 831 -292 q 749 -349 803 -324 q 639 -374 696 -374 q 508 -331 557 -374 q 460 -215 460 -289 q 492 -101 460 -160 q 585 6 525 -42 q 515 78 538 25 q 397 10 456 33 q 271 -12 338 -12 q 161 13 210 -12 q 85 81 113 38 q 58 178 58 125 q 101 312 58 261 q 219 394 144 363 q 442 467 294 425 l 500 483 l 500 501 q 381 639 500 639 q 257 613 321 639 q 111 526 193 588 l 64 671 q 447 796 256 796 q 644 726 576 796 q 711 489 711 656 l 711 200 q 723 156 711 169 q 763 143 735 143 q 817 151 786 143 l 825 7 q 738 -8 771 -6 q 628 -172 628 -106 q 642 -208 628 -196 q 679 -221 656 -221 q 774 -176 722 -221 l 831 -292 m 271 204 q 342 140 271 140 q 415 156 378 140 q 500 203 453 172 l 500 363 l 464 350 q 313 281 354 313 q 271 204 271 250 z "},"å":{"ha":835,"x_min":58,"x_max":825,"o":"m 58 0 m 825 7 q 681 -11 746 -11 q 515 78 551 -11 q 397 10 456 33 q 271 -12 338 -12 q 161 13 210 -12 q 85 81 113 38 q 58 178 58 125 q 101 312 58 261 q 219 394 144 363 q 442 467 294 425 l 500 483 l 500 501 q 381 639 500 639 q 257 613 321 639 q 111 526 193 588 l 64 671 q 447 796 256 796 q 644 726 576 796 q 711 489 711 656 l 711 200 q 723 156 711 169 q 763 143 735 143 q 817 151 786 143 l 825 7 m 271 204 q 342 140 271 140 q 415 156 378 140 q 500 203 453 172 l 500 363 l 464 350 q 313 281 354 313 q 271 204 271 250 m 421 858 q 313 882 358 858 q 244 943 267 906 q 221 1024 221 981 q 244 1104 221 1067 q 313 1165 267 1142 q 421 1188 358 1188 q 528 1165 483 1188 q 597 1103 574 1142 q 619 1024 619 1065 q 597 943 619 981 q 528 882 574 906 q 421 858 483 858 m 421 951 q 472 972 453 951 q 490 1024 490 992 q 472 1074 490 1054 q 421 1094 453 1094 q 370 1074 389 1094 q 351 1024 351 1054 q 370 972 351 992 q 421 951 389 951 z "},"ã":{"ha":835,"x_min":58,"x_max":825,"o":"m 58 0 m 825 7 q 681 -11 746 -11 q 515 78 551 -11 q 397 10 456 33 q 271 -12 338 -12 q 161 13 210 -12 q 85 81 113 38 q 58 178 58 125 q 101 312 58 261 q 219 394 144 363 q 442 467 294 425 l 500 483 l 500 501 q 381 639 500 639 q 257 613 321 639 q 111 526 193 588 l 64 671 q 447 796 256 796 q 644 726 576 796 q 711 489 711 656 l 711 200 q 723 156 711 169 q 763 143 735 143 q 817 151 786 143 l 825 7 m 271 204 q 342 140 271 140 q 415 156 378 140 q 500 203 453 172 l 500 363 l 464 350 q 313 281 354 313 q 271 204 271 250 m 154 915 q 206 1086 161 1024 q 319 1149 250 1149 q 374 1138 349 1149 q 429 1107 399 1126 q 476 1081 458 1089 q 511 1074 493 1074 q 547 1094 532 1074 q 571 1160 561 1114 l 688 1154 q 635 987 681 1053 q 522 921 589 921 q 467 931 492 921 q 404 964 442 942 q 362 988 378 981 q 331 996 346 996 q 295 976 310 996 q 271 910 281 956 l 154 915 z "},"æ":{"ha":1275,"x_min":58,"x_max":1217,"o":"m 899 135 q 1019 160 964 135 q 1140 233 1075 185 l 1201 99 q 1059 10 1131 39 q 897 -18 988 -18 q 708 20 788 -18 q 578 128 628 58 q 426 23 497 58 q 271 -12 356 -12 q 161 13 210 -12 q 85 81 113 38 q 58 178 58 125 q 101 312 58 261 q 219 394 144 363 q 442 467 294 425 l 500 483 l 500 501 q 381 639 500 639 q 257 613 321 639 q 111 526 193 588 l 64 671 q 447 796 256 796 q 636 714 579 796 q 897 796 738 796 q 1132 713 1049 796 q 1217 478 1215 629 q 1200 365 1217 422 l 708 365 q 758 193 713 251 q 899 135 804 135 m 886 653 q 719 504 754 653 l 1010 504 q 1011 524 1011 511 q 976 619 1010 586 q 886 653 942 653 m 342 140 q 426 161 383 140 q 529 224 469 182 q 504 364 508 288 l 464 350 q 313 281 354 313 q 271 204 271 250 q 342 140 271 140 z "},"b":{"ha":933,"x_min":117,"x_max":875,"o":"m 519 796 q 704 750 624 796 q 830 614 785 704 q 875 394 875 524 q 824 162 875 254 q 688 26 772 69 q 499 -18 603 -18 q 292 50 386 -18 l 269 0 l 117 0 l 117 1111 l 329 1111 l 329 743 q 519 796 417 796 m 474 136 q 615 201 569 136 q 660 394 660 265 q 614 585 660 528 q 496 642 568 642 q 408 630 447 642 q 329 593 368 618 l 329 176 q 474 136 397 136 z "},"c":{"ha":757,"x_min":58,"x_max":729,"o":"m 458 -18 q 235 35 325 -18 q 102 180 146 89 q 58 388 58 271 q 103 592 58 500 q 242 740 147 685 q 479 796 336 796 q 600 781 538 796 q 700 740 663 765 l 654 593 q 479 642 571 642 q 327 576 381 642 q 274 389 274 510 q 322 201 274 268 q 458 135 371 135 q 565 155 517 135 q 668 213 613 175 l 729 78 q 609 9 679 36 q 458 -18 539 -18 z "},"ć":{"ha":757,"x_min":58,"x_max":729,"o":"m 58 0 m 458 -18 q 235 35 325 -18 q 102 180 146 89 q 58 388 58 271 q 103 592 58 500 q 242 740 147 685 q 479 796 336 796 q 600 781 538 796 q 700 740 663 765 l 654 593 q 479 642 571 642 q 327 576 381 642 q 274 389 274 510 q 322 201 274 268 q 458 135 371 135 q 565 155 517 135 q 668 213 613 175 l 729 78 q 609 9 679 36 q 458 -18 539 -18 m 490 1160 l 718 1160 l 519 865 l 356 865 l 490 1160 z "},"č":{"ha":757,"x_min":58,"x_max":729,"o":"m 58 0 m 458 -18 q 235 35 325 -18 q 102 180 146 89 q 58 388 58 271 q 103 592 58 500 q 242 740 147 685 q 479 796 336 796 q 600 781 538 796 q 700 740 663 765 l 654 593 q 479 642 571 642 q 327 576 381 642 q 274 389 274 510 q 322 201 274 268 q 458 135 371 135 q 565 155 517 135 q 668 213 613 175 l 729 78 q 609 9 679 36 q 458 -18 539 -18 m 719 1157 l 561 865 l 351 865 l 194 1157 l 358 1157 l 457 994 l 554 1157 l 719 1157 z "},"ç":{"ha":757,"x_min":58,"x_max":729,"o":"m 490 -65 q 580 -101 544 -69 q 615 -178 615 -132 q 556 -285 615 -237 q 368 -337 497 -333 l 339 -243 q 433 -224 408 -237 q 458 -187 458 -210 q 446 -163 458 -172 q 413 -154 433 -154 q 372 -162 392 -154 l 329 -107 l 381 -12 q 140 119 221 10 q 58 388 58 228 q 103 592 58 500 q 242 740 147 685 q 479 796 336 796 q 600 781 538 796 q 700 740 663 765 l 654 593 q 479 642 571 642 q 327 576 381 642 q 274 389 274 510 q 322 201 274 268 q 458 135 371 135 q 565 155 517 135 q 668 213 613 175 l 729 78 q 636 19 690 44 q 518 -14 582 -6 l 490 -65 z "},"d":{"ha":933,"x_min":58,"x_max":818,"o":"m 818 1111 l 818 0 l 660 0 l 639 60 q 415 -18 540 -18 q 229 28 310 -18 q 103 165 149 74 q 58 385 58 256 q 177 697 58 599 q 493 796 296 796 q 606 783 560 796 l 606 1111 l 818 1111 m 274 385 q 319 193 274 250 q 438 136 365 136 q 527 148 488 136 q 606 186 567 160 l 606 629 q 506 642 561 642 q 274 385 274 642 z "},"ð":{"ha":953,"x_min":58,"x_max":858,"o":"m 629 929 q 799 687 739 824 q 858 408 858 550 q 808 183 858 281 q 669 33 758 86 q 465 -19 579 -19 q 242 33 333 -19 q 104 174 150 86 q 58 365 58 261 q 105 558 58 471 q 241 698 151 646 q 456 750 331 750 q 557 736 511 750 q 457 856 519 797 l 231 758 l 174 885 l 324 949 q 160 1018 251 989 l 279 1124 q 506 1026 403 1090 l 708 1113 l 764 988 l 629 929 m 465 135 q 595 206 547 135 q 643 404 643 278 q 638 493 643 454 q 557 571 604 546 q 456 596 510 596 q 322 532 369 596 q 274 365 274 468 q 323 200 274 265 q 465 135 372 135 z "},"ď":{"ha":933,"x_min":58,"x_max":1126,"o":"m 58 0 m 818 1111 l 818 0 l 660 0 l 639 60 q 415 -18 540 -18 q 229 28 310 -18 q 103 165 149 74 q 58 385 58 256 q 177 697 58 599 q 493 796 296 796 q 606 783 560 796 l 606 1111 l 818 1111 m 274 385 q 319 193 274 250 q 438 136 365 136 q 527 148 488 136 q 606 186 567 160 l 606 629 q 506 642 561 642 q 274 385 274 642 m 885 806 q 938 880 921 840 q 954 971 954 919 q 919 1111 954 1039 l 1108 1111 q 1126 990 1126 1047 q 1074 838 1126 907 q 944 728 1022 769 l 885 806 z "},"đ":{"ha":933,"x_min":58,"x_max":931,"o":"m 931 868 l 818 868 l 818 0 l 660 0 l 639 60 q 415 -18 540 -18 q 229 28 310 -18 q 103 165 149 74 q 58 385 58 256 q 177 697 58 599 q 493 796 296 796 q 606 783 560 796 l 606 868 l 382 868 l 382 1018 l 606 1018 l 606 1111 l 818 1111 l 818 1018 l 931 1018 l 931 868 m 274 385 q 319 193 274 250 q 438 136 365 136 q 527 148 488 136 q 606 186 567 160 l 606 629 q 506 642 561 642 q 274 385 274 642 z "},"e":{"ha":835,"x_min":58,"x_max":776,"o":"m 458 135 q 581 160 525 135 q 700 233 636 185 l 761 99 q 620 10 692 39 q 458 -18 549 -18 q 235 35 325 -18 q 102 180 146 89 q 58 388 58 271 q 103 599 58 507 q 237 744 147 692 q 458 796 326 796 q 692 713 610 796 q 776 478 775 629 q 760 365 776 422 l 268 365 q 318 193 272 251 q 458 135 364 135 m 446 653 q 279 504 314 653 l 569 504 q 571 524 571 511 q 535 619 569 586 q 446 653 501 653 z "},"é":{"ha":835,"x_min":58,"x_max":776,"o":"m 58 0 m 458 135 q 581 160 525 135 q 700 233 636 185 l 761 99 q 620 10 692 39 q 458 -18 549 -18 q 235 35 325 -18 q 102 180 146 89 q 58 388 58 271 q 103 599 58 507 q 237 744 147 692 q 458 796 326 796 q 692 713 610 796 q 776 478 775 629 q 760 365 776 422 l 268 365 q 318 193 272 251 q 458 135 364 135 m 446 653 q 279 504 314 653 l 569 504 q 571 524 571 511 q 535 619 569 586 q 446 653 501 653 m 475 1160 l 703 1160 l 504 865 l 340 865 l 475 1160 z "},"ě":{"ha":835,"x_min":58,"x_max":776,"o":"m 58 0 m 458 135 q 581 160 525 135 q 700 233 636 185 l 761 99 q 620 10 692 39 q 458 -18 549 -18 q 235 35 325 -18 q 102 180 146 89 q 58 388 58 271 q 103 599 58 507 q 237 744 147 692 q 458 796 326 796 q 692 713 610 796 q 776 478 775 629 q 760 365 776 422 l 268 365 q 318 193 272 251 q 458 135 364 135 m 446 653 q 279 504 314 653 l 569 504 q 571 524 571 511 q 535 619 569 586 q 446 653 501 653 m 704 1157 l 546 865 l 336 865 l 179 1157 l 343 1157 l 442 994 l 539 1157 l 704 1157 z "},"ê":{"ha":835,"x_min":58,"x_max":776,"o":"m 58 0 m 458 135 q 581 160 525 135 q 700 233 636 185 l 761 99 q 620 10 692 39 q 458 -18 549 -18 q 235 35 325 -18 q 102 180 146 89 q 58 388 58 271 q 103 599 58 507 q 237 744 147 692 q 458 796 326 796 q 692 713 610 796 q 776 478 775 629 q 760 365 776 422 l 268 365 q 318 193 272 251 q 458 135 364 135 m 446 653 q 279 504 314 653 l 569 504 q 571 524 571 511 q 535 619 569 586 q 446 653 501 653 m 539 865 l 442 1028 l 343 865 l 179 865 l 336 1157 l 546 1157 l 704 865 l 539 865 z "},"ë":{"ha":835,"x_min":58,"x_max":776,"o":"m 58 0 m 458 135 q 581 160 525 135 q 700 233 636 185 l 761 99 q 620 10 692 39 q 458 -18 549 -18 q 235 35 325 -18 q 102 180 146 89 q 58 388 58 271 q 103 599 58 507 q 237 744 147 692 q 458 796 326 796 q 692 713 610 796 q 776 478 775 629 q 760 365 776 422 l 268 365 q 318 193 272 251 q 458 135 364 135 m 446 653 q 279 504 314 653 l 569 504 q 571 524 571 511 q 535 619 569 586 q 446 653 501 653 m 272 913 q 192 947 226 913 q 158 1026 158 981 q 192 1106 158 1072 q 272 1140 226 1140 q 352 1106 318 1140 q 386 1026 386 1072 q 352 947 386 981 q 272 913 318 913 m 611 913 q 531 947 565 913 q 497 1026 497 981 q 531 1106 497 1072 q 611 1140 565 1140 q 691 1106 657 1140 q 725 1026 725 1072 q 691 947 725 981 q 611 913 657 913 z "},"ė":{"ha":835,"x_min":58,"x_max":776,"o":"m 58 0 m 458 135 q 581 160 525 135 q 700 233 636 185 l 761 99 q 620 10 692 39 q 458 -18 549 -18 q 235 35 325 -18 q 102 180 146 89 q 58 388 58 271 q 103 599 58 507 q 237 744 147 692 q 458 796 326 796 q 692 713 610 796 q 776 478 775 629 q 760 365 776 422 l 268 365 q 318 193 272 251 q 458 135 364 135 m 446 653 q 279 504 314 653 l 569 504 q 571 524 571 511 q 535 619 569 586 q 446 653 501 653 m 442 913 q 362 947 396 913 q 328 1026 328 981 q 362 1106 328 1072 q 442 1140 396 1140 q 522 1106 488 1140 q 556 1026 556 1072 q 522 947 556 981 q 442 913 488 913 z "},"è":{"ha":835,"x_min":58,"x_max":776,"o":"m 58 0 m 458 135 q 581 160 525 135 q 700 233 636 185 l 761 99 q 620 10 692 39 q 458 -18 549 -18 q 235 35 325 -18 q 102 180 146 89 q 58 388 58 271 q 103 599 58 507 q 237 744 147 692 q 458 796 326 796 q 692 713 610 796 q 776 478 775 629 q 760 365 776 422 l 268 365 q 318 193 272 251 q 458 135 364 135 m 446 653 q 279 504 314 653 l 569 504 q 571 524 571 511 q 535 619 569 586 q 446 653 501 653 m 178 1160 l 406 1160 l 540 865 l 376 865 l 178 1160 z "},"ē":{"ha":835,"x_min":58,"x_max":776,"o":"m 58 0 m 458 135 q 581 160 525 135 q 700 233 636 185 l 761 99 q 620 10 692 39 q 458 -18 549 -18 q 235 35 325 -18 q 102 180 146 89 q 58 388 58 271 q 103 599 58 507 q 237 744 147 692 q 458 796 326 796 q 692 713 610 796 q 776 478 775 629 q 760 365 776 422 l 268 365 q 318 193 272 251 q 458 135 364 135 m 446 653 q 279 504 314 653 l 569 504 q 571 524 571 511 q 535 619 569 586 q 446 653 501 653 m 179 1132 l 706 1132 l 706 982 l 179 982 l 179 1132 z "},"ę":{"ha":835,"x_min":58,"x_max":776,"o":"m 644 21 q 499 -172 499 -96 q 513 -208 499 -196 q 550 -221 526 -221 q 644 -176 593 -221 l 701 -292 q 620 -349 674 -324 q 510 -374 567 -374 q 379 -331 428 -374 q 331 -215 331 -289 q 356 -115 331 -167 q 429 -18 382 -62 q 224 42 307 -12 q 99 187 140 97 q 58 388 58 276 q 103 599 58 507 q 237 744 147 692 q 458 796 326 796 q 692 713 610 796 q 776 478 775 629 q 760 365 776 422 l 268 365 q 318 193 272 251 q 458 135 364 135 q 581 160 525 135 q 700 233 636 185 l 761 99 q 644 21 704 50 m 446 653 q 279 504 314 653 l 569 504 q 571 524 571 511 q 535 619 569 586 q 446 653 501 653 z "},"f":{"ha":601,"x_min":36,"x_max":592,"o":"m 367 778 l 589 778 l 589 625 l 367 625 l 367 0 l 154 0 l 154 625 l 36 625 l 36 715 l 154 760 l 154 815 q 228 1041 154 963 q 456 1119 303 1119 q 592 1108 510 1119 l 576 958 q 490 965 525 965 q 367 813 367 965 l 367 778 z "},"g":{"ha":850,"x_min":39,"x_max":843,"o":"m 843 625 l 701 643 q 725 538 725 592 q 690 408 725 468 q 582 313 654 349 q 407 276 510 276 q 329 282 376 276 q 288 213 288 244 q 303 176 288 188 q 360 165 319 165 l 575 165 q 764 114 696 165 q 832 -26 832 63 q 772 -186 832 -114 q 608 -301 713 -258 q 375 -343 503 -343 q 119 -282 199 -343 q 39 -135 39 -221 q 69 -41 39 -83 q 156 44 99 1 q 98 97 117 65 q 79 163 79 128 q 108 245 79 204 q 201 331 138 286 q 119 420 147 367 q 90 535 90 474 q 126 665 90 606 q 233 760 161 724 q 407 796 304 796 q 536 778 475 796 l 843 778 l 843 625 m 407 419 q 490 450 458 419 q 521 536 521 481 q 490 622 521 592 q 407 653 460 653 q 324 622 354 653 q 293 536 293 592 q 324 450 293 481 q 407 419 356 419 m 629 -58 q 526 10 629 10 l 326 10 l 308 10 q 242 -118 242 -57 q 375 -189 242 -189 q 504 -169 446 -189 q 596 -119 563 -150 q 629 -58 629 -89 z "},"ğ":{"ha":850,"x_min":39,"x_max":843,"o":"m 39 0 m 843 625 l 701 643 q 725 538 725 592 q 690 408 725 468 q 582 313 654 349 q 407 276 510 276 q 329 282 376 276 q 288 213 288 244 q 303 176 288 188 q 360 165 319 165 l 575 165 q 764 114 696 165 q 832 -26 832 63 q 772 -186 832 -114 q 608 -301 713 -258 q 375 -343 503 -343 q 119 -282 199 -343 q 39 -135 39 -221 q 69 -41 39 -83 q 156 44 99 1 q 98 97 117 65 q 79 163 79 128 q 108 245 79 204 q 201 331 138 286 q 119 420 147 367 q 90 535 90 474 q 126 665 90 606 q 233 760 161 724 q 407 796 304 796 q 536 778 475 796 l 843 778 l 843 625 m 407 419 q 490 450 458 419 q 521 536 521 481 q 490 622 521 592 q 407 653 460 653 q 324 622 354 653 q 293 536 293 592 q 324 450 293 481 q 407 419 356 419 m 629 -58 q 526 10 629 10 l 326 10 l 308 10 q 242 -118 242 -57 q 375 -189 242 -189 q 504 -169 446 -189 q 596 -119 563 -150 q 629 -58 629 -89 m 425 869 q 244 940 308 869 q 176 1150 179 1011 l 319 1153 q 350 1046 322 1082 q 425 1010 378 1010 q 501 1046 474 1010 q 532 1154 529 1082 l 675 1150 q 607 940 672 1011 q 425 869 542 869 z "},"ģ":{"ha":850,"x_min":39,"x_max":843,"o":"m 39 0 m 843 625 l 701 643 q 725 538 725 592 q 690 408 725 468 q 582 313 654 349 q 407 276 510 276 q 329 282 376 276 q 288 213 288 244 q 303 176 288 188 q 360 165 319 165 l 575 165 q 764 114 696 165 q 832 -26 832 63 q 772 -186 832 -114 q 608 -301 713 -258 q 375 -343 503 -343 q 119 -282 199 -343 q 39 -135 39 -221 q 69 -41 39 -83 q 156 44 99 1 q 98 97 117 65 q 79 163 79 128 q 108 245 79 204 q 201 331 138 286 q 119 420 147 367 q 90 535 90 474 q 126 665 90 606 q 233 760 161 724 q 407 796 304 796 q 536 778 475 796 l 843 778 l 843 625 m 407 419 q 490 450 458 419 q 521 536 521 481 q 490 622 521 592 q 407 653 460 653 q 324 622 354 653 q 293 536 293 592 q 324 450 293 481 q 407 419 356 419 m 629 -58 q 526 10 629 10 l 326 10 l 308 10 q 242 -118 242 -57 q 375 -189 242 -189 q 504 -169 446 -189 q 596 -119 563 -150 q 629 -58 629 -89 m 482 869 q 342 919 386 879 q 299 1014 299 958 q 360 1131 299 1085 q 528 1183 421 1178 l 560 1088 q 478 1066 501 1082 q 456 1022 456 1050 q 525 972 456 976 l 482 869 z "},"h":{"ha":926,"x_min":117,"x_max":818,"o":"m 560 796 q 763 719 707 796 q 818 494 818 642 l 818 0 l 606 0 l 606 469 q 581 601 606 564 q 492 639 557 639 q 329 581 413 639 l 329 0 l 117 0 l 117 1111 l 329 1111 l 329 728 q 560 796 447 796 z "},"ħ":{"ha":926,"x_min":3,"x_max":818,"o":"m 560 796 q 763 719 707 796 q 818 494 818 642 l 818 0 l 606 0 l 606 469 q 581 601 606 564 q 492 639 557 639 q 329 581 413 639 l 329 0 l 117 0 l 117 868 l 3 868 l 3 1018 l 117 1018 l 117 1111 l 329 1111 l 329 1018 l 551 1018 l 551 868 l 329 868 l 329 728 q 560 796 447 796 z "},"i":{"ha":449,"x_min":100,"x_max":349,"o":"m 224 914 q 136 950 172 914 q 100 1038 100 986 q 136 1125 100 1089 q 224 1161 172 1161 q 312 1125 275 1161 q 349 1038 349 1089 q 312 950 349 986 q 224 914 275 914 m 118 778 l 331 778 l 331 0 l 118 0 l 118 778 z "},"ı":{"ha":449,"x_min":118,"x_max":331,"o":"m 118 778 l 331 778 l 331 0 l 118 0 l 118 778 z "},"í":{"ha":449,"x_min":118,"x_max":486,"o":"m 118 0 m 118 778 l 331 778 l 331 0 l 118 0 l 118 778 m 258 1160 l 486 1160 l 288 865 l 124 865 l 258 1160 z "},"î":{"ha":449,"x_min":-37,"x_max":488,"o":"m 0 0 m 118 778 l 331 778 l 331 0 l 118 0 l 118 778 m 322 865 l 225 1028 l 126 865 l -37 865 l 119 1157 l 329 1157 l 488 865 l 322 865 z "},"ï":{"ha":449,"x_min":-58,"x_max":508,"o":"m 0 0 m 118 778 l 331 778 l 331 0 l 118 0 l 118 778 m 56 913 q -24 947 10 913 q -58 1026 -58 981 q -24 1106 -58 1072 q 56 1140 10 1140 q 135 1106 101 1140 q 169 1026 169 1072 q 135 947 169 981 q 56 913 101 913 m 394 913 q 315 947 349 913 q 281 1026 281 981 q 315 1106 281 1072 q 394 1140 349 1140 q 474 1106 440 1140 q 508 1026 508 1072 q 474 947 508 981 q 394 913 440 913 z "},"ì":{"ha":449,"x_min":-39,"x_max":331,"o":"m 0 0 m 118 778 l 331 778 l 331 0 l 118 0 l 118 778 m -39 1160 l 189 1160 l 324 865 l 160 865 l -39 1160 z "},"ĳ":{"ha":893,"x_min":100,"x_max":796,"o":"m 100 0 m 224 914 q 136 950 172 914 q 100 1038 100 986 q 136 1125 100 1089 q 224 1161 172 1161 q 312 1125 275 1161 q 349 1038 349 1089 q 312 950 349 986 q 224 914 275 914 m 118 778 l 331 778 l 331 0 l 118 0 l 118 778 m 671 914 q 583 950 619 914 q 547 1038 547 986 q 583 1125 547 1089 q 671 1161 619 1161 q 759 1125 722 1161 q 796 1038 796 1089 q 759 950 796 986 q 671 914 722 914 m 474 -333 q 339 -322 419 -333 l 354 -172 q 440 -179 406 -179 q 564 -26 564 -179 l 564 778 l 776 778 l 776 -29 q 701 -255 776 -176 q 474 -333 626 -333 z "},"ī":{"ha":449,"x_min":-37,"x_max":489,"o":"m 0 0 m 118 778 l 331 778 l 331 0 l 118 0 l 118 778 m -37 1132 l 489 1132 l 489 982 l -37 982 l -37 1132 z "},"į":{"ha":449,"x_min":-40,"x_max":349,"o":"m 224 914 q 136 950 172 914 q 100 1038 100 986 q 136 1125 100 1089 q 224 1161 172 1161 q 312 1125 275 1161 q 349 1038 349 1089 q 312 950 349 986 q 224 914 275 914 m 118 778 l 331 778 l 331 0 l 249 0 q 128 -172 128 -104 q 142 -208 128 -196 q 179 -221 156 -221 q 274 -176 222 -221 l 331 -292 q 249 -349 303 -324 q 139 -374 196 -374 q 8 -331 57 -374 q -40 -215 -40 -289 q -1 -92 -40 -156 q 106 21 38 -28 l 118 21 l 118 778 z "},"ĩ":{"ha":449,"x_min":-42,"x_max":492,"o":"m 0 0 m 118 778 l 331 778 l 331 0 l 118 0 l 118 778 m -42 915 q 10 1086 -35 1024 q 124 1149 54 1149 q 178 1138 153 1149 q 233 1107 203 1126 q 280 1081 263 1089 q 315 1074 297 1074 q 351 1094 336 1074 q 375 1160 365 1114 l 492 1154 q 439 987 485 1053 q 326 921 393 921 q 271 931 296 921 q 208 964 246 942 q 166 988 182 981 q 135 996 150 996 q 99 976 114 996 q 75 910 85 956 l -42 915 z "},"j":{"ha":444,"x_min":-110,"x_max":347,"o":"m 222 914 q 135 950 171 914 q 99 1038 99 986 q 135 1125 99 1089 q 222 1161 171 1161 q 310 1125 274 1161 q 347 1038 347 1089 q 310 950 347 986 q 222 914 274 914 m 25 -333 q -110 -322 -29 -333 l -94 -172 q -8 -179 -43 -179 q 115 -26 115 -179 l 115 778 l 328 778 l 328 -29 q 253 -255 328 -176 q 25 -333 178 -333 z "},"ȷ":{"ha":444,"x_min":-110,"x_max":328,"o":"m 25 -333 q -110 -322 -29 -333 l -94 -172 q -8 -179 -43 -179 q 115 -26 115 -179 l 115 778 l 328 778 l 328 -29 q 253 -255 328 -176 q 25 -333 178 -333 z "},"ĵ":{"ha":444,"x_min":-110,"x_max":485,"o":"m 0 0 m 25 -333 q -110 -322 -29 -333 l -94 -172 q -8 -179 -43 -179 q 115 -26 115 -179 l 115 778 l 328 778 l 328 -29 q 253 -255 328 -176 q 25 -333 178 -333 m 319 865 l 222 1028 l 124 865 l -40 865 l 117 1157 l 326 1157 l 485 865 l 319 865 z "},"k":{"ha":863,"x_min":117,"x_max":849,"o":"m 615 0 l 329 404 l 329 0 l 117 0 l 117 1111 l 329 1111 l 329 443 l 579 778 l 797 778 l 525 424 l 849 0 l 615 0 z "},"ķ":{"ha":863,"x_min":117,"x_max":849,"o":"m 117 0 m 615 0 l 329 404 l 329 0 l 117 0 l 117 1111 l 329 1111 l 329 443 l 579 778 l 797 778 l 525 424 l 849 0 l 615 0 m 343 -265 q 424 -244 401 -261 q 447 -200 447 -228 q 378 -150 447 -154 l 421 -47 q 560 -97 517 -57 q 604 -192 604 -136 q 544 -309 604 -262 q 375 -361 483 -356 l 343 -265 z "},"ĸ":{"ha":885,"x_min":117,"x_max":849,"o":"m 615 0 l 329 404 l 329 0 l 117 0 l 117 778 l 329 778 l 329 443 l 579 778 l 797 778 l 525 424 l 849 0 l 615 0 z "},"l":{"ha":444,"x_min":117,"x_max":329,"o":"m 117 1111 l 329 1111 l 329 0 l 117 0 l 117 1111 z "},"ĺ":{"ha":444,"x_min":117,"x_max":483,"o":"m 117 0 m 117 1111 l 329 1111 l 329 0 l 117 0 l 117 1111 m 256 1433 l 483 1433 l 285 1139 l 121 1139 l 256 1433 z "},"ľ":{"ha":444,"x_min":117,"x_max":638,"o":"m 117 0 m 117 1111 l 329 1111 l 329 0 l 117 0 l 117 1111 m 396 806 q 449 880 432 840 q 465 971 465 919 q 431 1111 465 1039 l 619 1111 q 638 990 638 1047 q 585 838 638 907 q 456 728 533 769 l 396 806 z "},"ļ":{"ha":444,"x_min":94,"x_max":356,"o":"m 94 0 m 117 1111 l 329 1111 l 329 0 l 117 0 l 117 1111 m 94 -265 q 176 -244 153 -261 q 199 -200 199 -228 q 129 -150 199 -154 l 172 -47 q 312 -97 268 -57 q 356 -192 356 -136 q 295 -309 356 -262 q 126 -361 235 -356 l 94 -265 z "},"ŀ":{"ha":444,"x_min":117,"x_max":575,"o":"m 444 497 q 537 459 499 497 q 575 367 575 421 q 537 274 575 313 q 444 236 499 236 q 376 255 407 236 q 329 306 346 274 l 329 0 l 117 0 l 117 1111 l 329 1111 l 329 428 q 376 478 346 460 q 444 497 407 497 z "},"ł":{"ha":444,"x_min":-49,"x_max":493,"o":"m 329 568 l 329 0 l 117 0 l 117 415 l 40 361 l -49 482 l 117 600 l 117 1111 l 329 1111 l 329 751 l 404 806 l 493 686 l 329 568 z "},"m":{"ha":1407,"x_min":117,"x_max":1297,"o":"m 1042 796 q 1242 718 1186 796 q 1297 494 1297 640 l 1297 0 l 1085 0 l 1085 469 q 1061 601 1085 564 q 974 639 1038 639 q 810 578 897 639 l 807 583 q 813 494 813 546 l 813 0 l 600 0 l 600 469 q 576 601 600 564 q 489 639 553 639 q 329 581 413 639 l 329 0 l 117 0 l 117 778 l 275 778 l 299 710 q 557 796 433 796 q 769 701 710 796 q 1042 796 910 796 z "},"n":{"ha":926,"x_min":117,"x_max":817,"o":"m 558 796 q 761 719 706 796 q 817 494 817 642 l 817 0 l 604 0 l 604 469 q 580 601 604 564 q 490 639 556 639 q 329 581 413 639 l 329 0 l 117 0 l 117 778 l 275 778 l 299 710 q 558 796 433 796 z "},"ń":{"ha":926,"x_min":117,"x_max":817,"o":"m 117 0 m 558 796 q 761 719 706 796 q 817 494 817 642 l 817 0 l 604 0 l 604 469 q 580 601 604 564 q 490 639 556 639 q 329 581 413 639 l 329 0 l 117 0 l 117 778 l 275 778 l 299 710 q 558 796 433 796 m 501 1160 l 729 1160 l 531 865 l 367 865 l 501 1160 z "},"ň":{"ha":926,"x_min":117,"x_max":817,"o":"m 117 0 m 558 796 q 761 719 706 796 q 817 494 817 642 l 817 0 l 604 0 l 604 469 q 580 601 604 564 q 490 639 556 639 q 329 581 413 639 l 329 0 l 117 0 l 117 778 l 275 778 l 299 710 q 558 796 433 796 m 731 1157 l 572 865 l 363 865 l 206 1157 l 369 1157 l 468 994 l 565 1157 l 731 1157 z "},"ņ":{"ha":926,"x_min":117,"x_max":817,"o":"m 117 0 m 558 796 q 761 719 706 796 q 817 494 817 642 l 817 0 l 604 0 l 604 469 q 580 601 604 564 q 490 639 556 639 q 329 581 413 639 l 329 0 l 117 0 l 117 778 l 275 778 l 299 710 q 558 796 433 796 m 340 -265 q 422 -244 399 -261 q 444 -200 444 -228 q 375 -150 444 -154 l 418 -47 q 558 -97 514 -57 q 601 -192 601 -136 q 541 -309 601 -262 q 372 -361 481 -356 l 340 -265 z "},"ñ":{"ha":926,"x_min":117,"x_max":817,"o":"m 117 0 m 558 796 q 761 719 706 796 q 817 494 817 642 l 817 0 l 604 0 l 604 469 q 580 601 604 564 q 490 639 556 639 q 329 581 413 639 l 329 0 l 117 0 l 117 778 l 275 778 l 299 710 q 558 796 433 796 m 201 915 q 253 1086 208 1024 q 367 1149 297 1149 q 421 1138 396 1149 q 476 1107 446 1126 q 523 1081 506 1089 q 558 1074 540 1074 q 594 1094 579 1074 q 618 1160 608 1114 l 735 1154 q 682 987 728 1053 q 569 921 636 921 q 514 931 539 921 q 451 964 489 942 q 409 988 425 981 q 378 996 393 996 q 342 976 357 996 q 318 910 328 956 l 201 915 z "},"o":{"ha":917,"x_min":58,"x_max":860,"o":"m 458 -18 q 238 35 328 -18 q 103 179 147 88 q 58 388 58 271 q 103 599 58 507 q 238 744 147 692 q 458 796 328 796 q 679 740 589 796 q 815 592 769 685 q 860 390 860 500 q 815 188 860 281 q 679 38 769 94 q 458 -18 589 -18 m 460 135 q 644 389 644 135 q 460 642 644 642 q 274 389 274 642 q 460 135 274 135 z "},"ó":{"ha":917,"x_min":58,"x_max":860,"o":"m 58 0 m 458 -18 q 238 35 328 -18 q 103 179 147 88 q 58 388 58 271 q 103 599 58 507 q 238 744 147 692 q 458 796 328 796 q 679 740 589 796 q 815 592 769 685 q 860 390 860 500 q 815 188 860 281 q 679 38 769 94 q 458 -18 589 -18 m 460 135 q 644 389 644 135 q 460 642 644 642 q 274 389 274 642 q 460 135 274 135 m 492 1160 l 719 1160 l 521 865 l 357 865 l 492 1160 z "},"ô":{"ha":917,"x_min":58,"x_max":860,"o":"m 58 0 m 458 -18 q 238 35 328 -18 q 103 179 147 88 q 58 388 58 271 q 103 599 58 507 q 238 744 147 692 q 458 796 328 796 q 679 740 589 796 q 815 592 769 685 q 860 390 860 500 q 815 188 860 281 q 679 38 769 94 q 458 -18 589 -18 m 460 135 q 644 389 644 135 q 460 642 644 642 q 274 389 274 642 q 460 135 274 135 m 556 865 l 458 1028 l 360 865 l 196 865 l 353 1157 l 563 1157 l 721 865 l 556 865 z "},"ö":{"ha":917,"x_min":58,"x_max":860,"o":"m 58 0 m 458 -18 q 238 35 328 -18 q 103 179 147 88 q 58 388 58 271 q 103 599 58 507 q 238 744 147 692 q 458 796 328 796 q 679 740 589 796 q 815 592 769 685 q 860 390 860 500 q 815 188 860 281 q 679 38 769 94 q 458 -18 589 -18 m 460 135 q 644 389 644 135 q 460 642 644 642 q 274 389 274 642 q 460 135 274 135 m 289 913 q 209 947 243 913 q 175 1026 175 981 q 209 1106 175 1072 q 289 1140 243 1140 q 369 1106 335 1140 q 403 1026 403 1072 q 369 947 403 981 q 289 913 335 913 m 628 913 q 548 947 582 913 q 514 1026 514 981 q 548 1106 514 1072 q 628 1140 582 1140 q 708 1106 674 1140 q 742 1026 742 1072 q 708 947 742 981 q 628 913 674 913 z "},"ò":{"ha":917,"x_min":58,"x_max":860,"o":"m 58 0 m 458 -18 q 238 35 328 -18 q 103 179 147 88 q 58 388 58 271 q 103 599 58 507 q 238 744 147 692 q 458 796 328 796 q 679 740 589 796 q 815 592 769 685 q 860 390 860 500 q 815 188 860 281 q 679 38 769 94 q 458 -18 589 -18 m 460 135 q 644 389 644 135 q 460 642 644 642 q 274 389 274 642 q 460 135 274 135 m 194 1160 l 422 1160 l 557 865 l 393 865 l 194 1160 z "},"ő":{"ha":917,"x_min":58,"x_max":860,"o":"m 58 0 m 458 -18 q 238 35 328 -18 q 103 179 147 88 q 58 388 58 271 q 103 599 58 507 q 238 744 147 692 q 458 796 328 796 q 679 740 589 796 q 815 592 769 685 q 860 390 860 500 q 815 188 860 281 q 679 38 769 94 q 458 -18 589 -18 m 460 135 q 644 389 644 135 q 460 642 644 642 q 274 389 274 642 q 460 135 274 135 m 381 1160 l 574 1160 l 375 865 l 246 865 l 381 1160 m 658 1160 l 851 1160 l 653 865 l 524 865 l 658 1160 z "},"ō":{"ha":917,"x_min":58,"x_max":860,"o":"m 58 0 m 458 -18 q 238 35 328 -18 q 103 179 147 88 q 58 388 58 271 q 103 599 58 507 q 238 744 147 692 q 458 796 328 796 q 679 740 589 796 q 815 592 769 685 q 860 390 860 500 q 815 188 860 281 q 679 38 769 94 q 458 -18 589 -18 m 460 135 q 644 389 644 135 q 460 642 644 642 q 274 389 274 642 q 460 135 274 135 m 196 1132 l 722 1132 l 722 982 l 196 982 l 196 1132 z "},"ø":{"ha":917,"x_min":58,"x_max":860,"o":"m 738 696 q 828 560 797 640 q 860 390 860 481 q 815 188 860 281 q 679 38 769 94 q 458 -18 589 -18 q 258 24 346 -18 l 189 -75 l 99 -17 l 171 85 q 87 217 115 139 q 58 388 58 294 q 103 599 58 507 q 238 744 147 692 q 458 796 328 796 q 650 756 567 796 l 717 850 l 806 792 l 738 696 m 274 389 q 292 254 274 308 l 553 619 q 460 642 517 642 q 274 389 274 642 m 460 135 q 644 389 644 135 q 622 535 644 478 l 357 163 q 460 135 400 135 z "},"õ":{"ha":917,"x_min":58,"x_max":860,"o":"m 58 0 m 458 -18 q 238 35 328 -18 q 103 179 147 88 q 58 388 58 271 q 103 599 58 507 q 238 744 147 692 q 458 796 328 796 q 679 740 589 796 q 815 592 769 685 q 860 390 860 500 q 815 188 860 281 q 679 38 769 94 q 458 -18 589 -18 m 460 135 q 644 389 644 135 q 460 642 644 642 q 274 389 274 642 q 460 135 274 135 m 192 915 q 243 1086 199 1024 q 357 1149 288 1149 q 411 1138 386 1149 q 467 1107 436 1126 q 513 1081 496 1089 q 549 1074 531 1074 q 584 1094 569 1074 q 608 1160 599 1114 l 725 1154 q 672 987 718 1053 q 560 921 626 921 q 504 931 529 921 q 442 964 479 942 q 399 988 415 981 q 368 996 383 996 q 333 976 347 996 q 308 910 318 956 l 192 915 z "},"œ":{"ha":1421,"x_min":58,"x_max":1363,"o":"m 1044 135 q 1165 160 1110 135 q 1286 233 1221 185 l 1347 99 q 1206 10 1276 39 q 1044 -18 1135 -18 q 746 96 851 -18 q 458 -18 636 -18 q 238 35 328 -18 q 103 179 147 88 q 58 388 58 271 q 104 599 58 507 q 240 744 150 692 q 458 796 329 796 q 746 683 636 796 q 1044 796 850 796 q 1278 713 1196 796 q 1363 478 1361 629 q 1346 365 1363 422 l 854 365 q 904 193 858 251 q 1044 135 950 135 m 1032 653 q 865 504 900 653 l 1156 504 q 1157 524 1157 511 q 1122 619 1156 586 q 1032 653 1088 653 m 460 135 q 644 389 644 135 q 460 642 644 642 q 274 389 274 642 q 460 135 274 135 z "},"p":{"ha":933,"x_min":117,"x_max":875,"o":"m 519 796 q 704 748 624 796 q 830 608 785 700 q 875 388 875 515 q 756 81 875 179 q 442 -18 638 -18 q 329 -6 375 -18 l 329 -324 l 117 -324 l 117 778 l 275 778 l 296 719 q 519 796 396 796 m 428 135 q 661 393 661 135 q 615 585 661 528 q 496 642 568 642 q 407 630 446 642 q 329 592 368 618 l 329 147 q 428 135 382 135 z "},"þ":{"ha":933,"x_min":117,"x_max":875,"o":"m 519 796 q 704 750 624 796 q 830 613 785 704 q 875 393 875 522 q 824 162 875 254 q 688 26 772 69 q 499 -18 603 -18 q 329 26 411 -18 l 329 -324 l 117 -324 l 117 1111 l 329 1111 l 329 742 q 519 796 415 796 m 474 135 q 615 200 569 135 q 660 393 660 265 q 614 585 660 528 q 496 642 568 642 q 407 630 446 642 q 329 592 368 618 l 329 176 q 474 135 396 135 z "},"q":{"ha":933,"x_min":58,"x_max":818,"o":"m 818 778 l 818 -329 l 606 -329 l 606 35 q 415 -18 518 -18 q 229 28 310 -18 q 103 164 149 74 q 58 383 58 254 q 110 616 58 524 q 247 752 161 708 q 436 796 332 796 q 643 726 547 796 l 664 778 l 818 778 m 438 136 q 527 148 488 136 q 606 186 567 160 l 606 600 q 460 642 532 642 q 319 577 364 642 q 274 383 274 513 q 319 192 274 249 q 438 136 365 136 z "},"r":{"ha":631,"x_min":117,"x_max":590,"o":"m 590 592 q 460 581 519 592 q 329 536 401 569 l 329 0 l 117 0 l 117 778 l 275 778 l 308 683 q 448 769 381 744 q 590 794 515 794 l 590 592 z "},"ŕ":{"ha":631,"x_min":117,"x_max":606,"o":"m 117 0 m 590 592 q 460 581 519 592 q 329 536 401 569 l 329 0 l 117 0 l 117 778 l 275 778 l 308 683 q 448 769 381 744 q 590 794 515 794 l 590 592 m 378 1160 l 606 1160 l 407 865 l 243 865 l 378 1160 z "},"ř":{"ha":631,"x_min":82,"x_max":607,"o":"m 82 0 m 590 592 q 460 581 519 592 q 329 536 401 569 l 329 0 l 117 0 l 117 778 l 275 778 l 308 683 q 448 769 381 744 q 590 794 515 794 l 590 592 m 607 1157 l 449 865 l 239 865 l 82 1157 l 246 1157 l 344 994 l 442 1157 l 607 1157 z "},"ŗ":{"ha":631,"x_min":93,"x_max":590,"o":"m 93 0 m 590 592 q 460 581 519 592 q 329 536 401 569 l 329 0 l 117 0 l 117 778 l 275 778 l 308 683 q 448 769 381 744 q 590 794 515 794 l 590 592 m 93 -265 q 174 -244 151 -261 q 197 -200 197 -228 q 128 -150 197 -154 l 171 -47 q 310 -97 267 -57 q 354 -192 354 -136 q 294 -309 354 -262 q 125 -361 233 -356 l 93 -265 z "},"s":{"ha":742,"x_min":58,"x_max":685,"o":"m 335 -18 q 185 -3 257 -18 q 58 38 113 13 l 101 185 q 332 135 225 135 q 435 155 396 135 q 475 217 475 175 q 438 274 475 251 q 322 324 401 296 q 196 376 244 351 q 112 442 147 400 q 76 547 76 485 q 165 733 76 669 q 407 796 254 796 q 536 783 471 796 q 651 746 601 769 l 607 597 q 413 642 507 642 q 319 624 353 642 q 286 572 286 607 q 321 517 286 538 q 431 472 356 497 q 560 422 508 447 q 648 350 611 397 q 685 231 685 303 q 594 48 685 114 q 335 -18 504 -18 z "},"ś":{"ha":742,"x_min":58,"x_max":685,"o":"m 58 0 m 335 -18 q 185 -3 257 -18 q 58 38 113 13 l 101 185 q 332 135 225 135 q 435 155 396 135 q 475 217 475 175 q 438 274 475 251 q 322 324 401 296 q 196 376 244 351 q 112 442 147 400 q 76 547 76 485 q 165 733 76 669 q 407 796 254 796 q 536 783 471 796 q 651 746 601 769 l 607 597 q 413 642 507 642 q 319 624 353 642 q 286 572 286 607 q 321 517 286 538 q 431 472 356 497 q 560 422 508 447 q 648 350 611 397 q 685 231 685 303 q 594 48 685 114 q 335 -18 504 -18 m 421 1160 l 649 1160 l 450 865 l 286 865 l 421 1160 z "},"š":{"ha":742,"x_min":58,"x_max":685,"o":"m 58 0 m 335 -18 q 185 -3 257 -18 q 58 38 113 13 l 101 185 q 332 135 225 135 q 435 155 396 135 q 475 217 475 175 q 438 274 475 251 q 322 324 401 296 q 196 376 244 351 q 112 442 147 400 q 76 547 76 485 q 165 733 76 669 q 407 796 254 796 q 536 783 471 796 q 651 746 601 769 l 607 597 q 413 642 507 642 q 319 624 353 642 q 286 572 286 607 q 321 517 286 538 q 431 472 356 497 q 560 422 508 447 q 648 350 611 397 q 685 231 685 303 q 594 48 685 114 q 335 -18 504 -18 m 650 1157 l 492 865 l 282 865 l 125 1157 l 289 1157 l 388 994 l 485 1157 l 650 1157 z "},"ş":{"ha":742,"x_min":58,"x_max":685,"o":"m 685 231 q 613 63 685 126 q 404 -15 542 -1 l 376 -65 q 466 -101 431 -69 q 501 -178 501 -132 q 442 -285 501 -237 q 254 -337 383 -333 l 225 -243 q 319 -224 294 -237 q 344 -187 344 -210 q 332 -163 344 -172 q 299 -154 319 -154 q 258 -162 278 -154 l 215 -107 l 265 -15 q 58 38 146 -3 l 101 185 q 332 135 225 135 q 435 155 396 135 q 475 217 475 175 q 438 274 475 251 q 322 324 401 296 q 196 376 244 351 q 112 442 147 400 q 76 547 76 485 q 165 733 76 669 q 407 796 254 796 q 536 783 471 796 q 651 746 601 769 l 607 597 q 413 642 507 642 q 319 624 353 642 q 286 572 286 607 q 321 517 286 538 q 431 472 356 497 q 560 422 508 447 q 648 350 611 397 q 685 231 685 303 z "},"ș":{"ha":742,"x_min":58,"x_max":685,"o":"m 58 0 m 335 -18 q 185 -3 257 -18 q 58 38 113 13 l 101 185 q 332 135 225 135 q 435 155 396 135 q 475 217 475 175 q 438 274 475 251 q 322 324 401 296 q 196 376 244 351 q 112 442 147 400 q 76 547 76 485 q 165 733 76 669 q 407 796 254 796 q 536 783 471 796 q 651 746 601 769 l 607 597 q 413 642 507 642 q 319 624 353 642 q 286 572 286 607 q 321 517 286 538 q 431 472 356 497 q 560 422 508 447 q 648 350 611 397 q 685 231 685 303 q 594 48 685 114 q 335 -18 504 -18 m 218 -265 q 299 -244 276 -261 q 322 -200 322 -228 q 253 -150 322 -154 l 296 -47 q 435 -97 392 -57 q 479 -192 479 -136 q 419 -309 479 -262 q 250 -361 358 -356 l 218 -265 z "},"ß":{"ha":975,"x_min":117,"x_max":918,"o":"m 615 -18 q 375 25 488 -18 l 417 174 q 510 145 461 156 q 601 135 560 135 q 708 217 708 135 q 682 272 708 249 q 599 328 656 296 q 508 385 543 358 q 447 453 472 411 q 421 553 421 494 q 451 673 421 624 q 535 779 481 722 q 587 841 571 818 q 603 889 603 864 q 572 946 603 926 q 483 965 540 965 q 329 804 329 965 l 329 0 l 117 0 l 117 807 q 214 1038 117 956 q 494 1119 311 1119 q 728 1060 644 1119 q 813 899 813 1001 q 784 795 813 840 q 704 697 756 750 q 648 628 665 653 q 631 576 631 604 q 656 524 631 546 q 736 469 682 501 q 829 408 793 436 q 892 335 865 381 q 918 229 918 290 q 877 99 918 156 q 767 13 836 43 q 615 -18 697 -18 z "},"t":{"ha":653,"x_min":26,"x_max":619,"o":"m 619 46 q 525 3 578 17 q 421 -11 472 -11 q 213 53 281 -11 q 144 239 144 118 l 144 625 l 26 625 l 26 715 l 169 769 l 229 974 l 357 974 l 357 778 l 579 778 l 579 625 l 357 625 l 357 288 q 381 176 357 210 q 457 143 406 143 q 585 179 519 143 l 619 46 z "},"ť":{"ha":653,"x_min":26,"x_max":654,"o":"m 26 0 m 619 46 q 525 3 578 17 q 421 -11 472 -11 q 213 53 281 -11 q 144 239 144 118 l 144 625 l 26 625 l 26 715 l 169 769 l 229 974 l 357 974 l 357 778 l 579 778 l 579 625 l 357 625 l 357 288 q 381 176 357 210 q 457 143 406 143 q 585 179 519 143 l 619 46 m 413 913 q 465 987 449 947 q 482 1078 482 1026 q 447 1218 482 1146 l 636 1218 q 654 1097 654 1154 q 602 945 654 1014 q 472 835 550 876 l 413 913 z "},"ț":{"ha":653,"x_min":26,"x_max":619,"o":"m 26 0 m 619 46 q 525 3 578 17 q 421 -11 472 -11 q 213 53 281 -11 q 144 239 144 118 l 144 625 l 26 625 l 26 715 l 169 769 l 229 974 l 357 974 l 357 778 l 579 778 l 579 625 l 357 625 l 357 288 q 381 176 357 210 q 457 143 406 143 q 585 179 519 143 l 619 46 m 232 -265 q 313 -244 290 -261 q 336 -200 336 -228 q 267 -150 336 -154 l 310 -47 q 449 -97 406 -57 q 493 -192 493 -136 q 433 -309 493 -262 q 264 -361 372 -356 l 232 -265 z "},"u":{"ha":926,"x_min":110,"x_max":811,"o":"m 811 778 l 811 0 l 653 0 l 629 67 q 368 -18 497 -18 q 165 59 221 -18 q 110 282 110 136 l 110 778 l 322 778 l 322 308 q 347 175 322 213 q 436 138 371 138 q 599 197 514 138 l 599 778 l 811 778 z "},"ú":{"ha":926,"x_min":110,"x_max":811,"o":"m 110 0 m 811 778 l 811 0 l 653 0 l 629 67 q 368 -18 497 -18 q 165 59 221 -18 q 110 282 110 136 l 110 778 l 322 778 l 322 308 q 347 175 322 213 q 436 138 371 138 q 599 197 514 138 l 599 778 l 811 778 m 490 1160 l 718 1160 l 519 865 l 356 865 l 490 1160 z "},"û":{"ha":926,"x_min":110,"x_max":811,"o":"m 110 0 m 811 778 l 811 0 l 653 0 l 629 67 q 368 -18 497 -18 q 165 59 221 -18 q 110 282 110 136 l 110 778 l 322 778 l 322 308 q 347 175 322 213 q 436 138 371 138 q 599 197 514 138 l 599 778 l 811 778 m 554 865 l 457 1028 l 358 865 l 194 865 l 351 1157 l 561 1157 l 719 865 l 554 865 z "},"ü":{"ha":926,"x_min":110,"x_max":811,"o":"m 110 0 m 811 778 l 811 0 l 653 0 l 629 67 q 368 -18 497 -18 q 165 59 221 -18 q 110 282 110 136 l 110 778 l 322 778 l 322 308 q 347 175 322 213 q 436 138 371 138 q 599 197 514 138 l 599 778 l 811 778 m 288 913 q 208 947 242 913 q 174 1026 174 981 q 208 1106 174 1072 q 288 1140 242 1140 q 367 1106 333 1140 q 401 1026 401 1072 q 367 947 401 981 q 288 913 333 913 m 626 913 q 547 947 581 913 q 513 1026 513 981 q 547 1106 513 1072 q 626 1140 581 1140 q 706 1106 672 1140 q 740 1026 740 1072 q 706 947 740 981 q 626 913 672 913 z "},"ù":{"ha":926,"x_min":110,"x_max":811,"o":"m 110 0 m 811 778 l 811 0 l 653 0 l 629 67 q 368 -18 497 -18 q 165 59 221 -18 q 110 282 110 136 l 110 778 l 322 778 l 322 308 q 347 175 322 213 q 436 138 371 138 q 599 197 514 138 l 599 778 l 811 778 m 193 1160 l 421 1160 l 556 865 l 392 865 l 193 1160 z "},"ű":{"ha":926,"x_min":110,"x_max":850,"o":"m 110 0 m 811 778 l 811 0 l 653 0 l 629 67 q 368 -18 497 -18 q 165 59 221 -18 q 110 282 110 136 l 110 778 l 322 778 l 322 308 q 347 175 322 213 q 436 138 371 138 q 599 197 514 138 l 599 778 l 811 778 m 379 1160 l 572 1160 l 374 865 l 244 865 l 379 1160 m 657 1160 l 850 1160 l 651 865 l 522 865 l 657 1160 z "},"ū":{"ha":926,"x_min":110,"x_max":811,"o":"m 110 0 m 811 778 l 811 0 l 653 0 l 629 67 q 368 -18 497 -18 q 165 59 221 -18 q 110 282 110 136 l 110 778 l 322 778 l 322 308 q 347 175 322 213 q 436 138 371 138 q 599 197 514 138 l 599 778 l 811 778 m 194 1132 l 721 1132 l 721 982 l 194 982 l 194 1132 z "},"ų":{"ha":926,"x_min":110,"x_max":869,"o":"m 869 -292 q 788 -349 842 -324 q 678 -374 735 -374 q 547 -331 596 -374 q 499 -215 499 -289 q 538 -92 499 -156 q 644 21 576 -28 l 646 21 l 629 67 q 368 -18 497 -18 q 165 59 221 -18 q 110 282 110 136 l 110 778 l 322 778 l 322 308 q 347 175 322 213 q 436 138 371 138 q 599 197 514 138 l 599 778 l 811 778 l 811 21 l 813 21 l 811 19 l 811 0 l 788 0 q 667 -172 667 -104 q 681 -208 667 -196 q 718 -221 694 -221 q 813 -176 761 -221 l 869 -292 z "},"ů":{"ha":926,"x_min":110,"x_max":811,"o":"m 110 0 m 811 778 l 811 0 l 653 0 l 629 67 q 368 -18 497 -18 q 165 59 221 -18 q 110 282 110 136 l 110 778 l 322 778 l 322 308 q 347 175 322 213 q 436 138 371 138 q 599 197 514 138 l 599 778 l 811 778 m 457 858 q 349 882 394 858 q 280 943 303 906 q 257 1024 257 981 q 280 1104 257 1067 q 349 1165 303 1142 q 457 1188 394 1188 q 565 1165 519 1188 q 633 1103 610 1142 q 656 1024 656 1065 q 633 943 656 981 q 565 882 610 906 q 457 858 519 858 m 457 951 q 508 972 489 951 q 526 1024 526 992 q 508 1074 526 1054 q 457 1094 489 1094 q 406 1074 425 1094 q 388 1024 388 1054 q 406 972 388 992 q 457 951 425 951 z "},"v":{"ha":832,"x_min":13,"x_max":819,"o":"m 819 778 l 519 -8 l 313 -8 l 13 778 l 229 778 l 418 207 l 606 778 l 819 778 z "},"w":{"ha":1211,"x_min":17,"x_max":1196,"o":"m 1196 778 l 950 -8 l 746 -8 l 607 554 l 467 -8 l 263 -8 l 17 778 l 233 778 l 363 214 l 506 778 l 710 778 l 850 214 l 982 778 l 1196 778 z "},"x":{"ha":853,"x_min":13,"x_max":839,"o":"m 607 0 l 425 276 l 243 0 l 13 0 l 306 403 l 35 778 l 267 778 l 425 522 l 583 778 l 813 778 l 540 407 l 839 0 l 607 0 z "},"y":{"ha":849,"x_min":17,"x_max":838,"o":"m 838 778 l 506 -103 q 376 -293 458 -235 q 175 -351 293 -351 q 92 -345 136 -351 q 17 -326 49 -339 l 32 -169 q 151 -190 101 -190 q 265 -158 218 -190 q 349 -53 313 -126 l 28 778 l 244 778 l 438 206 l 624 778 l 838 778 z "},"ý":{"ha":849,"x_min":17,"x_max":838,"o":"m 17 0 m 838 778 l 506 -103 q 376 -293 458 -235 q 175 -351 293 -351 q 92 -345 136 -351 q 17 -326 49 -339 l 32 -169 q 151 -190 101 -190 q 265 -158 218 -190 q 349 -53 313 -126 l 28 778 l 244 778 l 438 206 l 624 778 l 838 778 m 471 1160 l 699 1160 l 500 865 l 336 865 l 471 1160 z "},"ÿ":{"ha":849,"x_min":17,"x_max":838,"o":"m 17 0 m 838 778 l 506 -103 q 376 -293 458 -235 q 175 -351 293 -351 q 92 -345 136 -351 q 17 -326 49 -339 l 32 -169 q 151 -190 101 -190 q 265 -158 218 -190 q 349 -53 313 -126 l 28 778 l 244 778 l 438 206 l 624 778 l 838 778 m 268 913 q 188 947 222 913 q 154 1026 154 981 q 188 1106 154 1072 q 268 1140 222 1140 q 348 1106 314 1140 q 382 1026 382 1072 q 348 947 382 981 q 268 913 314 913 m 607 913 q 527 947 561 913 q 493 1026 493 981 q 527 1106 493 1072 q 607 1140 561 1140 q 687 1106 653 1140 q 721 1026 721 1072 q 687 947 721 981 q 607 913 653 913 z "},"z":{"ha":758,"x_min":40,"x_max":711,"o":"m 711 151 l 711 0 l 40 0 l 40 115 l 454 625 l 60 625 l 60 778 l 697 778 l 697 660 l 285 151 l 711 151 z "},"ź":{"ha":758,"x_min":40,"x_max":711,"o":"m 40 0 m 711 151 l 711 0 l 40 0 l 40 115 l 454 625 l 60 625 l 60 778 l 697 778 l 697 660 l 285 151 l 711 151 m 418 1160 l 646 1160 l 447 865 l 283 865 l 418 1160 z "},"ž":{"ha":758,"x_min":40,"x_max":711,"o":"m 40 0 m 711 151 l 711 0 l 40 0 l 40 115 l 454 625 l 60 625 l 60 778 l 697 778 l 697 660 l 285 151 l 711 151 m 647 1157 l 489 865 l 279 865 l 122 1157 l 286 1157 l 385 994 l 482 1157 l 647 1157 z "},"ż":{"ha":758,"x_min":40,"x_max":711,"o":"m 40 0 m 711 151 l 711 0 l 40 0 l 40 115 l 454 625 l 60 625 l 60 778 l 697 778 l 697 660 l 285 151 l 711 151 m 385 913 q 305 947 339 913 q 271 1026 271 981 q 305 1106 271 1072 q 385 1140 339 1140 q 465 1106 431 1140 q 499 1026 499 1072 q 465 947 499 981 q 385 913 431 913 z "},"ﬁ":{"ha":1050,"x_min":36,"x_max":950,"o":"m 36 0 m 367 778 l 589 778 l 589 625 l 367 625 l 367 0 l 154 0 l 154 625 l 36 625 l 36 715 l 154 760 l 154 815 q 228 1041 154 963 q 456 1119 303 1119 q 592 1108 510 1119 l 576 958 q 490 965 525 965 q 367 813 367 965 l 367 778 m 825 914 q 738 950 774 914 q 701 1038 701 986 q 738 1125 701 1089 q 825 1161 774 1161 q 913 1125 876 1161 q 950 1038 950 1089 q 913 950 950 986 q 825 914 876 914 m 719 778 l 932 778 l 932 0 l 719 0 l 719 778 z "},"ﬂ":{"ha":1046,"x_min":36,"x_max":931,"o":"m 36 0 m 367 778 l 589 778 l 589 625 l 367 625 l 367 0 l 154 0 l 154 625 l 36 625 l 36 715 l 154 760 l 154 815 q 228 1041 154 963 q 456 1119 303 1119 q 592 1108 510 1119 l 576 958 q 490 965 525 965 q 367 813 367 965 l 367 778 m 718 1111 l 931 1111 l 931 0 l 718 0 l 718 1111 z "},"ª":{"ha":596,"x_min":32,"x_max":583,"o":"m 33 586 q 67 687 33 647 q 164 751 101 726 q 336 806 226 776 l 336 810 q 322 860 336 840 q 265 881 307 881 q 74 815 178 881 l 32 924 q 322 1007 174 1007 q 478 955 431 1007 q 526 786 526 903 l 526 633 q 531 613 526 619 q 547 606 535 606 q 575 613 561 606 l 583 472 q 478 460 532 460 q 349 517 378 460 q 268 473 307 488 q 178 458 229 458 q 74 495 114 458 q 33 586 33 532 m 226 614 q 237 590 226 599 q 264 582 247 582 q 336 614 290 582 l 336 707 q 251 664 276 685 q 226 614 226 643 m 35 360 l 568 360 l 568 215 l 35 215 l 35 360 z "},"º":{"ha":628,"x_min":31,"x_max":599,"o":"m 31 729 q 63 867 31 803 q 158 969 94 931 q 314 1008 222 1008 q 470 969 406 1008 q 567 867 535 931 q 599 732 599 804 q 567 593 599 657 q 470 490 535 529 q 314 451 406 451 q 158 490 222 451 q 63 592 94 529 q 31 729 31 656 m 404 731 q 383 840 404 803 q 313 876 361 876 q 243 840 264 876 q 222 731 222 803 q 243 621 222 657 q 313 585 264 585 q 383 621 363 585 q 404 731 404 657 m 579 360 l 579 215 l 50 215 l 50 360 l 579 360 z "},"Ω":{"ha":1153,"x_min":63,"x_max":1090,"o":"m 1086 524 q 1035 324 1086 418 q 894 160 983 231 l 894 154 l 1090 154 l 1090 0 l 638 0 l 638 139 q 812 322 757 232 q 867 525 867 413 q 831 672 867 608 q 728 772 794 736 q 576 807 663 807 q 424 772 490 807 q 322 672 358 736 q 286 525 286 608 q 341 322 286 413 q 515 139 396 232 l 515 0 l 63 0 l 63 154 l 260 154 l 260 160 q 118 325 169 232 q 67 524 67 418 q 129 749 67 649 q 307 908 192 850 q 576 965 422 965 q 845 908 729 965 q 1024 749 961 850 q 1086 524 1086 649 z "},"μ":{"ha":928,"x_min":110,"x_max":813,"o":"m 813 778 l 813 0 l 654 0 l 631 68 q 368 -18 494 -18 q 290 -10 322 -18 l 322 -329 l 110 -329 l 110 778 l 322 778 l 322 308 q 347 175 322 213 q 436 138 371 138 q 600 197 510 138 l 600 778 l 813 778 z "},"π":{"ha":1008,"x_min":38,"x_max":933,"o":"m 801 625 l 801 207 q 814 159 801 174 q 857 144 826 144 q 917 156 885 144 l 928 10 q 778 -11 860 -11 q 639 32 689 -11 q 589 181 589 75 l 589 625 l 425 625 l 365 0 l 153 0 l 213 625 l 38 625 l 38 778 l 933 778 l 933 625 l 801 625 z "},"ॲ":{"ha":1200,"x_min":0,"x_max":1314,"o":"m 0 0 m 1200 772 l 1069 772 l 1069 0 l 875 0 l 875 311 q 754 286 818 286 q 707 289 738 286 q 710 253 710 267 q 674 128 710 185 q 570 40 638 72 q 413 7 503 7 q 0 275 169 7 l 99 393 q 244 228 164 292 q 406 164 325 164 q 486 194 457 164 q 515 276 515 224 q 463 407 515 347 q 306 385 399 389 l 258 543 q 410 567 358 550 q 481 613 463 585 q 499 682 499 640 q 470 760 499 729 q 388 792 442 792 q 188 694 311 792 l 106 840 q 241 921 174 890 q 379 951 308 951 q 533 917 461 951 q 649 816 606 883 q 693 656 693 749 q 608 475 693 543 q 754 444 682 444 q 875 472 824 444 l 875 772 l 715 772 l 715 929 l 1200 929 l 1200 772 m 972 1011 q 769 1070 858 1011 q 631 1224 679 1129 l 756 1311 q 972 1169 840 1169 q 1189 1311 1104 1169 l 1314 1224 q 1174 1069 1263 1128 q 972 1011 1086 1011 z "},"ऄ":{"ha":1200,"x_min":0,"x_max":1200,"o":"m 1200 772 l 1069 772 l 1069 0 l 875 0 l 875 311 q 754 286 818 286 q 707 289 738 286 q 710 253 710 267 q 674 128 710 185 q 570 40 638 72 q 413 7 503 7 q 0 275 169 7 l 99 393 q 244 228 164 292 q 406 164 325 164 q 486 194 457 164 q 515 276 515 224 q 463 407 515 347 q 306 385 399 389 l 258 543 q 410 567 358 550 q 481 613 463 585 q 499 682 499 640 q 470 760 499 729 q 388 792 442 792 q 188 694 311 792 l 106 840 q 241 921 174 890 q 379 951 308 951 q 533 917 461 951 q 649 816 606 883 q 693 656 693 749 q 608 475 693 543 q 754 444 682 444 q 875 472 824 444 l 875 772 l 715 772 l 715 929 l 886 929 l 886 944 q 861 1021 886 990 q 776 1051 836 1051 q 624 1043 726 1051 q 478 1035 524 1035 q 312 1080 371 1035 q 253 1210 253 1125 q 268 1297 253 1251 q 307 1375 283 1342 l 482 1335 q 446 1246 446 1292 q 503 1193 446 1193 q 640 1201 549 1193 q 776 1210 735 1210 q 1001 1137 924 1210 q 1079 943 1079 1064 l 1079 929 l 1200 929 l 1200 772 z "},"अ":{"ha":1200,"x_min":0,"x_max":1200,"o":"m 1200 772 l 1069 772 l 1069 0 l 875 0 l 875 311 q 754 286 818 286 q 707 289 738 286 q 710 253 710 267 q 674 128 710 185 q 570 40 638 72 q 413 7 503 7 q 0 275 169 7 l 99 393 q 244 228 164 292 q 406 164 325 164 q 486 194 457 164 q 515 276 515 224 q 463 407 515 347 q 306 385 399 389 l 258 543 q 410 567 358 550 q 481 613 463 585 q 499 682 499 640 q 470 760 499 729 q 388 792 442 792 q 188 694 311 792 l 106 840 q 241 921 174 890 q 379 951 308 951 q 533 917 461 951 q 649 816 606 883 q 693 656 693 749 q 608 475 693 543 q 754 444 682 444 q 875 472 824 444 l 875 772 l 715 772 l 715 929 l 1200 929 l 1200 772 z "},"आ":{"ha":1656,"x_min":0,"x_max":1656,"o":"m 1656 772 l 1525 772 l 1525 0 l 1331 0 l 1331 772 l 1069 772 l 1069 0 l 875 0 l 875 311 q 754 286 818 286 q 707 289 738 286 q 710 253 710 267 q 674 128 710 185 q 570 40 638 72 q 413 7 503 7 q 0 275 169 7 l 99 393 q 244 228 164 292 q 406 164 325 164 q 486 194 457 164 q 515 276 515 224 q 463 407 515 347 q 306 385 399 389 l 258 543 q 410 567 358 550 q 481 613 463 585 q 499 682 499 640 q 470 760 499 729 q 388 792 442 792 q 188 694 311 792 l 106 840 q 241 921 174 890 q 379 951 308 951 q 533 917 461 951 q 649 816 606 883 q 693 656 693 749 q 608 475 693 543 q 754 444 682 444 q 875 472 824 444 l 875 772 l 715 772 l 715 929 l 1656 929 l 1656 772 z "},"इ":{"ha":757,"x_min":-28,"x_max":757,"o":"m 303 546 q 275 531 286 546 q 264 492 264 515 q 285 449 264 464 q 349 435 307 435 q 467 447 400 435 q 585 481 533 460 q 673 381 636 444 q 710 249 710 317 q 634 64 710 139 q 438 -29 558 -11 l 571 -226 l 397 -318 l 265 -26 q 122 28 178 -11 q 67 117 67 68 q 117 202 67 168 q 256 238 168 236 l 333 124 q 353 122 340 122 q 469 156 424 122 q 515 239 515 189 q 497 300 515 268 q 351 276 422 276 q 195 306 258 276 q 101 385 132 336 q 69 496 69 435 q 124 644 69 585 q 275 703 179 703 l 417 703 l 417 772 l -28 772 l -28 929 l 757 929 l 757 772 l 610 772 l 610 546 l 303 546 z "},"ई":{"ha":757,"x_min":-28,"x_max":757,"o":"m 303 546 q 275 531 286 546 q 264 492 264 515 q 285 449 264 464 q 349 435 307 435 q 467 447 400 435 q 585 481 533 460 q 673 381 636 444 q 710 249 710 317 q 634 64 710 139 q 438 -29 558 -11 l 571 -226 l 397 -318 l 265 -26 q 122 28 178 -11 q 67 117 67 68 q 117 202 67 168 q 256 238 168 236 l 333 124 q 353 122 340 122 q 469 156 424 122 q 515 239 515 189 q 497 300 515 268 q 351 276 422 276 q 195 306 258 276 q 101 385 132 336 q 69 496 69 435 q 124 644 69 585 q 275 703 179 703 l 417 703 l 417 772 l -28 772 l -28 929 l 376 929 q 294 1037 322 981 q 267 1163 267 1093 q 338 1325 267 1261 q 539 1389 408 1389 q 638 1374 590 1389 q 721 1335 685 1358 l 674 1201 q 623 1224 647 1215 q 568 1232 599 1232 q 488 1203 514 1232 q 461 1122 461 1174 q 492 1024 461 1069 q 578 929 524 978 l 757 929 l 757 772 l 610 772 l 610 546 l 303 546 z "},"उ":{"ha":829,"x_min":-28,"x_max":829,"o":"m 829 772 l 694 772 q 725 644 725 714 q 628 471 725 538 q 736 235 736 365 q 698 104 736 163 q 590 13 660 46 q 428 -21 519 -21 q 13 276 186 -21 l 111 394 q 258 208 178 281 q 421 136 339 136 q 509 171 476 136 q 542 258 542 206 q 478 407 542 343 q 289 385 392 386 l 240 543 q 422 568 358 550 q 508 611 486 586 q 531 671 531 636 q 513 728 531 701 q 463 772 496 756 l -28 772 l -28 929 l 829 929 l 829 772 z "},"ऊ":{"ha":1194,"x_min":-28,"x_max":1194,"o":"m 694 772 q 725 644 725 714 q 628 471 725 538 q 667 426 642 457 q 788 517 729 483 q 908 550 846 550 q 1041 518 985 550 q 1126 433 1097 486 q 1156 318 1156 379 q 1118 148 1156 229 q 1019 0 1081 67 l 839 104 q 961 325 961 242 q 944 374 961 356 q 899 392 928 392 q 733 279 829 392 q 736 235 736 251 q 698 104 736 163 q 590 13 660 46 q 428 -21 519 -21 q 13 276 186 -21 l 111 394 q 258 208 178 281 q 421 136 339 136 q 509 171 476 136 q 542 258 542 206 q 478 407 542 343 q 289 385 392 386 l 240 543 q 422 568 358 550 q 508 611 486 586 q 531 671 531 636 q 513 728 531 701 q 463 772 496 756 l -28 772 l -28 929 l 1194 929 l 1194 772 l 694 772 z "},"ऋ":{"ha":1240,"x_min":-28,"x_max":1289,"o":"m 1289 -56 q 1199 -101 1251 -83 q 1088 -118 1147 -118 q 954 -90 1013 -118 q 865 -13 896 -62 q 833 96 833 36 q 954 296 833 210 l 924 367 q 760 335 839 335 q 733 336 742 335 l 733 0 l 539 0 l 539 249 l 224 8 l 106 163 l 514 433 q 411 492 457 475 q 318 510 365 510 q 126 447 257 510 l 35 614 q 318 668 178 668 q 426 651 374 668 q 539 594 478 635 l 539 772 l -28 772 l -28 929 l 1240 929 l 1240 772 l 733 772 l 733 494 q 763 493 743 493 q 861 510 810 493 l 813 622 q 876 683 838 661 q 956 704 914 704 q 1059 663 1022 704 q 1096 567 1096 622 q 1047 449 1096 500 l 1157 224 q 1000 100 1000 178 q 1022 56 1000 71 q 1086 40 1044 40 q 1158 51 1121 40 q 1221 81 1196 63 l 1289 -56 z "},"ॠ":{"ha":1240,"x_min":-28,"x_max":1424,"o":"m 1424 -322 q 1329 -376 1383 -356 q 1211 -396 1275 -396 q 1080 -368 1138 -396 q 990 -292 1022 -340 q 958 -183 958 -243 q 976 -99 958 -139 q 872 -23 910 -75 q 833 96 833 29 q 954 296 833 210 l 924 367 q 760 335 839 335 q 733 336 742 335 l 733 0 l 539 0 l 539 249 l 224 8 l 106 163 l 514 433 q 411 492 457 475 q 318 510 365 510 q 126 447 257 510 l 35 614 q 318 668 178 668 q 426 651 374 668 q 539 594 478 635 l 539 772 l -28 772 l -28 929 l 1240 929 l 1240 772 l 733 772 l 733 494 q 763 493 743 493 q 861 510 810 493 l 813 622 q 876 683 838 661 q 956 704 914 704 q 1059 663 1022 704 q 1096 567 1096 622 q 1047 449 1096 500 l 1157 224 q 1000 100 1000 178 q 1022 56 1000 71 q 1086 40 1044 40 q 1158 51 1121 40 q 1221 81 1196 63 l 1289 -56 q 1157 -111 1232 -97 q 1125 -179 1125 -143 q 1147 -223 1125 -208 q 1210 -237 1169 -237 q 1287 -224 1246 -237 q 1354 -187 1328 -211 l 1424 -322 z "},"ऌ":{"ha":1111,"x_min":-28,"x_max":1146,"o":"m 1146 -111 q 1037 -181 1093 -156 q 903 -206 981 -206 q 723 -149 796 -206 q 650 7 650 -92 q 681 114 650 65 q 772 231 711 163 q 846 322 822 286 q 869 394 869 357 q 848 452 869 432 q 789 472 826 472 q 683 408 728 472 q 615 232 638 343 l 421 268 q 475 436 438 365 q 356 496 419 496 q 282 465 314 496 q 250 378 250 433 q 301 212 250 289 q 461 39 353 135 l 350 -74 q 135 158 215 36 q 56 397 56 279 q 133 588 56 521 q 332 656 210 656 q 460 622 403 656 q 554 540 517 589 q 686 618 614 597 l 686 772 l -28 772 l -28 929 l 1111 929 l 1111 772 l 881 772 l 881 619 q 1015 528 967 593 q 1064 388 1064 464 q 1031 280 1064 331 q 935 161 997 229 q 864 76 888 110 q 840 11 840 42 q 860 -33 840 -18 q 915 -49 881 -49 q 1000 -28 957 -49 q 1082 26 1043 -8 l 1146 -111 z "},"ॡ":{"ha":1111,"x_min":-28,"x_max":1286,"o":"m 1286 -397 q 1192 -449 1247 -429 q 1074 -469 1138 -469 q 942 -442 999 -469 q 853 -366 885 -414 q 821 -257 821 -318 q 829 -197 821 -226 q 700 -126 750 -179 q 650 7 650 -74 q 681 114 650 65 q 772 231 711 163 q 846 322 822 286 q 869 394 869 357 q 848 452 869 432 q 789 472 826 472 q 683 408 728 472 q 615 232 638 343 l 421 268 q 475 436 438 365 q 356 496 419 496 q 282 465 314 496 q 250 378 250 433 q 301 212 250 289 q 461 39 353 135 l 350 -74 q 135 158 215 36 q 56 397 56 279 q 133 588 56 521 q 332 656 210 656 q 460 622 403 656 q 554 540 517 589 q 686 618 614 597 l 686 772 l -28 772 l -28 929 l 1111 929 l 1111 772 l 881 772 l 881 619 q 1015 528 967 593 q 1064 388 1064 464 q 1031 280 1064 331 q 935 161 997 229 q 864 76 888 110 q 840 11 840 42 q 860 -33 840 -18 q 915 -49 881 -49 q 1000 -28 957 -49 q 1082 26 1043 -8 l 1146 -111 q 1024 -186 1082 -165 q 988 -254 988 -217 q 1010 -297 988 -282 q 1072 -312 1032 -312 q 1152 -298 1110 -312 q 1221 -258 1194 -283 l 1286 -397 z "},"ऍ":{"ha":956,"x_min":-28,"x_max":969,"o":"m 0 0 m 821 14 q 934 -83 899 -39 q 969 -167 969 -126 q 948 -262 969 -218 q 876 -358 926 -307 l 713 -276 q 749 -224 738 -247 q 761 -179 761 -201 q 738 -128 761 -154 q 661 -69 714 -103 l 326 158 q 192 281 232 222 q 151 426 151 340 l 151 772 l -28 772 l -28 929 l 956 929 l 956 772 l 817 772 l 817 471 q 649 263 817 339 l 500 381 q 592 434 561 404 q 622 511 622 464 l 622 772 l 346 772 l 346 431 q 366 341 346 372 q 438 275 386 310 l 821 14 m 479 1011 q 276 1070 365 1011 q 138 1224 186 1129 l 263 1311 q 479 1169 347 1169 q 696 1311 611 1169 l 821 1224 q 681 1069 769 1128 q 479 1011 593 1011 z "},"ऎ":{"ha":956,"x_min":-28,"x_max":969,"o":"m 821 14 q 934 -83 899 -39 q 969 -167 969 -126 q 948 -262 969 -218 q 876 -358 926 -307 l 713 -276 q 749 -224 738 -247 q 761 -179 761 -201 q 738 -128 761 -154 q 661 -69 714 -103 l 326 158 q 192 281 232 222 q 151 426 151 340 l 151 772 l -28 772 l -28 929 l 631 929 l 631 944 q 606 1021 631 990 q 521 1051 581 1051 q 368 1043 471 1051 q 222 1035 268 1035 q 56 1080 115 1035 q -3 1210 -3 1125 q 13 1297 -3 1251 q 51 1375 28 1342 l 226 1335 q 190 1246 190 1292 q 247 1193 190 1193 q 385 1201 293 1193 q 521 1210 479 1210 q 746 1137 668 1210 q 824 943 824 1064 l 824 929 l 956 929 l 956 772 l 817 772 l 817 471 q 649 263 817 339 l 500 381 q 592 434 561 404 q 622 511 622 464 l 622 772 l 346 772 l 346 431 q 366 341 346 372 q 438 275 386 310 l 821 14 z "},"ए":{"ha":956,"x_min":-28,"x_max":969,"o":"m 821 14 q 934 -83 899 -39 q 969 -167 969 -126 q 948 -262 969 -218 q 876 -358 926 -307 l 713 -276 q 749 -224 738 -247 q 761 -179 761 -201 q 738 -128 761 -154 q 661 -69 714 -103 l 326 158 q 192 281 232 222 q 151 426 151 340 l 151 772 l -28 772 l -28 929 l 956 929 l 956 772 l 817 772 l 817 471 q 649 263 817 339 l 500 381 q 592 434 561 404 q 622 511 622 464 l 622 772 l 346 772 l 346 431 q 366 341 346 372 q 438 275 386 310 l 821 14 z "},"ऐ":{"ha":956,"x_min":-28,"x_max":969,"o":"m 821 14 q 934 -83 899 -39 q 969 -167 969 -126 q 948 -262 969 -218 q 876 -358 926 -307 l 713 -276 q 749 -224 738 -247 q 761 -179 761 -201 q 738 -128 761 -154 q 661 -69 714 -103 l 326 158 q 192 281 232 222 q 151 426 151 340 l 151 772 l -28 772 l -28 929 l 604 929 l 569 1007 q 474 1160 524 1111 q 354 1208 425 1208 q 229 1190 289 1208 l 196 1339 q 353 1368 267 1368 q 570 1288 482 1368 q 740 1029 658 1208 l 786 929 l 956 929 l 956 772 l 817 772 l 817 471 q 649 263 817 339 l 500 381 q 592 434 561 404 q 622 511 622 464 l 622 772 l 346 772 l 346 431 q 366 341 346 372 q 438 275 386 310 l 821 14 z "},"ऑ":{"ha":1656,"x_min":0,"x_max":1699,"o":"m 0 0 m 1656 772 l 1525 772 l 1525 0 l 1331 0 l 1331 772 l 1069 772 l 1069 0 l 875 0 l 875 311 q 754 286 818 286 q 707 289 738 286 q 710 253 710 267 q 674 128 710 185 q 570 40 638 72 q 413 7 503 7 q 0 275 169 7 l 99 393 q 244 228 164 292 q 406 164 325 164 q 486 194 457 164 q 515 276 515 224 q 463 407 515 347 q 306 385 399 389 l 258 543 q 410 567 358 550 q 481 613 463 585 q 499 682 499 640 q 470 760 499 729 q 388 792 442 792 q 188 694 311 792 l 106 840 q 241 921 174 890 q 379 951 308 951 q 533 917 461 951 q 649 816 606 883 q 693 656 693 749 q 608 475 693 543 q 754 444 682 444 q 875 472 824 444 l 875 772 l 715 772 l 715 929 l 1656 929 l 1656 772 m 1357 1011 q 1153 1070 1243 1011 q 1015 1224 1064 1129 l 1140 1311 q 1357 1169 1225 1169 q 1574 1311 1489 1169 l 1699 1224 q 1559 1069 1647 1128 q 1357 1011 1471 1011 z "},"ऒ":{"ha":1656,"x_min":0,"x_max":1656,"o":"m 1656 772 l 1525 772 l 1525 0 l 1331 0 l 1331 772 l 1069 772 l 1069 0 l 875 0 l 875 311 q 754 286 818 286 q 707 289 738 286 q 710 253 710 267 q 674 128 710 185 q 570 40 638 72 q 413 7 503 7 q 0 275 169 7 l 99 393 q 244 228 164 292 q 406 164 325 164 q 486 194 457 164 q 515 276 515 224 q 463 407 515 347 q 306 385 399 389 l 258 543 q 410 567 358 550 q 481 613 463 585 q 499 682 499 640 q 470 760 499 729 q 388 792 442 792 q 188 694 311 792 l 106 840 q 241 921 174 890 q 379 951 308 951 q 533 917 461 951 q 649 816 606 883 q 693 656 693 749 q 608 475 693 543 q 754 444 682 444 q 875 472 824 444 l 875 772 l 715 772 l 715 929 l 1343 929 l 1343 944 q 1318 1021 1343 990 q 1233 1051 1293 1051 q 1081 1043 1183 1051 q 935 1035 981 1035 q 769 1080 828 1035 q 710 1210 710 1125 q 725 1297 710 1251 q 764 1375 740 1342 l 939 1335 q 903 1246 903 1292 q 960 1193 903 1193 q 1097 1201 1006 1193 q 1233 1210 1192 1210 q 1458 1137 1381 1210 q 1536 943 1536 1064 l 1536 929 l 1656 929 l 1656 772 z "},"ओ":{"ha":1656,"x_min":0,"x_max":1656,"o":"m 1656 772 l 1525 772 l 1525 0 l 1331 0 l 1331 772 l 1069 772 l 1069 0 l 875 0 l 875 311 q 754 286 818 286 q 707 289 738 286 q 710 253 710 267 q 674 128 710 185 q 570 40 638 72 q 413 7 503 7 q 0 275 169 7 l 99 393 q 244 228 164 292 q 406 164 325 164 q 486 194 457 164 q 515 276 515 224 q 463 407 515 347 q 306 385 399 389 l 258 543 q 410 567 358 550 q 481 613 463 585 q 499 682 499 640 q 470 760 499 729 q 388 792 442 792 q 188 694 311 792 l 106 840 q 241 921 174 890 q 379 951 308 951 q 533 917 461 951 q 649 816 606 883 q 693 656 693 749 q 608 475 693 543 q 754 444 682 444 q 875 472 824 444 l 875 772 l 715 772 l 715 929 l 1315 929 l 1281 1007 q 1185 1160 1235 1111 q 1065 1208 1136 1208 q 940 1190 1000 1208 l 907 1339 q 1064 1368 978 1368 q 1281 1288 1193 1368 q 1451 1029 1369 1208 l 1497 929 l 1656 929 l 1656 772 z "},"औ":{"ha":1656,"x_min":0,"x_max":1656,"o":"m 1656 772 l 1525 772 l 1525 0 l 1331 0 l 1331 772 l 1069 772 l 1069 0 l 875 0 l 875 311 q 754 286 818 286 q 707 289 738 286 q 710 253 710 267 q 674 128 710 185 q 570 40 638 72 q 413 7 503 7 q 0 275 169 7 l 99 393 q 244 228 164 292 q 406 164 325 164 q 486 194 457 164 q 515 276 515 224 q 463 407 515 347 q 306 385 399 389 l 258 543 q 410 567 358 550 q 481 613 463 585 q 499 682 499 640 q 470 760 499 729 q 388 792 442 792 q 188 694 311 792 l 106 840 q 241 921 174 890 q 379 951 308 951 q 533 917 461 951 q 649 816 606 883 q 693 656 693 749 q 608 475 693 543 q 754 444 682 444 q 875 472 824 444 l 875 772 l 715 772 l 715 929 l 1257 929 l 1226 976 q 1065 1071 1167 1071 q 931 1043 994 1071 l 897 1192 q 1064 1232 976 1232 q 1272 1142 1178 1232 q 1203 1267 1231 1225 q 1144 1329 1175 1310 q 1067 1349 1113 1349 q 965 1331 1013 1349 l 932 1479 q 1088 1508 1001 1508 q 1242 1463 1178 1508 q 1365 1317 1307 1418 q 1493 1029 1422 1215 l 1531 929 l 1656 929 l 1656 772 z "},"ॳ":{"ha":1200,"x_min":0,"x_max":1200,"o":"m 1200 772 l 1069 772 l 1069 0 l 875 0 l 875 311 q 754 286 818 286 q 707 289 738 286 q 710 253 710 267 q 674 128 710 185 q 570 40 638 72 q 413 7 503 7 q 0 275 169 7 l 99 393 q 244 228 164 292 q 406 164 325 164 q 486 194 457 164 q 515 276 515 224 q 463 407 515 347 q 306 385 399 389 l 258 543 q 410 567 358 550 q 481 613 463 585 q 499 682 499 640 q 470 760 499 729 q 388 792 442 792 q 188 694 311 792 l 106 840 q 241 921 174 890 q 379 951 308 951 q 533 917 461 951 q 649 816 606 883 q 693 656 693 749 q 608 475 693 543 q 754 444 682 444 q 875 472 824 444 l 875 772 l 715 772 l 715 929 l 878 929 l 878 1296 l 1072 1296 l 1072 929 l 1200 929 l 1200 772 z "},"ॴ":{"ha":1656,"x_min":0,"x_max":1656,"o":"m 1656 772 l 1525 772 l 1525 0 l 1331 0 l 1331 772 l 1069 772 l 1069 0 l 875 0 l 875 311 q 754 286 818 286 q 707 289 738 286 q 710 253 710 267 q 674 128 710 185 q 570 40 638 72 q 413 7 503 7 q 0 275 169 7 l 99 393 q 244 228 164 292 q 406 164 325 164 q 486 194 457 164 q 515 276 515 224 q 463 407 515 347 q 306 385 399 389 l 258 543 q 410 567 358 550 q 481 613 463 585 q 499 682 499 640 q 470 760 499 729 q 388 792 442 792 q 188 694 311 792 l 106 840 q 241 921 174 890 q 379 951 308 951 q 533 917 461 951 q 649 816 606 883 q 693 656 693 749 q 608 475 693 543 q 754 444 682 444 q 875 472 824 444 l 875 772 l 715 772 l 715 929 l 1331 929 l 1331 1296 l 1525 1296 l 1525 929 l 1656 929 l 1656 772 z "},"ॶ":{"ha":1200,"x_min":0,"x_max":1336,"o":"m 0 0 m 1200 772 l 1069 772 l 1069 0 l 875 0 l 875 311 q 754 286 818 286 q 707 289 738 286 q 710 253 710 267 q 674 128 710 185 q 570 40 638 72 q 413 7 503 7 q 0 275 169 7 l 99 393 q 244 228 164 292 q 406 164 325 164 q 486 194 457 164 q 515 276 515 224 q 463 407 515 347 q 306 385 399 389 l 258 543 q 410 567 358 550 q 481 613 463 585 q 499 682 499 640 q 470 760 499 729 q 388 792 442 792 q 188 694 311 792 l 106 840 q 241 921 174 890 q 379 951 308 951 q 533 917 461 951 q 649 816 606 883 q 693 656 693 749 q 608 475 693 543 q 754 444 682 444 q 875 472 824 444 l 875 772 l 715 772 l 715 929 l 1200 929 l 1200 772 m 972 -336 q 756 -274 851 -336 q 608 -108 660 -212 l 747 -26 q 840 -136 785 -93 q 972 -179 896 -179 q 1199 -26 1111 -179 l 1336 -108 q 1189 -274 1285 -212 q 972 -336 1093 -336 z "},"ॷ":{"ha":1200,"x_min":0,"x_max":1336,"o":"m 0 0 m 1200 772 l 1069 772 l 1069 0 l 875 0 l 875 311 q 754 286 818 286 q 707 289 738 286 q 710 253 710 267 q 674 128 710 185 q 570 40 638 72 q 413 7 503 7 q 0 275 169 7 l 99 393 q 244 228 164 292 q 406 164 325 164 q 486 194 457 164 q 515 276 515 224 q 463 407 515 347 q 306 385 399 389 l 258 543 q 410 567 358 550 q 481 613 463 585 q 499 682 499 640 q 470 760 499 729 q 388 792 442 792 q 188 694 311 792 l 106 840 q 241 921 174 890 q 379 951 308 951 q 533 917 461 951 q 649 816 606 883 q 693 656 693 749 q 608 475 693 543 q 754 444 682 444 q 875 472 824 444 l 875 772 l 715 772 l 715 929 l 1200 929 l 1200 772 m 972 -336 q 756 -274 851 -336 q 608 -108 660 -212 l 747 -26 q 840 -136 785 -93 q 972 -179 896 -179 q 1199 -26 1111 -179 l 1336 -108 q 1189 -274 1285 -212 q 972 -336 1093 -336 m 972 -651 q 756 -590 851 -651 q 608 -424 660 -528 l 747 -342 q 840 -451 785 -408 q 972 -494 896 -494 q 1199 -342 1111 -494 l 1336 -424 q 1189 -590 1285 -528 q 972 -651 1093 -651 z "},"ा":{"ha":456,"x_min":-28,"x_max":456,"o":"m 456 772 l 325 772 l 325 0 l 131 0 l 131 772 l -28 772 l -28 929 l 456 929 l 456 772 z "},"ि":{"ha":456,"x_min":-28,"x_max":1063,"o":"m 383 1242 q 274 1206 317 1242 q 231 1103 231 1169 q 283 929 231 1013 l 456 929 l 456 772 l 325 772 l 325 0 l 131 0 l 131 772 l -28 772 l -28 929 l 113 929 q 36 1142 36 1044 q 76 1278 36 1218 q 187 1372 115 1338 q 351 1406 258 1406 q 620 1351 488 1406 q 853 1226 753 1296 q 1063 1065 953 1156 l 974 961 q 671 1162 825 1082 q 383 1242 517 1242 z "},"ी":{"ha":456,"x_min":-411,"x_max":456,"o":"m 456 772 l 325 772 l 325 0 l 131 0 l 131 772 l -28 772 l -28 929 l 117 929 q 2 1154 57 1076 q -124 1232 -53 1232 q -199 1205 -171 1232 q -228 1138 -228 1178 q -175 1015 -228 1079 l -283 961 q -374 1059 -336 1001 q -411 1183 -411 1117 q -379 1289 -411 1242 q -291 1363 -347 1336 q -167 1390 -235 1390 q 31 1328 -53 1390 q 173 1168 115 1267 q 286 929 231 1069 l 456 929 l 456 772 z "},"ॉ":{"ha":456,"x_min":-112,"x_max":571,"o":"m 0 0 m 456 772 l 325 772 l 325 0 l 131 0 l 131 772 l -28 772 l -28 929 l 456 929 l 456 772 m 229 1011 q 26 1070 115 1011 q -112 1224 -64 1129 l 13 1311 q 229 1169 97 1169 q 446 1311 361 1169 l 571 1224 q 431 1069 519 1128 q 229 1011 343 1011 z "},"ॊ":{"ha":456,"x_min":-490,"x_max":456,"o":"m 456 772 l 325 772 l 325 0 l 131 0 l 131 772 l -28 772 l -28 929 l 143 929 l 143 944 q 118 1021 143 990 q 33 1051 93 1051 q -119 1043 -17 1051 q -265 1035 -219 1035 q -431 1080 -372 1035 q -490 1210 -490 1125 q -475 1297 -490 1251 q -436 1375 -460 1342 l -261 1335 q -297 1246 -297 1292 q -240 1193 -297 1193 q -103 1201 -194 1193 q 33 1210 -8 1210 q 258 1137 181 1210 q 336 943 336 1064 l 336 929 l 456 929 l 456 772 z "},"ो":{"ha":456,"x_min":-293,"x_max":456,"o":"m 456 772 l 325 772 l 325 0 l 131 0 l 131 772 l -28 772 l -28 929 l 115 929 l 81 1007 q -15 1160 35 1111 q -135 1208 -64 1208 q -260 1190 -200 1208 l -293 1339 q -136 1368 -222 1368 q 81 1288 -7 1368 q 251 1029 169 1208 l 297 929 l 456 929 l 456 772 z "},"ौ":{"ha":456,"x_min":-303,"x_max":456,"o":"m 456 772 l 325 772 l 325 0 l 131 0 l 131 772 l -28 772 l -28 929 l 57 929 l 26 976 q -135 1071 -33 1071 q -269 1043 -206 1071 l -303 1192 q -136 1232 -224 1232 q 72 1142 -22 1232 q 3 1267 31 1225 q -56 1329 -25 1310 q -133 1349 -87 1349 q -235 1331 -187 1349 l -268 1479 q -112 1508 -199 1508 q 42 1463 -22 1508 q 165 1317 107 1418 q 293 1029 222 1215 l 331 929 l 456 929 l 456 772 z "},"ऻ":{"ha":456,"x_min":-28,"x_max":456,"o":"m 456 772 l 325 772 l 325 0 l 131 0 l 131 772 l -28 772 l -28 929 l 135 929 l 135 1296 l 329 1296 l 329 929 l 456 929 l 456 772 z "},"क":{"ha":1214,"x_min":-28,"x_max":1214,"o":"m 714 772 l 714 557 q 910 632 815 632 q 1050 597 990 632 q 1142 504 1110 561 q 1174 385 1174 447 q 1035 42 1174 210 l 854 146 q 979 392 979 297 q 958 451 979 429 q 900 472 936 472 q 807 444 851 472 q 714 361 763 415 l 714 0 l 519 0 l 519 213 q 424 158 472 179 q 318 138 376 138 q 172 172 235 138 q 76 265 110 207 q 42 394 42 324 q 75 528 42 468 q 169 625 108 589 q 308 661 229 661 q 426 640 372 661 q 519 589 481 619 l 519 772 l -28 772 l -28 929 l 1214 929 l 1214 772 l 714 772 m 340 296 q 431 325 385 296 q 519 401 478 354 l 519 404 q 437 476 482 449 q 346 503 392 503 q 267 472 299 503 q 236 394 236 442 q 265 324 236 351 q 340 296 293 296 z "},"ख":{"ha":1264,"x_min":-28,"x_max":1264,"o":"m 1264 772 l 1133 772 l 1133 -15 l 939 -15 l 939 90 q 759 2 857 33 q 568 -29 661 -29 q 303 47 419 -29 q 124 261 186 122 q 68 581 61 400 l 236 604 q 238 501 235 567 q 272 490 253 490 q 315 516 296 490 q 333 590 333 542 q 318 682 333 635 q 276 772 303 729 l -28 772 l -28 929 l 1264 929 l 1264 772 m 939 772 l 471 772 q 526 572 526 679 q 497 439 526 493 q 421 359 467 385 q 325 333 375 333 q 271 343 297 333 q 390 182 311 235 q 568 129 469 129 q 761 163 665 129 q 939 263 857 197 l 939 307 q 789 251 867 251 q 669 281 721 251 q 589 359 617 311 q 561 458 561 407 q 592 578 561 525 q 676 660 624 631 q 789 689 728 689 q 939 629 874 689 l 939 772 m 939 471 q 819 547 883 547 q 761 526 783 547 q 739 468 739 504 q 760 413 739 433 q 817 393 781 393 q 878 413 846 393 q 939 467 910 432 l 939 471 z "},"ग":{"ha":944,"x_min":-28,"x_max":944,"o":"m 944 772 l 814 772 l 814 0 l 621 0 l 621 772 l 400 772 l 400 382 q 362 252 400 297 q 251 207 324 207 q 163 232 204 207 q 98 301 122 257 q 74 401 74 346 q 86 479 74 440 l 207 479 l 207 772 l -28 772 l -28 929 l 944 929 l 944 772 z "},"घ":{"ha":1029,"x_min":-28,"x_max":1029,"o":"m 1029 772 l 899 772 l 899 0 l 704 0 l 704 183 q 476 114 593 114 q 325 147 392 114 q 221 240 258 179 q 183 381 183 300 q 244 535 183 467 q 75 725 75 618 q 79 772 75 750 l -28 772 l -28 929 l 1029 929 l 1029 772 m 704 772 l 292 772 q 272 701 272 736 q 351 607 272 649 q 464 629 404 629 q 550 614 517 629 l 538 463 q 483 471 510 471 q 407 442 436 471 q 378 365 378 414 q 406 297 378 321 q 475 272 435 272 q 704 372 589 272 l 704 772 z "},"ङ":{"ha":1100,"x_min":-28,"x_max":1101,"o":"m 688 460 q 778 364 740 425 q 815 238 815 303 q 727 54 815 122 q 479 -14 639 -14 q 241 33 351 -14 q 46 164 131 79 l 125 288 q 464 143 285 143 q 582 167 543 143 q 621 225 621 192 q 600 286 621 254 q 422 265 510 265 q 191 326 269 265 q 113 481 113 388 q 173 623 113 565 q 340 681 233 681 l 515 681 l 515 772 l -28 772 l -28 929 l 1100 929 l 1100 772 l 708 772 l 708 522 l 369 522 q 307 475 307 522 q 419 424 307 424 q 555 433 481 424 q 688 460 629 443 m 975 583 q 1065 547 1028 583 q 1101 457 1101 510 q 1065 368 1101 406 q 975 331 1028 331 q 886 368 924 331 q 849 457 849 406 q 886 547 849 510 q 975 583 924 583 z "},"च":{"ha":975,"x_min":-28,"x_max":975,"o":"m 975 772 l 844 772 l 844 0 l 650 0 l 650 201 q 399 108 529 108 q 251 140 314 108 q 154 225 188 171 q 121 346 121 279 q 178 494 121 428 l 24 494 l 24 651 l 524 651 l 524 506 l 518 506 q 369 447 422 492 q 315 346 315 403 q 338 288 315 308 q 397 268 360 268 q 518 301 451 268 q 650 400 585 333 l 650 772 l -28 772 l -28 929 l 975 929 l 975 772 z "},"छ":{"ha":1146,"x_min":-28,"x_max":1146,"o":"m 886 772 l 886 647 q 990 553 951 615 q 1028 406 1028 492 q 986 246 1028 326 q 1114 35 1114 158 q 1010 -269 1114 -114 l 825 -169 q 912 -54 882 -104 q 942 46 942 -4 q 896 122 942 83 q 692 -18 810 35 q 454 -71 574 -71 q 225 -1 311 -71 q 139 189 139 69 q 176 314 139 257 q 40 493 40 394 q 70 594 40 549 q 156 667 100 640 q 292 694 213 694 q 424 672 372 694 l 404 517 q 313 536 361 536 q 256 519 276 536 q 235 471 235 501 q 278 401 235 436 q 414 433 344 433 q 500 418 467 433 l 488 267 q 433 275 464 275 q 360 247 386 275 q 333 176 333 218 q 364 111 333 133 q 442 89 394 89 q 603 125 524 89 q 739 219 682 161 q 578 338 636 279 q 521 481 521 397 q 566 615 521 564 q 692 676 611 665 l 692 772 l -28 772 l -28 929 l 1146 929 l 1146 772 l 886 772 m 715 458 q 742 398 715 425 q 819 343 769 371 q 833 419 833 385 q 814 494 833 468 q 767 521 794 521 q 731 504 746 521 q 715 458 715 488 z "},"ज":{"ha":1099,"x_min":-28,"x_max":1099,"o":"m 1099 772 l 968 772 l 968 0 l 774 0 l 774 481 l 597 481 q 700 286 700 388 q 669 174 700 224 q 585 99 638 125 q 472 72 532 72 q 187 201 292 72 q 22 578 82 329 l 175 622 q 254 399 210 488 q 344 270 299 311 q 429 229 389 229 q 506 310 506 229 q 465 413 506 361 q 344 531 424 465 l 392 638 l 774 638 l 774 772 l -28 772 l -28 929 l 1099 929 l 1099 772 z "},"झ":{"ha":1182,"x_min":-28,"x_max":1181,"o":"m 1181 772 l 1051 772 l 1051 0 l 857 0 l 857 251 q 749 232 804 232 q 710 235 735 232 q 629 58 704 129 q 438 -29 554 -12 l 571 -226 l 397 -318 l 265 -26 q 122 28 178 -11 q 67 117 67 68 q 117 202 67 168 q 256 238 168 236 l 333 124 q 353 122 340 122 q 469 156 424 122 q 515 239 515 189 q 497 300 515 268 q 351 276 422 276 q 195 306 258 276 q 101 385 132 336 q 69 496 69 435 q 124 644 69 585 q 275 703 179 703 l 417 703 l 417 772 l -28 772 l -28 929 l 1181 929 l 1181 772 m 857 772 l 610 772 l 610 546 l 303 546 q 275 531 286 546 q 264 492 264 515 q 285 449 264 464 q 349 435 307 435 q 467 447 400 435 q 585 481 533 460 q 660 403 625 453 q 749 392 704 392 q 857 414 808 392 l 857 772 z "},"ञ":{"ha":1144,"x_min":-28,"x_max":1144,"o":"m 1144 772 l 1014 772 l 1014 0 l 819 0 l 819 328 q 731 314 775 314 q 686 318 711 314 q 582 203 656 246 q 411 160 508 160 q 199 234 297 160 q 3 465 101 308 l 118 542 q 258 372 193 425 q 396 318 322 318 q 481 344 450 318 q 511 410 511 371 q 489 477 511 451 q 424 503 467 503 q 378 494 397 503 q 333 465 360 485 l 228 583 q 325 641 275 621 q 438 661 375 661 q 604 613 531 661 q 699 475 678 565 q 731 472 721 472 q 819 486 775 472 l 819 772 l -28 772 l -28 929 l 1144 929 l 1144 772 z "},"ट":{"ha":861,"x_min":-28,"x_max":861,"o":"m 660 511 q 372 452 464 497 q 281 328 281 407 q 333 222 281 258 q 465 185 386 185 q 611 208 543 185 q 747 274 679 231 l 818 132 q 647 53 733 78 q 457 28 561 28 q 268 64 351 28 q 138 168 185 100 q 90 328 90 236 q 183 540 90 460 q 467 651 275 621 l 467 772 l -28 772 l -28 929 l 861 929 l 861 772 l 660 772 l 660 511 z "},"ठ":{"ha":928,"x_min":-28,"x_max":928,"o":"m 928 772 l 660 772 q 669 718 669 749 q 653 626 669 671 q 786 497 733 569 q 839 340 839 425 q 788 178 839 250 q 649 65 736 106 q 457 24 561 24 q 269 60 353 24 q 138 166 186 97 q 90 326 90 235 q 467 656 90 596 q 476 717 476 690 q 465 772 476 743 l -28 772 l -28 929 l 928 929 l 928 772 m 460 181 q 551 201 507 181 q 621 258 594 222 q 647 340 647 294 q 556 503 647 435 q 281 326 281 467 q 333 218 281 256 q 460 181 385 181 z "},"ड":{"ha":856,"x_min":-28,"x_max":856,"o":"m 369 522 q 307 475 307 522 q 419 424 307 424 q 555 433 481 424 q 688 460 629 443 q 778 364 740 425 q 815 238 815 303 q 727 54 815 122 q 479 -14 639 -14 q 241 33 351 -14 q 46 164 131 79 l 125 288 q 464 143 285 143 q 582 167 543 143 q 621 225 621 192 q 600 286 621 254 q 422 265 510 265 q 191 326 269 265 q 113 481 113 388 q 173 623 113 565 q 340 681 233 681 l 515 681 l 515 772 l -28 772 l -28 929 l 856 929 l 856 772 l 708 772 l 708 522 l 369 522 z "},"ढ":{"ha":856,"x_min":-28,"x_max":856,"o":"m 432 517 q 306 475 347 517 q 264 363 264 433 q 293 231 264 289 q 369 139 322 174 q 347 228 347 183 q 376 323 347 281 q 451 388 404 365 q 554 411 499 411 q 669 383 617 411 q 752 306 721 356 q 783 193 783 256 q 743 60 783 115 q 640 -24 703 4 q 510 -51 576 -51 q 296 3 397 -51 q 132 154 194 57 q 69 372 69 251 q 153 591 69 507 q 399 675 236 675 l 481 675 l 481 772 l -28 772 l -28 929 l 856 929 l 856 772 l 674 772 l 674 517 l 432 517 m 565 264 q 523 244 539 264 q 507 193 507 225 q 531 107 507 143 q 599 141 575 117 q 624 199 624 165 q 607 246 624 228 q 565 264 590 264 z "},"ण":{"ha":1106,"x_min":-28,"x_max":1106,"o":"m 1106 772 l 975 772 l 975 0 l 781 0 l 781 772 l 649 772 l 649 460 q 576 274 649 339 q 374 208 503 208 q 171 274 244 208 q 97 460 97 339 l 97 772 l -28 772 l -28 929 l 1106 929 l 1106 772 m 454 772 l 292 772 l 292 460 q 374 367 292 367 q 433 390 413 367 q 454 460 454 413 l 454 772 z "},"त":{"ha":892,"x_min":-28,"x_max":892,"o":"m 892 772 l 761 772 l 761 0 l 567 0 l 567 479 l 372 479 q 292 451 322 479 q 261 374 261 424 q 306 222 261 294 q 443 58 351 150 l 324 -46 q 142 168 218 44 q 67 410 67 292 q 136 576 67 514 q 347 638 206 638 l 567 638 l 567 772 l -28 772 l -28 929 l 892 929 l 892 772 z "},"थ":{"ha":1003,"x_min":57,"x_max":1003,"o":"m 1003 772 l 872 772 l 872 0 l 678 0 l 678 217 q 577 165 633 183 q 460 146 521 146 q 224 231 319 146 q 92 468 128 315 q 229 526 175 493 q 101 624 146 564 q 57 761 57 685 q 121 903 57 850 q 285 957 185 957 q 417 928 356 957 q 515 842 478 900 q 551 700 551 783 q 490 524 551 606 q 313 389 429 443 q 460 304 353 304 q 573 331 515 304 q 678 406 631 357 l 678 772 l 590 772 l 590 929 l 1003 929 l 1003 772 m 303 799 q 266 785 281 799 q 251 743 251 771 q 274 684 251 713 q 339 638 296 656 q 357 721 357 675 q 342 777 357 756 q 303 799 328 799 z "},"द":{"ha":869,"x_min":-28,"x_max":869,"o":"m 433 517 q 319 483 356 517 q 282 393 282 449 q 308 302 282 340 q 377 244 335 264 q 464 224 419 224 q 496 225 485 224 l 453 324 q 517 385 478 363 q 597 407 556 407 q 699 367 661 407 q 738 269 738 328 q 692 153 738 206 l 828 -47 l 653 -139 l 558 79 q 461 67 515 67 q 283 106 368 67 q 144 219 197 144 q 90 393 90 293 q 168 599 90 522 q 401 675 246 675 l 475 675 l 475 772 l -28 772 l -28 929 l 869 929 l 869 772 l 668 772 l 668 517 l 433 517 z "},"ध":{"ha":993,"x_min":58,"x_max":992,"o":"m 992 772 l 863 772 l 863 0 l 668 0 l 668 183 q 440 114 557 114 q 289 147 356 114 q 185 240 222 179 q 147 381 147 300 q 213 539 147 474 q 58 768 58 643 q 87 867 58 821 q 166 942 115 914 q 282 969 217 969 q 394 953 350 969 q 472 907 439 936 l 415 768 q 317 810 368 810 q 270 792 288 810 q 253 747 253 775 q 274 683 253 718 q 339 615 294 649 q 428 629 381 629 q 514 614 481 629 l 501 463 q 447 471 474 471 q 371 442 400 471 q 342 365 342 414 q 370 297 342 321 q 439 272 399 272 q 668 372 553 272 l 668 772 l 540 772 l 540 929 l 992 929 l 992 772 z "},"न":{"ha":889,"x_min":-28,"x_max":889,"o":"m 889 772 l 758 772 l 758 0 l 565 0 l 565 400 l 311 400 l 311 279 q 231 267 275 267 q 102 310 153 267 q 51 415 51 353 q 93 520 51 483 q 214 557 135 557 l 565 557 l 565 772 l -28 772 l -28 929 l 889 929 l 889 772 z "},"ऩ":{"ha":889,"x_min":-28,"x_max":889,"o":"m 0 0 m 889 772 l 758 772 l 758 0 l 565 0 l 565 400 l 311 400 l 311 279 q 231 267 275 267 q 102 310 153 267 q 51 415 51 353 q 93 520 51 483 q 214 557 135 557 l 565 557 l 565 772 l -28 772 l -28 929 l 889 929 l 889 772 m 169 17 q 206 106 169 68 q 296 143 243 143 q 385 106 349 143 q 422 17 422 68 q 385 -73 422 -36 q 296 -110 349 -110 q 206 -73 243 -110 q 169 17 169 -36 z "},"प":{"ha":849,"x_min":-28,"x_max":849,"o":"m 849 772 l 718 772 l 718 0 l 524 0 l 524 256 q 365 213 444 213 q 165 281 233 213 q 97 486 97 350 l 97 772 l -28 772 l -28 929 l 849 929 l 849 772 m 524 772 l 292 772 l 292 479 q 381 371 292 371 q 524 418 456 371 l 524 772 z "},"फ":{"ha":1215,"x_min":-28,"x_max":1215,"o":"m 718 558 q 911 631 819 631 q 1051 596 992 631 q 1143 504 1111 561 q 1175 385 1175 447 q 1036 42 1175 210 l 856 146 q 981 392 981 297 q 959 451 981 429 q 901 472 938 472 q 718 379 831 472 l 718 0 l 524 0 l 524 256 q 365 213 444 213 q 165 281 233 213 q 97 486 97 350 l 97 772 l -28 772 l -28 929 l 1215 929 l 1215 772 l 718 772 l 718 558 m 381 371 q 524 418 456 371 l 524 772 l 292 772 l 292 479 q 381 371 292 371 z "},"ब":{"ha":900,"x_min":-28,"x_max":915,"o":"m 915 772 l 785 772 l 785 0 l 590 0 l 590 203 q 349 110 468 110 q 185 147 254 110 q 81 249 117 185 q 44 390 44 313 q 82 540 44 472 q 190 647 119 607 q 356 686 261 686 q 485 658 425 686 q 590 590 546 631 l 590 772 l -28 772 l -28 929 l 915 929 l 915 772 m 500 321 q 590 401 551 357 l 590 403 q 490 494 544 460 q 375 528 435 528 l 364 528 l 500 321 m 239 394 q 271 305 239 340 q 360 269 303 269 q 431 283 392 269 l 288 500 q 251 453 264 481 q 239 394 239 426 z "},"भ":{"ha":1114,"x_min":57,"x_max":1113,"o":"m 1113 772 l 983 772 l 983 0 l 789 0 l 789 279 l 549 279 l 549 178 q 443 160 494 160 q 341 181 386 160 q 271 238 296 203 q 246 314 246 274 q 276 394 246 360 q 354 435 306 429 l 354 485 q 130 591 203 515 q 57 760 57 667 q 124 905 57 853 q 303 957 190 957 q 484 894 419 957 q 549 694 549 831 l 549 436 l 789 436 l 789 772 l 628 772 l 628 929 l 1113 929 l 1113 772 m 251 742 q 278 676 251 706 q 354 628 304 647 l 354 719 q 303 799 354 799 q 265 783 279 799 q 251 742 251 768 z "},"म":{"ha":933,"x_min":-28,"x_max":933,"o":"m 933 772 l 803 772 l 803 0 l 608 0 l 608 307 l 353 307 l 353 206 q 247 188 299 188 q 145 209 190 188 q 75 266 100 231 q 50 342 50 301 q 80 422 50 388 q 158 463 110 457 l 158 772 l -28 772 l -28 929 l 933 929 l 933 772 m 608 772 l 353 772 l 353 464 l 608 464 l 608 772 z "},"य":{"ha":914,"x_min":-28,"x_max":914,"o":"m 914 772 l 783 772 l 783 0 l 589 0 l 589 217 q 490 165 546 183 q 374 146 433 146 q 140 235 236 146 q 14 486 43 325 q 181 556 131 521 q 231 639 231 592 q 154 772 231 711 l -28 772 l -28 929 l 914 929 l 914 772 m 589 772 l 365 772 q 421 636 421 714 q 372 501 421 565 q 228 392 324 436 q 374 304 276 304 q 486 331 429 304 q 589 404 543 357 l 589 772 z "},"र":{"ha":635,"x_min":-28,"x_max":635,"o":"m 635 772 l 472 772 q 531 569 531 681 q 498 437 531 490 q 415 357 465 383 q 313 331 365 331 q 268 335 289 331 q 338 250 292 296 l 535 56 l 421 -58 l 264 96 q 124 260 171 186 q 63 404 78 335 q 43 578 47 474 l 214 601 q 221 499 215 558 q 261 489 240 489 q 314 514 290 489 q 338 589 338 539 q 276 772 338 679 l -28 772 l -28 929 l 635 929 l 635 772 z "},"ऱ":{"ha":635,"x_min":-28,"x_max":635,"o":"m 0 0 m 635 772 l 472 772 q 531 569 531 681 q 498 437 531 490 q 415 357 465 383 q 313 331 365 331 q 268 335 289 331 q 338 250 292 296 l 535 56 l 421 -58 l 264 96 q 124 260 171 186 q 63 404 78 335 q 43 578 47 474 l 214 601 q 221 499 215 558 q 261 489 240 489 q 314 514 290 489 q 338 589 338 539 q 276 772 338 679 l -28 772 l -28 929 l 635 929 l 635 772 m 13 -83 q 49 6 13 -32 q 139 43 86 43 q 228 6 192 43 q 265 -83 265 -32 q 228 -173 265 -136 q 139 -210 192 -210 q 49 -173 86 -210 q 13 -83 13 -136 z "},"ल":{"ha":1140,"x_min":-28,"x_max":1140,"o":"m 1140 772 l 1010 772 l 1010 0 l 815 0 l 815 465 q 778 472 797 472 q 678 408 719 472 q 615 232 636 343 l 421 268 q 472 440 435 363 q 356 496 419 496 q 282 465 314 496 q 250 378 250 433 q 301 213 250 289 q 461 40 353 136 l 350 -72 q 135 158 215 38 q 56 397 56 279 q 133 588 56 521 q 333 656 210 656 q 456 625 401 656 q 549 547 510 594 q 642 610 590 589 q 750 632 694 632 q 815 625 783 632 l 815 772 l -28 772 l -28 929 l 1140 929 l 1140 772 z "},"ळ":{"ha":1089,"x_min":-28,"x_max":1089,"o":"m 889 772 l 889 675 q 1013 573 967 644 q 1060 401 1060 501 q 1022 245 1060 311 q 920 144 983 179 q 785 108 857 108 q 653 141 704 108 q 561 229 603 174 q 342 110 472 110 q 197 145 261 110 q 94 247 132 181 q 56 404 56 314 q 92 561 56 494 q 190 663 128 628 q 331 699 253 699 q 463 665 411 699 q 554 576 515 632 q 694 685 617 660 l 694 772 l -28 772 l -28 929 l 1089 929 l 1089 772 l 889 772 m 339 268 q 406 303 379 268 q 460 401 433 338 q 478 442 471 429 q 418 513 450 486 q 339 540 386 540 q 276 503 301 540 q 250 404 250 465 q 276 306 250 343 q 339 268 301 268 m 775 267 q 840 304 814 267 q 865 401 865 342 q 840 501 865 463 q 775 539 814 539 q 709 503 736 539 q 656 404 682 468 q 638 363 644 376 q 696 293 664 319 q 775 267 728 267 z "},"ऴ":{"ha":1089,"x_min":-28,"x_max":1089,"o":"m 0 0 m 889 772 l 889 675 q 1013 573 967 644 q 1060 401 1060 501 q 1022 245 1060 311 q 920 144 983 179 q 785 108 857 108 q 653 141 704 108 q 561 229 603 174 q 342 110 472 110 q 197 145 261 110 q 94 247 132 181 q 56 404 56 314 q 92 561 56 494 q 190 663 128 628 q 331 699 253 699 q 463 665 411 699 q 554 576 515 632 q 694 685 617 660 l 694 772 l -28 772 l -28 929 l 1089 929 l 1089 772 l 889 772 m 339 268 q 406 303 379 268 q 460 401 433 338 q 478 442 471 429 q 418 513 450 486 q 339 540 386 540 q 276 503 301 540 q 250 404 250 465 q 276 306 250 343 q 339 268 301 268 m 775 267 q 840 304 814 267 q 865 401 865 342 q 840 501 865 463 q 775 539 814 539 q 709 503 736 539 q 656 404 682 468 q 638 363 644 376 q 696 293 664 319 q 775 267 728 267 m 435 -58 q 472 31 435 -7 q 561 68 508 68 q 651 31 614 68 q 688 -58 688 -7 q 651 -148 688 -111 q 561 -185 614 -185 q 472 -148 508 -185 q 435 -58 435 -111 z "},"व":{"ha":915,"x_min":-28,"x_max":915,"o":"m 915 772 l 785 772 l 785 0 l 590 0 l 590 203 q 349 110 468 110 q 185 147 254 110 q 81 249 117 185 q 44 390 44 313 q 82 540 44 472 q 190 647 119 607 q 356 686 261 686 q 485 658 425 686 q 590 590 546 631 l 590 772 l -28 772 l -28 929 l 915 929 l 915 772 m 360 269 q 478 306 415 269 q 590 401 540 343 l 590 403 q 490 494 544 460 q 375 528 435 528 q 276 490 314 528 q 239 394 239 451 q 271 305 239 340 q 360 269 303 269 z "},"श":{"ha":1135,"x_min":-28,"x_max":1135,"o":"m 1135 772 l 1006 772 l 1006 0 l 811 0 l 811 772 l 639 772 q 674 617 674 706 q 632 459 674 536 q 526 320 590 382 q 390 225 461 258 l 549 -4 l 375 -96 l 240 197 q 101 243 156 206 q 46 332 46 281 q 96 420 46 388 q 233 453 146 453 l 293 365 q 394 439 349 390 q 217 555 281 485 q 154 711 154 625 q 163 772 154 746 l -28 772 l -28 929 l 1135 929 l 1135 772 m 478 639 q 459 735 478 697 q 406 772 440 772 q 367 754 383 772 q 350 700 350 736 q 382 627 350 661 q 468 567 414 593 q 478 639 478 608 z "},"ष":{"ha":876,"x_min":-28,"x_max":876,"o":"m 876 772 l 746 772 l 746 0 l 551 0 l 551 206 q 379 160 467 160 q 169 231 242 160 q 97 444 97 303 l 97 772 l -28 772 l -28 929 l 876 929 l 876 772 m 551 772 l 297 772 l 551 501 l 551 772 m 292 438 q 394 318 292 318 q 473 333 436 318 q 549 372 510 347 l 292 644 l 292 438 z "},"स":{"ha":1067,"x_min":-28,"x_max":1068,"o":"m 1068 772 l 936 772 l 936 0 l 742 0 l 742 279 q 619 254 685 254 q 492 275 550 254 q 383 343 435 296 q 313 331 349 331 q 268 335 289 331 q 338 250 292 296 l 535 56 l 421 -58 l 264 96 q 124 260 171 186 q 63 404 78 335 q 43 578 47 474 l 214 601 q 221 499 215 558 q 261 489 240 489 q 314 514 290 489 q 338 589 338 539 q 276 772 338 679 l -28 772 l -28 929 l 1068 929 l 1068 772 m 742 772 l 472 772 q 531 569 531 681 q 499 439 531 496 q 619 413 558 413 q 742 442 692 413 l 742 772 z "},"ह":{"ha":839,"x_min":-28,"x_max":839,"o":"m 353 524 q 298 512 314 524 q 282 475 282 500 q 310 418 282 443 q 472 449 379 449 q 625 416 558 449 q 728 327 692 383 q 764 203 764 271 q 743 113 764 156 q 696 42 722 71 l 533 121 q 571 208 571 165 q 544 268 571 244 q 472 292 517 292 q 374 259 411 292 q 338 175 338 226 q 367 93 338 135 q 465 19 397 51 q 643 -21 533 -12 l 603 -171 q 356 -112 460 -161 q 199 15 253 -64 q 144 193 144 93 q 188 322 144 263 q 89 503 89 394 q 134 632 89 583 q 283 681 179 681 l 492 681 l 492 772 l -28 772 l -28 929 l 839 929 l 839 772 l 685 772 l 685 524 l 353 524 z "},"क़":{"ha":1214,"x_min":-28,"x_max":1214,"o":"m 0 0 m 714 772 l 714 557 q 910 632 815 632 q 1050 597 990 632 q 1142 504 1110 561 q 1174 385 1174 447 q 1035 42 1174 210 l 854 146 q 979 392 979 297 q 958 451 979 429 q 900 472 936 472 q 807 444 851 472 q 714 361 763 415 l 714 0 l 519 0 l 519 213 q 424 158 472 179 q 318 138 376 138 q 172 172 235 138 q 76 265 110 207 q 42 394 42 324 q 75 528 42 468 q 169 625 108 589 q 308 661 229 661 q 426 640 372 661 q 519 589 481 619 l 519 772 l -28 772 l -28 929 l 1214 929 l 1214 772 l 714 772 m 340 296 q 431 325 385 296 q 519 401 478 354 l 519 404 q 437 476 482 449 q 346 503 392 503 q 267 472 299 503 q 236 394 236 442 q 265 324 236 351 q 340 296 293 296 m 132 -57 q 169 32 132 -6 q 258 69 206 69 q 348 32 311 69 q 385 -57 385 -6 q 348 -147 385 -110 q 258 -183 311 -183 q 169 -147 206 -183 q 132 -57 132 -110 z "},"ख़":{"ha":1264,"x_min":-28,"x_max":1264,"o":"m 0 0 m 1264 772 l 1133 772 l 1133 -15 l 939 -15 l 939 90 q 759 2 857 33 q 568 -29 661 -29 q 303 47 419 -29 q 124 261 186 122 q 68 581 61 400 l 236 604 q 238 501 235 567 q 272 490 253 490 q 315 516 296 490 q 333 590 333 542 q 318 682 333 635 q 276 772 303 729 l -28 772 l -28 929 l 1264 929 l 1264 772 m 939 772 l 471 772 q 526 572 526 679 q 497 439 526 493 q 421 359 467 385 q 325 333 375 333 q 271 343 297 333 q 390 182 311 235 q 568 129 469 129 q 761 163 665 129 q 939 263 857 197 l 939 307 q 789 251 867 251 q 669 281 721 251 q 589 359 617 311 q 561 458 561 407 q 592 578 561 525 q 676 660 624 631 q 789 689 728 689 q 939 629 874 689 l 939 772 m 939 471 q 819 547 883 547 q 761 526 783 547 q 739 468 739 504 q 760 413 739 433 q 817 393 781 393 q 878 413 846 393 q 939 467 910 432 l 939 471 m 88 -137 q 124 -49 88 -86 q 214 -11 161 -11 q 303 -49 267 -11 q 340 -137 340 -86 q 303 -227 340 -190 q 214 -264 267 -264 q 124 -227 161 -264 q 88 -137 88 -190 z "},"ग़":{"ha":944,"x_min":-28,"x_max":944,"o":"m 0 0 m 944 772 l 814 772 l 814 0 l 621 0 l 621 772 l 400 772 l 400 382 q 362 252 400 297 q 251 207 324 207 q 163 232 204 207 q 98 301 122 257 q 74 401 74 346 q 86 479 74 440 l 207 479 l 207 772 l -28 772 l -28 929 l 944 929 l 944 772 m 93 -11 q 130 78 93 40 q 219 115 167 115 q 309 78 272 115 q 346 -11 346 40 q 309 -101 346 -64 q 219 -137 272 -137 q 130 -101 167 -137 q 93 -11 93 -64 z "},"ज़":{"ha":1099,"x_min":-28,"x_max":1099,"o":"m 0 0 m 1099 772 l 968 772 l 968 0 l 774 0 l 774 481 l 597 481 q 700 286 700 388 q 669 174 700 224 q 585 99 638 125 q 472 72 532 72 q 187 201 292 72 q 22 578 82 329 l 175 622 q 254 399 210 488 q 344 270 299 311 q 429 229 389 229 q 506 310 506 229 q 465 413 506 361 q 344 531 424 465 l 392 638 l 774 638 l 774 772 l -28 772 l -28 929 l 1099 929 l 1099 772 m 113 -103 q 149 -14 113 -51 q 239 24 186 24 q 328 -14 292 24 q 365 -103 365 -51 q 328 -192 365 -156 q 239 -229 292 -229 q 149 -192 186 -229 q 113 -103 113 -156 z "},"ड़":{"ha":856,"x_min":-28,"x_max":856,"o":"m 0 0 m 369 522 q 307 475 307 522 q 419 424 307 424 q 555 433 481 424 q 688 460 629 443 q 778 364 740 425 q 815 238 815 303 q 727 54 815 122 q 479 -14 639 -14 q 241 33 351 -14 q 46 164 131 79 l 125 288 q 464 143 285 143 q 582 167 543 143 q 621 225 621 192 q 600 286 621 254 q 422 265 510 265 q 191 326 269 265 q 113 481 113 388 q 173 623 113 565 q 340 681 233 681 l 515 681 l 515 772 l -28 772 l -28 929 l 856 929 l 856 772 l 708 772 l 708 522 l 369 522 m 347 -210 q 384 -121 347 -158 q 474 -83 421 -83 q 563 -121 526 -83 q 600 -210 600 -158 q 563 -299 600 -262 q 474 -336 526 -336 q 384 -299 421 -336 q 347 -210 347 -262 z "},"ढ़":{"ha":856,"x_min":-28,"x_max":856,"o":"m 0 0 m 432 517 q 306 475 347 517 q 264 363 264 433 q 293 231 264 289 q 369 139 322 174 q 347 228 347 183 q 376 323 347 281 q 451 388 404 365 q 554 411 499 411 q 669 383 617 411 q 752 306 721 356 q 783 193 783 256 q 743 60 783 115 q 640 -24 703 4 q 510 -51 576 -51 q 296 3 397 -51 q 132 154 194 57 q 69 372 69 251 q 153 591 69 507 q 399 675 236 675 l 481 675 l 481 772 l -28 772 l -28 929 l 856 929 l 856 772 l 674 772 l 674 517 l 432 517 m 565 264 q 523 244 539 264 q 507 193 507 225 q 531 107 507 143 q 599 141 575 117 q 624 199 624 165 q 607 246 624 228 q 565 264 590 264 m 349 -253 q 385 -164 349 -201 q 475 -126 422 -126 q 565 -164 528 -126 q 601 -253 601 -201 q 565 -342 601 -306 q 475 -379 528 -379 q 385 -342 422 -379 q 349 -253 349 -306 z "},"फ़":{"ha":1215,"x_min":-28,"x_max":1215,"o":"m 0 0 m 718 558 q 911 631 819 631 q 1051 596 992 631 q 1143 504 1111 561 q 1175 385 1175 447 q 1036 42 1175 210 l 856 146 q 981 392 981 297 q 959 451 981 429 q 901 472 938 472 q 718 379 831 472 l 718 0 l 524 0 l 524 256 q 365 213 444 213 q 165 281 233 213 q 97 486 97 350 l 97 772 l -28 772 l -28 929 l 1215 929 l 1215 772 l 718 772 l 718 558 m 381 371 q 524 418 456 371 l 524 772 l 292 772 l 292 479 q 381 371 292 371 m 83 25 q 120 114 83 76 q 210 151 157 151 q 299 114 263 151 q 336 25 336 76 q 299 -65 336 -28 q 210 -101 263 -101 q 120 -65 157 -101 q 83 25 83 -28 z "},"य़":{"ha":914,"x_min":-28,"x_max":914,"o":"m 0 0 m 914 772 l 783 772 l 783 0 l 589 0 l 589 217 q 490 165 546 183 q 374 146 433 146 q 140 235 236 146 q 14 486 43 325 q 181 556 131 521 q 231 639 231 592 q 154 772 231 711 l -28 772 l -28 929 l 914 929 l 914 772 m 589 772 l 365 772 q 421 636 421 714 q 372 501 421 565 q 228 392 324 436 q 374 304 276 304 q 486 331 429 304 q 589 404 543 357 l 589 772 m -25 1 q 12 90 -25 53 q 101 128 49 128 q 191 90 154 128 q 228 1 228 53 q 191 -88 228 -51 q 101 -125 154 -125 q 12 -88 49 -125 q -25 1 -25 -51 z "},"ॹ":{"ha":1099,"x_min":-28,"x_max":1099,"o":"m 0 0 m 1099 772 l 968 772 l 968 0 l 774 0 l 774 481 l 597 481 q 700 286 700 388 q 669 174 700 224 q 585 99 638 125 q 472 72 532 72 q 187 201 292 72 q 22 578 82 329 l 175 622 q 254 399 210 488 q 344 270 299 311 q 429 229 389 229 q 506 310 506 229 q 465 413 506 361 q 344 531 424 465 l 392 638 l 774 638 l 774 772 l -28 772 l -28 929 l 1099 929 l 1099 772 m 132 -78 q 169 11 132 -26 q 258 49 206 49 q 348 11 311 49 q 385 -78 385 -26 q 348 -167 385 -131 q 258 -204 311 -204 q 169 -167 206 -204 q 132 -78 132 -131 m 488 -78 q 524 11 488 -26 q 614 49 561 49 q 703 11 667 49 q 740 -78 740 -26 q 703 -167 740 -131 q 614 -204 667 -204 q 524 -167 561 -204 q 488 -78 488 -131 m 310 -324 q 347 -235 310 -272 q 436 -197 383 -197 q 526 -235 489 -197 q 563 -324 563 -272 q 526 -413 563 -376 q 436 -450 489 -450 q 347 -413 383 -450 q 310 -324 310 -376 z "},"ॺ":{"ha":914,"x_min":-28,"x_max":914,"o":"m 914 772 l 783 772 l 783 0 l 589 0 l 589 217 q 490 165 546 183 q 374 146 433 146 q 140 235 236 146 q 14 486 43 325 q 181 556 131 521 q 231 639 231 592 q 154 772 231 711 l -28 772 l -28 929 l 914 929 l 914 772 m 589 772 l 365 772 l 374 764 l 375 764 l 589 454 l 589 772 m 228 392 q 374 304 276 304 q 460 320 415 304 q 544 364 504 336 l 407 563 q 228 392 367 456 z "},"ॻ":{"ha":944,"x_min":-28,"x_max":944,"o":"m 944 772 l 814 772 l 814 0 l 813 0 l 813 -115 l 124 -115 l 124 42 l 621 42 l 621 772 l 400 772 l 400 382 q 362 252 400 297 q 251 207 324 207 q 163 232 204 207 q 98 301 122 257 q 74 401 74 346 q 86 479 74 440 l 207 479 l 207 772 l -28 772 l -28 929 l 944 929 l 944 772 z "},"ॼ":{"ha":1099,"x_min":-28,"x_max":1099,"o":"m 968 772 l 968 13 l 969 13 l 969 -146 l 57 -146 l 57 13 l 774 13 l 774 481 l 597 481 q 700 286 700 388 q 669 174 700 224 q 585 99 638 125 q 472 72 532 72 q 187 201 292 72 q 22 578 82 329 l 175 622 q 254 399 210 488 q 344 270 299 311 q 429 229 389 229 q 506 310 506 229 q 465 413 506 361 q 344 531 424 465 l 392 638 l 774 638 l 774 772 l -28 772 l -28 929 l 1099 929 l 1099 772 l 968 772 z "},"ॾ":{"ha":856,"x_min":-28,"x_max":856,"o":"m 369 522 q 307 475 307 522 q 419 424 307 424 q 555 433 481 424 q 688 460 629 443 q 778 364 740 425 q 815 238 815 303 q 727 54 815 122 q 479 -14 639 -14 q 241 33 351 -14 q 46 164 131 79 l 125 288 q 464 143 285 143 q 582 167 543 143 q 621 225 621 192 q 600 286 621 254 q 422 265 510 265 q 191 326 269 265 q 113 481 113 388 q 173 623 113 565 q 340 681 233 681 l 515 681 l 515 772 l -28 772 l -28 929 l 856 929 l 856 772 l 708 772 l 708 522 l 369 522 m 74 -106 l 788 -106 l 788 -262 l 74 -262 l 74 -106 z "},"ॿ":{"ha":917,"x_min":-28,"x_max":915,"o":"m 915 772 l 785 772 l 785 -146 l 110 -146 l 110 13 l 590 13 l 590 203 q 349 110 468 110 q 185 147 254 110 q 81 249 117 185 q 44 390 44 313 q 82 540 44 472 q 190 647 119 607 q 356 686 261 686 q 485 658 425 686 q 590 590 546 631 l 590 772 l -28 772 l -28 929 l 915 929 l 915 772 m 500 321 q 590 401 551 357 l 590 403 q 490 494 544 460 q 375 528 435 528 l 364 528 l 500 321 m 239 394 q 271 305 239 340 q 360 269 303 269 q 431 283 392 269 l 288 500 q 251 453 264 481 q 239 394 239 426 z "},"⁄":{"ha":122,"x_min":-290,"x_max":419,"o":"m 419 901 l -136 -60 l -290 33 l 265 994 l 419 901 z "},"½":{"ha":1571,"x_min":129,"x_max":1500,"o":"m 129 0 m 1176 901 l 621 -60 l 467 33 l 1022 994 l 1176 901 m 563 517 l 563 378 l 143 378 l 143 517 l 260 517 l 260 808 l 160 797 l 129 921 l 290 944 l 446 944 l 446 517 l 563 517 m 1026 488 q 1129 551 1072 526 q 1247 576 1186 576 q 1381 551 1328 576 q 1460 484 1435 525 q 1485 396 1485 443 q 1449 287 1485 333 q 1333 179 1414 240 l 1281 140 l 1281 139 l 1500 139 l 1500 0 l 1053 0 l 1053 129 l 1189 229 q 1274 310 1250 275 q 1299 379 1299 346 q 1283 423 1299 407 q 1242 439 1267 439 q 1161 417 1203 439 q 1071 358 1119 396 l 1026 488 z "},"¼":{"ha":1535,"x_min":129,"x_max":1508,"o":"m 129 0 m 1176 901 l 621 -60 l 467 33 l 1022 994 l 1176 901 m 563 517 l 563 378 l 143 378 l 143 517 l 260 517 l 260 808 l 160 797 l 129 921 l 290 944 l 446 944 l 446 517 l 563 517 m 1508 99 l 1421 99 l 1421 -12 l 1239 -12 l 1239 99 l 953 99 l 953 207 l 1224 567 l 1421 567 l 1421 238 l 1508 238 l 1508 99 m 1239 238 l 1239 314 l 1242 404 l 1182 321 l 1125 238 l 1239 238 z "},"¾":{"ha":1464,"x_min":68,"x_max":1438,"o":"m 68 0 m 1104 901 l 549 -60 l 394 33 l 950 994 l 1104 901 m 431 685 q 515 628 482 665 q 547 539 547 592 q 516 450 547 490 q 423 386 485 410 q 275 363 361 363 q 68 413 164 363 l 108 532 q 278 489 193 489 q 344 506 321 489 q 368 550 368 522 q 349 592 368 576 q 297 607 331 607 q 204 592 257 607 l 192 713 q 304 742 271 728 q 338 789 338 757 q 322 818 338 807 q 279 829 307 829 q 203 815 246 829 q 125 774 160 800 l 85 883 q 188 935 129 917 q 304 954 246 954 q 458 914 400 954 q 517 807 517 874 q 431 685 517 735 m 1438 99 l 1350 99 l 1350 -12 l 1168 -12 l 1168 99 l 882 99 l 882 207 l 1153 567 l 1350 567 l 1350 238 l 1438 238 l 1438 99 m 1168 238 l 1168 314 l 1171 404 l 1111 321 l 1054 238 l 1168 238 z "},"¹":{"ha":619,"x_min":129,"x_max":563,"o":"m 563 749 l 563 610 l 143 610 l 143 749 l 260 749 l 260 1040 l 160 1029 l 129 1153 l 290 1176 l 446 1176 l 446 749 l 563 749 z "},"²":{"ha":619,"x_min":75,"x_max":549,"o":"m 75 1097 q 178 1161 121 1136 q 296 1186 235 1186 q 430 1160 376 1186 q 508 1094 483 1135 q 533 1006 533 1053 q 498 897 533 943 q 382 789 463 850 l 329 750 l 329 749 l 549 749 l 549 610 l 101 610 l 101 739 l 238 839 q 323 920 299 885 q 347 989 347 956 q 331 1033 347 1017 q 290 1049 315 1049 q 210 1027 251 1049 q 119 968 168 1006 l 75 1097 z "},"³":{"ha":619,"x_min":68,"x_max":547,"o":"m 431 917 q 515 860 482 897 q 547 771 547 824 q 516 682 547 722 q 423 618 485 642 q 275 594 361 594 q 68 644 164 594 l 108 764 q 278 721 193 721 q 344 738 321 721 q 368 782 368 754 q 349 824 368 808 q 297 839 331 839 q 204 824 257 839 l 192 944 q 304 974 271 960 q 338 1021 338 989 q 322 1050 338 1039 q 279 1061 307 1061 q 203 1047 246 1061 q 125 1006 160 1032 l 85 1115 q 188 1167 129 1149 q 304 1186 246 1186 q 458 1146 400 1186 q 517 1039 517 1106 q 431 917 517 967 z "},"०":{"ha":876,"x_min":114,"x_max":763,"o":"m 438 94 q 259 137 332 94 q 150 251 186 179 q 114 413 114 324 q 150 575 114 503 q 259 690 186 647 q 438 732 332 732 q 617 690 543 732 q 726 575 690 647 q 763 413 763 503 q 726 251 763 324 q 617 137 690 179 q 438 94 543 94 m 436 253 q 531 298 496 253 q 565 413 565 343 q 531 528 565 482 q 436 574 496 574 q 342 528 376 574 q 308 413 308 482 q 342 298 308 343 q 436 253 376 253 z "},"१":{"ha":876,"x_min":143,"x_max":772,"o":"m 638 106 q 740 -12 708 39 q 772 -111 772 -64 q 751 -208 772 -162 q 679 -304 729 -253 l 514 -222 q 551 -169 539 -193 q 563 -124 563 -146 q 544 -56 563 -87 q 479 21 526 -24 l 143 339 q 328 479 260 425 q 143 743 143 576 q 224 913 143 850 q 428 976 304 976 q 574 941 510 976 q 673 845 638 906 q 708 714 708 785 q 635 524 708 613 q 414 317 563 435 l 638 106 m 428 818 q 361 792 385 818 q 338 724 338 765 q 447 588 338 631 q 514 722 514 658 q 490 790 514 763 q 428 818 467 818 z "},"२":{"ha":876,"x_min":106,"x_max":747,"o":"m 747 622 q 681 410 747 500 q 503 283 614 319 l 732 -12 l 551 -110 l 338 267 q 176 317 239 276 q 113 413 113 358 q 164 505 113 467 q 300 544 215 543 l 382 439 q 506 510 458 456 q 553 638 553 564 q 510 749 553 704 q 386 793 467 793 q 296 773 344 793 q 190 718 247 753 l 106 869 q 245 930 178 908 q 386 951 313 951 q 567 913 485 951 q 699 800 650 875 q 747 622 747 725 z "},"३":{"ha":876,"x_min":53,"x_max":789,"o":"m 789 310 q 711 122 789 200 q 501 13 633 43 l 640 -192 l 467 -283 l 340 -3 q 199 45 256 3 q 143 144 143 88 q 194 229 143 194 q 331 265 244 264 l 403 158 q 542 218 489 172 q 594 325 594 264 q 561 416 594 381 q 464 451 528 451 q 258 385 375 451 l 179 532 q 438 610 307 604 q 450 683 450 647 q 417 763 450 735 q 326 792 383 792 q 234 773 278 792 q 138 719 190 754 l 53 869 q 188 929 122 907 q 326 951 253 951 q 483 917 411 951 q 600 817 556 883 q 644 657 644 750 q 631 571 644 613 q 747 467 704 533 q 789 310 789 401 z "},"४":{"ha":876,"x_min":19,"x_max":857,"o":"m 857 772 q 593 538 708 619 q 725 403 688 471 q 763 263 763 336 q 717 123 763 182 q 599 33 672 64 q 442 3 526 3 q 286 37 360 3 q 167 131 213 71 q 122 263 122 190 q 157 408 122 343 q 283 540 192 474 q 153 636 215 585 q 19 764 92 688 l 132 904 q 231 810 122 914 q 342 705 297 744 q 432 635 386 665 q 568 743 497 679 q 744 911 639 807 l 857 772 m 442 163 q 530 192 492 163 q 568 263 568 221 q 540 349 568 311 q 442 438 513 388 q 345 348 374 388 q 317 263 317 308 q 353 190 317 218 q 442 163 389 163 z "},"५":{"ha":876,"x_min":106,"x_max":875,"o":"m 700 -122 l 571 169 q 400 140 492 140 q 242 176 308 140 q 140 276 175 213 q 106 419 106 340 q 279 932 106 614 l 474 851 q 380 690 413 750 q 324 559 347 629 q 300 419 300 489 q 327 328 300 360 q 400 297 354 297 q 456 304 432 297 q 501 328 479 311 l 456 432 q 522 491 482 467 q 610 515 563 515 q 712 476 672 515 q 751 369 751 436 q 696 249 751 304 l 875 -31 l 700 -122 z "},"६":{"ha":876,"x_min":35,"x_max":900,"o":"m 726 -244 l 607 28 q 440 -3 531 -3 q 272 33 343 -3 q 164 132 201 69 q 126 274 126 194 q 196 450 126 369 q 35 706 35 558 q 69 827 35 771 q 165 917 103 883 q 306 951 226 951 q 410 940 368 951 q 493 907 453 928 l 447 761 q 340 793 389 793 q 259 764 289 793 q 229 685 229 735 q 331 549 229 606 q 568 601 443 600 l 588 443 q 449 425 510 447 q 355 361 389 403 q 321 265 321 319 q 353 183 321 211 q 440 154 386 154 q 494 160 471 154 q 539 182 518 167 l 492 289 q 559 340 519 319 q 646 361 599 361 q 740 324 704 361 q 776 225 776 286 q 729 111 776 165 l 900 -153 l 726 -244 z "},"७":{"ha":876,"x_min":17,"x_max":863,"o":"m 567 903 q 722 847 656 903 q 826 688 789 790 q 863 456 863 586 q 823 226 863 325 q 706 71 783 126 q 518 15 628 15 q 173 226 297 15 q 17 904 49 438 l 175 931 q 293 360 206 549 q 518 172 381 172 q 610 220 574 172 q 660 351 647 268 q 615 346 639 346 q 447 385 515 346 q 344 488 378 424 q 311 631 311 553 q 342 765 311 703 q 431 865 372 828 q 567 903 489 903 m 610 504 q 667 513 636 504 q 634 684 661 622 q 567 746 607 746 q 523 713 540 746 q 506 631 506 681 q 531 539 506 574 q 610 504 556 504 z "},"८":{"ha":876,"x_min":79,"x_max":832,"o":"m 435 -57 q 244 -17 325 -57 q 122 91 164 22 q 79 246 79 160 q 124 433 79 343 q 267 638 168 524 q 568 960 365 753 l 708 831 q 431 542 524 649 q 306 370 339 435 q 274 246 274 306 q 315 142 274 181 q 435 103 357 103 q 725 247 569 103 l 832 88 q 642 -22 739 14 q 435 -57 546 -57 z "},"९":{"ha":876,"x_min":28,"x_max":918,"o":"m 783 106 q 885 -12 853 40 q 918 -111 918 -64 q 897 -208 918 -162 q 824 -304 875 -253 l 660 -222 q 697 -169 685 -193 q 708 -124 708 -146 q 690 -56 708 -87 q 624 22 672 -24 l 244 379 q 122 503 167 451 q 53 612 78 554 q 28 740 28 669 q 61 856 28 801 q 158 943 94 910 q 310 976 222 976 q 460 942 397 976 q 554 848 522 907 q 586 717 586 789 q 536 577 586 642 q 389 475 486 513 l 406 460 l 783 106 m 310 818 q 246 792 269 818 q 222 725 222 765 q 268 603 222 664 q 392 731 392 636 q 371 794 392 769 q 310 818 350 818 z "},"*":{"ha":746,"x_min":50,"x_max":696,"o":"m 450 606 l 635 439 l 472 326 l 372 542 l 272 326 l 111 439 l 299 607 l 50 639 l 108 817 l 319 706 l 278 944 l 467 944 l 428 710 l 638 817 l 696 639 l 450 606 z "},"\\":{"ha":594,"x_min":-10,"x_max":604,"o":"m -10 983 l 206 983 l 604 -328 l 390 -328 l -10 983 z "},"·":{"ha":461,"x_min":100,"x_max":361,"o":"m 231 271 q 138 309 176 271 q 100 401 100 347 q 138 494 100 456 q 231 532 176 532 q 323 494 285 532 q 361 401 361 456 q 323 309 361 347 q 231 271 285 271 z "},"•":{"ha":790,"x_min":189,"x_max":601,"o":"m 394 189 q 292 217 339 189 q 217 292 244 244 q 189 394 189 339 q 217 498 189 450 q 292 574 244 546 q 394 601 339 601 q 498 574 450 601 q 574 498 546 546 q 601 394 601 450 q 574 292 601 339 q 498 217 546 244 q 394 189 450 189 z "},":":{"ha":463,"x_min":100,"x_max":361,"o":"m 231 519 q 138 558 176 519 q 100 649 100 596 q 138 741 100 703 q 231 779 176 779 q 323 741 285 779 q 361 649 361 703 q 323 558 361 596 q 231 519 285 519 m 231 -10 q 138 28 176 -10 q 100 121 100 67 q 138 213 100 175 q 231 251 176 251 q 323 213 285 251 q 361 121 361 175 q 323 28 361 67 q 231 -10 285 -10 z "},",":{"ha":463,"x_min":60,"x_max":350,"o":"m 60 -162 q 140 29 140 -101 q 104 213 140 119 l 328 244 q 350 90 350 161 q 291 -112 350 -29 q 126 -251 232 -196 l 60 -162 z "},"…":{"ha":1364,"x_min":100,"x_max":1263,"o":"m 231 -10 q 138 28 176 -10 q 100 121 100 67 q 138 213 100 175 q 231 251 176 251 q 323 213 285 251 q 361 121 361 175 q 323 28 361 67 q 231 -10 285 -10 m 682 -10 q 590 28 628 -10 q 551 121 551 67 q 590 213 551 175 q 682 251 628 251 q 774 213 736 251 q 813 121 813 175 q 774 28 813 67 q 682 -10 736 -10 m 1132 -10 q 1040 28 1078 -10 q 1001 121 1001 67 q 1040 213 1001 175 q 1132 251 1078 251 q 1224 213 1186 251 q 1263 121 1263 175 q 1224 28 1263 67 q 1132 -10 1186 -10 z "},"!":{"ha":461,"x_min":100,"x_max":361,"o":"m 111 944 l 338 944 l 324 310 l 139 310 l 111 944 m 231 -10 q 138 28 176 -10 q 100 121 100 67 q 138 213 100 175 q 231 251 176 251 q 323 213 285 251 q 361 121 361 175 q 323 28 361 67 q 231 -10 285 -10 z "},"¡":{"ha":461,"x_min":100,"x_max":361,"o":"m 100 0 m 350 -158 l 124 -158 l 138 476 l 322 476 l 350 -158 m 231 796 q 323 758 285 796 q 361 665 361 719 q 323 573 361 611 q 231 535 285 535 q 138 573 176 535 q 100 665 100 611 q 138 758 100 719 q 231 796 176 796 z "},"#":{"ha":1090,"x_min":31,"x_max":1058,"o":"m 869 565 l 813 379 l 954 379 l 906 224 l 764 224 l 696 0 l 497 0 l 565 224 l 369 224 l 301 0 l 103 0 l 171 224 l 31 224 l 78 379 l 219 379 l 276 565 l 136 565 l 185 721 l 325 721 l 393 944 l 592 944 l 524 721 l 719 721 l 788 944 l 986 944 l 918 721 l 1058 721 l 1010 565 l 869 565 m 671 565 l 475 565 l 418 379 l 614 379 l 671 565 z "},".":{"ha":463,"x_min":100,"x_max":361,"o":"m 231 -10 q 138 28 176 -10 q 100 121 100 67 q 138 213 100 175 q 231 251 176 251 q 323 213 285 251 q 361 121 361 175 q 323 28 361 67 q 231 -10 285 -10 z "},"?":{"ha":722,"x_min":97,"x_max":632,"o":"m 175 565 q 359 613 306 588 q 413 689 413 638 q 97 788 413 788 l 97 946 q 506 874 381 946 q 632 688 632 801 q 558 528 632 593 q 349 421 485 464 l 340 310 l 188 310 l 175 565 m 265 -10 q 173 28 211 -10 q 135 121 135 67 q 173 213 135 175 q 265 251 211 251 q 358 213 319 251 q 396 121 396 175 q 358 28 396 67 q 265 -10 319 -10 z "},"¿":{"ha":722,"x_min":92,"x_max":626,"o":"m 92 0 m 549 221 q 365 174 418 199 q 311 97 311 149 q 626 -1 311 -1 l 626 -160 q 217 -87 343 -160 q 92 99 92 -15 q 165 258 92 193 q 375 365 239 322 l 383 476 l 536 476 l 549 221 m 458 796 q 551 758 513 796 q 589 665 589 719 q 551 573 589 611 q 458 535 513 535 q 366 573 404 535 q 328 665 328 611 q 366 758 328 719 q 458 796 404 796 z "},"\"":{"ha":832,"x_min":128,"x_max":704,"o":"m 128 561 m 128 1063 l 354 1063 l 322 561 l 161 561 l 128 1063 m 478 1063 l 704 1063 l 672 561 l 511 561 l 478 1063 z "},"'":{"ha":482,"x_min":128,"x_max":354,"o":"m 128 1063 l 354 1063 l 322 561 l 161 561 l 128 1063 z "},";":{"ha":463,"x_min":60,"x_max":361,"o":"m 231 519 q 138 558 176 519 q 100 649 100 596 q 138 741 100 703 q 231 779 176 779 q 323 741 285 779 q 361 649 361 703 q 323 558 361 596 q 231 519 285 519 m 60 -162 q 140 28 140 -101 q 104 211 140 118 l 328 242 q 350 89 350 158 q 292 -113 350 -31 q 126 -251 233 -196 l 60 -162 z "},"/":{"ha":594,"x_min":-10,"x_max":604,"o":"m 389 983 l 604 983 l 204 -328 l -10 -328 l 389 983 z "},"_":{"ha":694,"x_min":0,"x_max":694,"o":"m 0 -224 l 694 -224 l 694 -375 l 0 -375 l 0 -224 z "},"{":{"ha":538,"x_min":18,"x_max":485,"o":"m 485 -181 q 236 -128 335 -181 q 138 38 138 -76 q 150 125 138 69 q 164 222 164 186 q 128 298 164 272 q 18 332 93 324 l 18 468 q 127 501 92 475 q 163 576 163 526 q 149 675 163 611 q 136 763 136 728 q 235 928 136 876 q 485 979 335 981 l 485 842 q 346 756 346 843 q 360 643 346 707 q 372 556 372 593 q 344 458 372 499 q 265 401 317 418 l 265 399 q 345 342 318 382 q 372 243 372 303 q 360 156 372 206 q 346 44 346 94 q 381 -20 346 1 q 485 -42 417 -42 l 485 -181 z "},"}":{"ha":538,"x_min":53,"x_max":519,"o":"m 53 -42 q 192 44 192 -42 q 178 157 192 93 q 165 243 165 207 q 192 342 165 303 q 272 399 219 382 l 272 401 q 193 458 221 418 q 165 556 165 499 q 178 643 165 593 q 192 756 192 707 q 53 842 192 843 l 53 979 q 301 928 201 981 q 401 763 401 876 q 389 675 401 731 q 375 576 375 614 q 410 501 375 526 q 519 468 446 476 l 519 332 q 409 298 444 324 q 374 222 374 272 q 388 125 374 186 q 400 38 400 69 q 301 -128 400 -76 q 53 -181 201 -181 l 53 -42 z "},"[":{"ha":538,"x_min":100,"x_max":438,"o":"m 100 965 l 438 965 l 438 821 l 313 807 l 313 -18 l 438 -32 l 438 -176 l 100 -176 l 100 965 z "},"]":{"ha":538,"x_min":100,"x_max":438,"o":"m 100 -31 l 225 -18 l 225 807 l 100 819 l 100 965 l 438 965 l 438 -176 l 100 -176 l 100 -31 z "},"(":{"ha":483,"x_min":76,"x_max":438,"o":"m 314 -175 q 143 76 210 -75 q 76 408 76 226 q 143 741 76 590 q 314 992 210 892 l 438 889 q 333 678 375 810 q 290 408 290 547 q 333 137 290 265 q 436 -74 375 8 l 314 -175 z "},")":{"ha":483,"x_min":44,"x_max":406,"o":"m 44 -72 q 149 138 107 7 q 192 408 192 269 q 149 680 192 551 q 46 890 107 808 l 168 992 q 339 741 272 892 q 406 408 406 590 q 339 76 406 226 q 168 -175 272 -75 l 44 -72 z "},"—":{"ha":1389,"x_min":174,"x_max":1215,"o":"m 174 475 l 1215 475 l 1215 324 l 174 324 l 174 475 z "},"–":{"ha":694,"x_min":0,"x_max":694,"o":"m 0 475 l 694 475 l 694 324 l 0 324 l 0 475 z "},"-":{"ha":404,"x_min":28,"x_max":376,"o":"m 28 475 l 376 475 l 376 324 l 28 324 l 28 475 z "},"­":{"ha":833,"x_min":28,"x_max":376,"o":"m 28 324 m 28 475 l 376 475 l 376 324 l 28 324 l 28 475 z "},"«":{"ha":867,"x_min":67,"x_max":803,"o":"m 67 67 m 67 360 l 286 653 l 436 546 l 294 360 l 436 174 l 286 67 l 67 360 m 433 360 l 653 653 l 803 546 l 661 360 l 803 174 l 653 67 l 433 360 z "},"»":{"ha":867,"x_min":64,"x_max":800,"o":"m 64 67 m 64 174 l 206 360 l 64 546 l 214 653 l 433 360 l 214 67 l 64 174 m 431 174 l 572 360 l 431 546 l 581 653 l 800 360 l 581 67 l 431 174 z "},"‹":{"ha":500,"x_min":67,"x_max":436,"o":"m 67 360 l 286 653 l 436 546 l 294 360 l 436 174 l 286 67 l 67 360 z "},"›":{"ha":500,"x_min":64,"x_max":433,"o":"m 64 174 l 206 360 l 64 546 l 214 653 l 433 360 l 214 67 l 64 174 z "},"„":{"ha":842,"x_min":60,"x_max":729,"o":"m 60 0 m 60 -162 q 140 29 140 -101 q 104 213 140 119 l 328 244 q 350 90 350 161 q 291 -112 350 -29 q 126 -251 232 -196 l 60 -162 m 439 -162 q 519 29 519 -101 q 483 213 519 119 l 707 244 q 729 90 729 161 q 670 -112 729 -29 q 506 -251 611 -196 l 439 -162 z "},"“":{"ha":842,"x_min":113,"x_max":782,"o":"m 113 557 m 135 557 q 113 711 113 640 q 335 1051 113 936 l 403 964 q 322 772 322 903 q 358 588 322 681 l 135 557 m 514 557 q 492 711 492 640 q 714 1051 492 936 l 782 964 q 701 772 701 903 q 738 588 701 681 l 514 557 z "},"”":{"ha":842,"x_min":60,"x_max":729,"o":"m 60 557 m 60 644 q 140 838 140 706 q 104 1021 140 928 l 328 1051 q 350 897 350 968 q 126 557 350 672 l 60 644 m 439 644 q 519 838 519 706 q 483 1021 519 928 l 707 1051 q 729 897 729 968 q 506 557 729 672 l 439 644 z "},"‘":{"ha":463,"x_min":113,"x_max":403,"o":"m 135 557 q 113 711 113 640 q 335 1051 113 936 l 403 964 q 322 772 322 903 q 358 588 322 681 l 135 557 z "},"’":{"ha":463,"x_min":60,"x_max":350,"o":"m 60 644 q 140 838 140 706 q 104 1021 140 928 l 328 1051 q 350 897 350 968 q 126 557 350 672 l 60 644 z "},"‚":{"ha":463,"x_min":60,"x_max":350,"o":"m 60 0 m 60 -162 q 140 29 140 -101 q 104 213 140 119 l 328 244 q 350 90 350 161 q 291 -112 350 -29 q 126 -251 232 -196 l 60 -162 z "},"ॽ":{"ha":854,"x_min":139,"x_max":732,"o":"m 732 628 q 670 445 732 521 q 482 340 608 369 l 482 0 l 288 0 l 288 481 q 445 513 390 490 q 519 569 500 535 q 538 654 538 603 q 509 753 538 714 q 425 792 481 792 q 329 765 379 792 q 219 693 279 739 l 139 839 q 277 922 210 892 q 417 951 344 951 q 572 914 500 951 q 688 803 644 876 q 732 628 732 729 z "},"।":{"ha":578,"x_min":251,"x_max":446,"o":"m 251 929 l 446 929 l 446 0 l 251 0 l 251 929 z "},"॥":{"ha":946,"x_min":251,"x_max":815,"o":"m 251 929 l 446 929 l 446 0 l 251 0 l 251 929 m 621 929 l 815 929 l 815 0 l 621 0 l 621 929 z "},"॰":{"ha":765,"x_min":106,"x_max":654,"o":"m 381 108 q 233 144 294 108 q 138 241 171 179 q 106 378 106 303 q 138 516 106 454 q 233 613 171 578 q 381 649 294 649 q 527 613 465 649 q 622 516 589 578 q 654 378 654 454 q 622 241 654 303 q 527 144 589 179 q 381 108 465 108 m 381 267 q 440 297 419 267 q 460 378 460 326 q 440 460 460 431 q 381 490 419 490 q 322 460 342 490 q 301 378 301 431 q 322 297 301 326 q 381 267 342 267 z "},"ॱ":{"ha":511,"x_min":118,"x_max":371,"o":"m 118 724 m 118 850 q 156 940 118 903 q 244 978 193 978 q 333 940 296 978 q 371 850 371 903 q 333 761 371 799 q 244 724 296 724 q 155 761 192 724 q 118 850 118 799 z "}," ":{"ha":932,"x_min":0,"x_max":0,"o":""}," ":{"ha":932,"x_min":0,"x_max":0,"o":""}," ":{"ha":1054,"x_min":0,"x_max":0,"o":""}," ":{"ha":808,"x_min":0,"x_max":0,"o":""}," ":{"ha":840,"x_min":0,"x_max":0,"o":""}," ":{"ha":747,"x_min":0,"x_max":0,"o":""}," ":{"ha":711,"x_min":0,"x_max":0,"o":""}," ":{"ha":772,"x_min":0,"x_max":0,"o":""}," ":{"ha":728,"x_min":0,"x_max":0,"o":""}," ":{"ha":347,"x_min":0,"x_max":0,"o":""}," ":{"ha":735,"x_min":0,"x_max":0,"o":""}," ":{"ha":768,"x_min":0,"x_max":0,"o":""},"‍":{"ha":686,"x_min":0,"x_max":0,"o":""},"‌":{"ha":686,"x_min":0,"x_max":0,"o":""},"":{"ha":686,"x_min":0,"x_max":0,"o":""},"¢":{"ha":882,"x_min":60,"x_max":844,"o":"m 844 215 q 736 128 799 165 q 601 75 674 90 l 601 -171 l 414 -171 l 414 69 q 149 202 239 93 q 60 469 60 311 q 147 724 60 618 q 414 857 235 831 l 414 1111 l 601 1111 l 601 857 q 720 818 663 846 q 817 753 778 790 l 771 607 q 525 711 643 711 q 340 648 406 711 q 275 471 275 585 q 336 284 275 350 q 506 218 397 218 q 647 251 583 218 q 785 349 711 285 l 844 215 z "},"¤":{"ha":882,"x_min":90,"x_max":792,"o":"m 660 40 l 565 135 q 440 110 506 110 q 317 135 376 110 l 221 40 l 90 171 l 186 267 q 160 392 160 324 q 185 514 160 458 l 90 610 l 221 740 l 313 650 q 440 678 368 678 q 569 650 511 678 l 660 740 l 790 610 l 697 517 q 724 394 724 463 q 696 265 724 325 l 792 171 l 660 40 m 324 393 q 356 297 324 335 q 440 260 389 260 q 526 297 493 260 q 560 393 560 335 q 526 489 560 450 q 440 528 493 528 q 356 489 389 528 q 324 393 324 450 z "},"$":{"ha":882,"x_min":82,"x_max":800,"o":"m 800 285 q 738 120 800 186 q 558 28 676 54 l 558 -171 l 371 -171 l 371 13 q 82 83 199 21 l 128 235 q 267 186 201 201 q 403 171 333 171 q 533 197 481 171 q 586 272 586 224 q 561 330 586 306 q 499 371 536 354 q 394 410 461 388 q 249 466 306 439 q 153 541 193 493 q 113 661 113 589 q 181 831 113 764 q 371 921 250 899 l 371 1111 l 558 1111 l 558 926 q 767 861 672 914 l 719 711 q 493 771 603 771 q 372 746 418 771 q 326 675 326 721 q 371 605 326 631 q 510 547 415 579 q 659 488 601 515 q 758 410 717 460 q 800 285 800 360 z "},"€":{"ha":882,"x_min":88,"x_max":797,"o":"m 797 46 q 575 -18 707 -18 q 338 65 429 -18 q 213 290 247 147 l 88 290 l 88 443 l 192 443 l 192 479 l 192 508 l 88 508 l 88 661 l 213 661 q 338 881 247 801 q 575 961 429 961 q 796 900 701 961 l 746 750 q 610 801 682 801 q 433 661 476 801 l 703 661 l 703 508 l 411 508 l 411 479 l 411 443 l 703 443 l 703 290 l 433 290 q 610 142 476 142 q 750 192 681 142 l 797 46 z "},"ƒ":{"ha":882,"x_min":158,"x_max":778,"o":"m 518 632 l 754 632 l 754 482 l 507 482 l 449 -240 l 238 -240 l 296 482 l 158 482 l 158 632 l 307 632 l 310 661 q 410 930 325 850 q 644 1010 496 1010 q 778 993 704 1010 l 731 850 q 668 857 693 857 q 563 812 596 857 q 521 658 529 767 l 518 632 z "},"₹":{"ha":914,"x_min":165,"x_max":829,"o":"m 588 772 q 621 707 608 743 l 829 707 l 829 550 l 622 550 q 554 440 603 488 q 436 365 506 392 l 740 69 l 617 -57 l 231 325 l 233 424 q 411 550 374 458 l 165 550 l 165 707 l 411 707 q 368 772 394 743 l 165 772 l 165 929 l 829 929 l 829 772 l 588 772 z "},"£":{"ha":882,"x_min":96,"x_max":800,"o":"m 800 156 l 800 0 l 108 0 l 108 117 q 263 308 263 208 q 244 399 263 354 l 96 399 l 96 551 l 174 551 q 153 685 153 614 q 247 888 153 815 q 501 961 340 961 q 793 889 660 960 l 744 743 q 638 786 689 771 q 533 801 588 801 q 410 765 453 801 q 367 676 367 729 q 394 551 367 617 l 685 551 l 685 399 l 464 399 q 475 308 475 357 q 458 232 475 268 q 408 156 442 196 l 800 156 z "},"¥":{"ha":882,"x_min":57,"x_max":829,"o":"m 594 600 l 776 600 l 776 447 l 549 447 l 549 389 l 776 389 l 776 236 l 549 236 l 549 0 l 335 0 l 335 236 l 104 236 l 104 389 l 335 389 l 335 447 l 104 447 l 104 600 l 289 600 l 57 944 l 283 944 l 443 679 l 606 944 l 829 944 l 594 600 z "},"≈":{"ha":882,"x_min":49,"x_max":835,"o":"m 49 472 q 165 592 103 546 q 311 639 226 639 q 386 625 353 639 q 460 586 419 611 q 522 553 497 564 q 575 543 546 543 q 736 643 665 543 l 835 547 q 719 429 778 474 q 575 385 660 385 q 508 397 538 385 q 433 435 479 410 q 369 469 396 458 q 311 481 342 481 q 222 452 261 481 q 147 376 182 424 l 49 472 m 49 189 q 165 309 103 263 q 311 356 226 356 q 386 342 353 356 q 460 303 419 328 q 522 270 497 281 q 575 260 546 260 q 736 360 665 260 l 835 264 q 719 146 778 190 q 575 101 660 101 q 508 114 538 101 q 433 151 479 126 q 369 186 396 175 q 311 197 342 197 q 222 169 261 197 q 147 93 182 140 l 49 189 z "},"~":{"ha":882,"x_min":49,"x_max":835,"o":"m 49 347 q 165 467 103 421 q 311 514 226 514 q 386 500 353 514 q 460 461 419 486 q 522 428 497 439 q 575 418 546 418 q 736 518 665 418 l 835 422 q 719 304 778 349 q 575 260 660 260 q 508 272 538 260 q 433 310 479 285 q 369 344 396 333 q 311 356 342 356 q 222 327 261 356 q 147 251 182 299 l 49 347 z "},"÷":{"ha":882,"x_min":44,"x_max":838,"o":"m 440 567 q 348 605 386 567 q 310 697 310 643 q 348 790 310 751 q 440 828 386 828 q 533 790 494 828 q 571 697 571 751 q 533 605 571 643 q 440 567 494 567 m 44 490 l 838 490 l 838 339 l 44 339 l 44 490 m 440 1 q 348 40 386 1 q 310 132 310 78 q 348 224 310 186 q 440 263 386 263 q 533 224 494 263 q 571 132 571 186 q 533 40 571 78 q 440 1 494 1 z "},"=":{"ha":882,"x_min":44,"x_max":838,"o":"m 44 654 l 838 654 l 838 503 l 44 503 l 44 654 m 44 326 l 838 326 l 838 175 l 44 175 l 44 326 z "},">":{"ha":882,"x_min":44,"x_max":838,"o":"m 838 481 l 838 335 l 44 33 l 44 194 l 649 408 l 44 622 l 44 783 l 838 481 z "},"≥":{"ha":882,"x_min":44,"x_max":838,"o":"m 838 561 l 838 415 l 44 194 l 44 349 l 658 489 l 44 629 l 44 783 l 838 561 m 44 144 l 838 144 l 838 0 l 44 0 l 44 144 z "},"∆":{"ha":963,"x_min":13,"x_max":951,"o":"m 951 0 l 13 0 l 376 957 l 586 957 l 951 0 m 675 157 l 481 731 l 286 157 l 675 157 z "},"∞":{"ha":885,"x_min":33,"x_max":851,"o":"m 625 601 q 788 544 725 601 q 851 372 851 486 q 786 200 851 258 q 624 142 721 142 q 435 238 506 142 q 358 164 397 186 q 257 142 318 142 q 95 199 157 142 q 33 371 33 257 q 98 543 33 485 q 258 601 163 601 q 432 503 371 601 q 517 578 472 554 q 625 601 561 601 m 257 292 q 307 314 283 292 q 354 382 331 336 q 361 394 360 390 q 311 437 338 422 q 258 451 285 451 q 207 431 229 451 q 185 371 185 411 q 206 311 185 331 q 257 292 226 292 m 624 292 q 678 312 656 292 q 700 372 700 332 q 679 432 700 413 q 625 451 658 451 q 570 431 593 451 q 517 364 547 411 l 511 354 q 564 308 535 324 q 624 292 593 292 z "},"∫":{"ha":882,"x_min":110,"x_max":772,"o":"m 244 -319 q 110 -308 190 -319 l 125 -158 q 211 -165 176 -165 q 335 -12 335 -165 l 335 815 q 409 1041 335 963 q 636 1119 483 1119 q 772 1108 690 1119 l 757 958 q 671 965 706 965 q 547 813 547 965 l 547 -15 q 472 -241 547 -162 q 244 -319 397 -319 z "},"<":{"ha":882,"x_min":44,"x_max":838,"o":"m 838 622 l 233 408 l 838 194 l 838 33 l 44 335 l 44 481 l 838 783 l 838 622 z "},"≤":{"ha":882,"x_min":44,"x_max":838,"o":"m 838 629 l 224 489 l 838 349 l 838 194 l 44 415 l 44 561 l 838 783 l 838 629 m 44 144 l 838 144 l 838 0 l 44 0 l 44 144 z "},"¬":{"ha":882,"x_min":44,"x_max":838,"o":"m 838 490 l 838 13 l 675 13 l 675 339 l 44 339 l 44 490 l 838 490 z "},"−":{"ha":882,"x_min":44,"x_max":838,"o":"m 44 490 l 838 490 l 838 339 l 44 339 l 44 490 z "},"×":{"ha":882,"x_min":104,"x_max":776,"o":"m 669 75 l 439 307 l 211 79 l 104 186 l 332 414 l 110 636 l 217 743 l 439 521 l 665 747 l 772 640 l 546 414 l 776 182 l 669 75 z "},"≠":{"ha":882,"x_min":44,"x_max":838,"o":"m 581 503 l 481 326 l 838 326 l 838 175 l 393 175 l 293 0 l 117 0 l 217 175 l 44 175 l 44 326 l 304 326 l 404 503 l 44 503 l 44 654 l 492 654 l 592 829 l 768 829 l 668 654 l 838 654 l 838 503 l 581 503 z "},"∂":{"ha":882,"x_min":68,"x_max":813,"o":"m 210 961 q 531 861 394 938 q 740 660 667 785 q 813 371 813 535 q 711 79 813 179 q 440 -21 610 -21 q 242 22 326 -21 q 113 137 157 65 q 68 293 68 208 q 108 443 68 372 q 225 558 149 514 q 406 601 301 601 q 557 568 482 601 q 425 721 515 668 q 179 810 335 774 l 210 961 m 440 136 q 552 190 511 136 q 593 347 593 243 l 593 375 q 428 444 524 444 q 325 398 363 444 q 288 281 288 351 q 327 177 288 218 q 440 136 367 136 z "},"%":{"ha":1500,"x_min":26,"x_max":1475,"o":"m 26 0 m 1104 901 l 549 -60 l 394 33 l 950 994 l 1104 901 m 310 363 q 154 403 218 363 q 58 510 90 443 q 26 657 26 578 q 58 805 26 738 q 154 913 90 872 q 310 954 218 954 q 467 913 403 954 q 563 805 531 872 q 594 658 594 738 q 563 512 594 579 q 467 403 531 444 q 310 363 403 363 m 308 496 q 379 535 358 496 q 400 658 400 575 q 379 782 400 742 q 308 822 358 822 q 239 782 260 822 q 218 658 218 742 q 239 535 218 575 q 308 496 260 496 m 1190 -15 q 1035 25 1099 -15 q 939 133 971 65 q 907 279 907 200 q 939 427 907 360 q 1035 535 971 494 q 1190 576 1099 576 q 1347 535 1283 576 q 1443 427 1411 494 q 1475 281 1475 360 q 1443 134 1475 201 q 1347 26 1411 67 q 1190 -15 1283 -15 m 1189 118 q 1260 158 1239 118 q 1281 281 1281 197 q 1260 404 1281 364 q 1189 444 1239 444 q 1119 404 1140 444 q 1099 281 1099 364 q 1119 158 1099 197 q 1189 118 1140 118 z "},"‰":{"ha":2131,"x_min":26,"x_max":2106,"o":"m 26 0 m 1104 901 l 549 -60 l 394 33 l 950 994 l 1104 901 m 310 363 q 154 403 218 363 q 58 510 90 443 q 26 657 26 578 q 58 805 26 738 q 154 913 90 872 q 310 954 218 954 q 467 913 403 954 q 563 805 531 872 q 594 658 594 738 q 563 512 594 579 q 467 403 531 444 q 310 363 403 363 m 308 496 q 379 535 358 496 q 400 658 400 575 q 379 782 400 742 q 308 822 358 822 q 239 782 260 822 q 218 658 218 742 q 239 535 218 575 q 308 496 260 496 m 1190 -15 q 1035 25 1099 -15 q 939 133 971 65 q 907 279 907 200 q 939 427 907 360 q 1035 535 971 494 q 1190 576 1099 576 q 1347 535 1283 576 q 1443 427 1411 494 q 1475 281 1475 360 q 1443 134 1475 201 q 1347 26 1411 67 q 1190 -15 1283 -15 m 1189 118 q 1260 158 1239 118 q 1281 281 1281 197 q 1260 404 1281 364 q 1189 444 1239 444 q 1119 404 1140 444 q 1099 281 1099 364 q 1119 158 1099 197 q 1189 118 1140 118 m 1821 -15 q 1665 25 1729 -15 q 1569 133 1601 65 q 1538 279 1538 200 q 1569 427 1538 360 q 1665 535 1601 494 q 1821 576 1729 576 q 1978 535 1914 576 q 2074 427 2042 494 q 2106 281 2106 360 q 2074 134 2106 201 q 1978 26 2042 67 q 1821 -15 1914 -15 m 1819 118 q 1890 158 1869 118 q 1911 281 1911 197 q 1890 404 1911 364 q 1819 444 1869 444 q 1750 404 1771 444 q 1729 281 1729 364 q 1750 158 1729 197 q 1819 118 1771 118 z "},"+":{"ha":882,"x_min":44,"x_max":838,"o":"m 838 339 l 522 339 l 522 13 l 360 13 l 360 339 l 44 339 l 44 490 l 360 490 l 360 804 l 522 804 l 522 490 l 838 490 l 838 339 z "},"±":{"ha":882,"x_min":44,"x_max":838,"o":"m 838 581 l 838 435 l 522 435 l 522 213 l 360 213 l 360 435 l 44 435 l 44 581 l 360 581 l 360 804 l 522 804 l 522 581 l 838 581 m 44 144 l 838 144 l 838 0 l 44 0 l 44 144 z "},"∏":{"ha":1122,"x_min":132,"x_max":989,"o":"m 989 -326 l 769 -326 l 769 788 l 351 788 l 351 -326 l 132 -326 l 132 944 l 989 944 l 989 -326 z "},"√":{"ha":882,"x_min":42,"x_max":842,"o":"m 842 944 l 556 0 l 346 0 l 182 436 l 42 436 l 42 593 l 328 593 l 440 206 l 622 944 l 842 944 z "},"∑":{"ha":969,"x_min":76,"x_max":921,"o":"m 76 -211 l 456 308 l 79 822 l 79 944 l 918 944 l 918 788 l 349 788 l 704 308 l 347 -175 l 921 -175 l 921 -332 l 76 -332 l 76 -211 z "},"◌":{"ha":1069,"x_min":129,"x_max":940,"o":"m 536 742 q 496 758 513 742 q 479 799 479 775 q 496 838 479 821 q 536 856 513 856 q 576 838 558 856 q 593 799 593 821 q 576 758 593 775 q 536 742 558 742 m 358 697 q 319 714 336 697 q 303 754 303 731 q 319 794 303 778 q 358 811 336 811 q 399 794 382 811 q 415 754 415 778 q 399 715 415 732 q 358 697 382 697 m 708 697 q 669 715 686 697 q 651 754 651 732 q 669 794 651 778 q 708 811 686 811 q 749 794 732 811 q 765 754 765 778 q 749 714 765 731 q 708 697 732 697 m 229 568 q 189 585 206 568 q 172 625 172 601 q 189 665 172 649 q 229 682 206 682 q 269 665 253 682 q 286 625 286 649 q 269 585 286 601 q 229 568 253 568 m 840 568 q 800 585 817 568 q 783 625 783 601 q 801 665 783 649 q 840 682 818 682 q 881 665 864 682 q 897 625 897 649 q 881 585 897 601 q 840 568 864 568 m 186 392 q 146 408 163 392 q 129 449 129 425 q 146 489 129 472 q 186 506 163 506 q 226 489 210 506 q 243 449 243 472 q 226 409 243 426 q 186 392 210 392 m 883 392 q 844 409 861 392 q 828 449 828 426 q 844 489 828 472 q 883 506 861 506 q 924 489 907 506 q 940 449 940 472 q 924 408 940 425 q 883 392 907 392 m 229 217 q 189 233 206 217 q 172 274 172 250 q 189 313 172 297 q 229 329 206 329 q 269 313 253 329 q 286 274 286 296 q 269 234 286 251 q 229 217 253 217 m 840 217 q 801 234 818 217 q 783 274 783 251 q 800 313 783 296 q 840 329 817 329 q 881 313 864 329 q 897 274 897 297 q 881 233 897 250 q 840 217 864 217 m 358 85 q 319 101 336 85 q 303 142 303 118 q 319 181 303 165 q 358 197 336 197 q 399 181 382 197 q 415 142 415 164 q 399 102 415 119 q 358 85 382 85 m 708 85 q 669 102 686 85 q 651 142 651 119 q 668 181 651 164 q 708 197 685 197 q 749 181 732 197 q 765 142 765 165 q 749 101 765 118 q 708 85 732 85 m 536 42 q 496 58 513 42 q 479 99 479 75 q 496 139 479 122 q 536 156 513 156 q 576 139 558 156 q 593 99 593 122 q 576 59 593 76 q 536 42 558 42 z "},"◊":{"ha":882,"x_min":82,"x_max":800,"o":"m 800 472 l 546 0 l 335 0 l 82 472 l 336 944 l 547 944 l 800 472 m 608 472 l 440 786 l 272 472 l 440 158 l 608 472 z "},"|":{"ha":540,"x_min":160,"x_max":379,"o":"m 160 1121 l 379 1121 l 379 -328 l 160 -328 l 160 1121 z "},"¦":{"ha":540,"x_min":160,"x_max":379,"o":"m 160 1121 l 379 1121 l 379 554 l 160 554 l 160 1121 m 160 239 l 379 239 l 379 -328 l 160 -328 l 160 239 z "},"@":{"ha":1293,"x_min":61,"x_max":1232,"o":"m 413 219 q 441 319 413 278 q 535 391 469 360 q 714 454 600 422 l 714 457 q 699 522 714 497 q 642 547 683 547 q 554 528 599 547 q 453 464 510 510 l 418 589 q 669 685 539 685 q 826 626 779 685 q 874 444 874 567 l 874 257 q 883 214 874 226 q 917 201 893 201 q 976 231 946 201 q 1026 320 1006 261 q 1046 460 1046 379 q 1003 626 1046 551 q 881 743 961 700 q 692 786 801 786 q 466 739 567 786 q 306 596 365 692 q 247 361 247 500 q 301 131 247 225 q 449 -11 356 36 q 657 -58 542 -58 q 940 17 814 -58 l 1000 -112 q 656 -207 847 -207 q 365 -144 501 -207 q 145 47 229 -82 q 61 363 61 175 q 149 681 61 551 q 381 873 238 810 q 690 936 524 936 q 981 872 858 936 q 1168 698 1104 807 q 1232 458 1232 589 q 1182 244 1232 333 q 1054 110 1132 156 q 893 64 976 64 q 739 139 785 64 q 653 83 696 103 q 564 63 611 63 q 455 107 497 63 q 413 219 413 151 m 572 238 q 617 200 572 200 q 714 243 658 200 l 714 336 q 601 284 631 307 q 572 238 572 261 z "},"&":{"ha":1021,"x_min":21,"x_max":1007,"o":"m 1007 7 q 881 -11 956 -11 q 760 9 815 -11 q 646 78 706 29 q 368 -18 514 -18 q 180 16 258 -18 q 61 110 101 50 q 21 247 21 171 q 225 535 21 438 q 160 626 179 586 q 140 714 140 665 q 172 838 140 782 q 267 928 203 894 q 425 961 332 961 q 577 931 514 961 q 672 851 640 901 q 704 743 704 801 q 657 600 704 661 q 508 488 610 539 l 654 326 q 758 593 717 435 l 961 572 q 890 376 938 472 q 776 200 843 279 q 906 149 840 149 q 971 156 939 149 l 1007 7 m 422 804 q 367 781 386 804 q 349 725 349 758 q 361 665 349 692 q 403 604 374 639 q 474 665 453 636 q 496 732 496 694 q 476 783 496 761 q 422 804 457 804 m 240 267 q 280 176 240 214 q 390 139 319 139 q 535 189 467 139 l 333 413 q 240 267 240 346 z "},"¶":{"ha":839,"x_min":42,"x_max":718,"o":"m 718 -29 q 643 -255 718 -176 q 415 -333 568 -333 q 281 -322 361 -333 l 296 -171 q 382 -178 347 -178 q 506 -26 506 -178 l 506 278 l 414 278 q 138 369 235 278 q 42 613 42 460 q 84 783 42 707 q 210 901 126 858 q 414 944 294 944 l 718 944 l 718 -29 z "},"©":{"ha":1136,"x_min":67,"x_max":1071,"o":"m 568 -18 q 308 48 422 -18 q 130 226 193 114 q 67 474 67 339 q 130 719 67 608 q 308 896 193 831 q 568 961 422 961 q 829 896 714 961 q 1008 719 944 831 q 1071 474 1071 608 q 1007 226 1071 339 q 828 48 943 114 q 568 -18 714 -18 m 568 108 q 753 157 674 108 q 874 289 832 206 q 917 474 917 372 q 874 658 917 575 q 753 788 832 740 q 568 836 674 836 q 385 788 464 836 q 263 658 306 740 q 221 474 221 575 q 263 289 221 372 q 385 157 306 206 q 568 108 464 108 m 585 214 q 442 249 501 214 q 354 344 383 285 q 325 474 325 403 q 356 601 325 543 q 447 695 386 660 q 590 731 507 731 q 676 719 636 731 q 746 690 717 708 l 710 582 q 610 608 663 608 q 513 570 549 608 q 476 474 476 532 q 510 374 476 413 q 604 336 543 336 q 704 367 660 336 l 747 258 q 674 226 718 239 q 585 214 631 214 z "},"®":{"ha":669,"x_min":46,"x_max":622,"o":"m 336 1013 q 481 975 415 1013 q 584 872 546 938 q 622 724 622 806 q 584 577 622 643 q 481 473 546 511 q 336 435 415 435 q 190 473 257 435 q 85 577 124 511 q 46 724 46 643 q 85 872 46 806 q 190 975 124 938 q 336 1013 257 1013 m 333 514 q 438 541 390 514 q 514 616 486 568 q 542 724 542 664 q 514 832 542 783 q 438 908 486 881 q 333 936 390 936 q 231 908 278 936 q 156 832 183 881 q 128 724 128 783 q 156 616 128 664 q 231 541 183 568 q 333 514 278 514 m 442 760 q 408 696 442 714 l 467 610 l 383 610 l 340 679 l 308 679 l 308 610 l 236 610 l 236 840 l 347 840 q 417 818 392 840 q 442 760 442 796 m 308 735 l 342 735 q 363 741 357 735 q 369 761 369 747 q 342 785 369 785 l 308 785 l 308 735 z "},"§":{"ha":835,"x_min":106,"x_max":750,"o":"m 651 201 q 728 43 728 142 q 638 -142 728 -76 q 378 -207 547 -207 q 231 -192 303 -207 q 106 -151 158 -176 l 149 -3 q 375 -53 269 -53 q 479 -33 440 -53 q 518 29 518 -14 q 482 85 518 64 q 367 135 446 106 q 240 187 289 163 q 155 253 190 211 q 119 360 119 296 q 226 557 119 488 q 142 710 142 618 q 231 894 142 831 q 472 957 319 957 q 601 944 536 957 q 715 907 667 931 l 672 760 q 478 803 571 803 q 385 785 418 803 q 351 733 351 768 q 386 678 351 699 q 496 633 421 658 q 625 583 574 608 q 713 511 676 558 q 750 392 750 464 q 651 201 750 269 m 329 383 q 363 330 329 350 q 465 286 396 310 q 521 327 501 306 q 540 378 540 349 q 506 432 540 411 q 403 479 472 453 q 347 437 365 460 q 329 383 329 414 z "},"™":{"ha":1253,"x_min":56,"x_max":1086,"o":"m 453 868 l 331 868 l 331 472 l 179 472 l 179 868 l 56 868 l 56 967 l 453 967 l 453 868 m 1086 967 l 1086 472 l 935 472 l 935 599 l 943 778 l 853 629 l 763 629 l 674 776 l 682 599 l 682 472 l 531 472 l 531 967 l 688 967 l 808 775 l 929 967 l 1086 967 z "},"°":{"ha":706,"x_min":82,"x_max":622,"o":"m 351 479 q 208 515 269 479 q 115 612 147 551 q 82 743 82 672 q 115 875 82 814 q 208 973 147 936 q 351 1010 269 1010 q 497 973 435 1010 q 590 876 558 936 q 622 746 622 815 q 590 613 622 674 q 497 515 558 551 q 351 479 435 479 m 351 611 q 437 649 403 611 q 471 744 471 688 q 437 840 471 801 q 351 878 403 878 q 268 840 301 878 q 235 744 235 801 q 267 649 235 688 q 351 611 300 611 z "},"^":{"ha":882,"x_min":144,"x_max":738,"o":"m 539 201 l 442 422 l 343 201 l 144 201 l 347 585 l 535 585 l 738 201 l 539 201 z "},"†":{"ha":604,"x_min":32,"x_max":572,"o":"m 572 715 l 572 564 l 32 564 l 32 715 l 196 715 l 196 944 l 408 944 l 408 715 l 572 715 m 196 464 l 408 464 l 396 -210 l 208 -210 l 196 464 z "},"‡":{"ha":604,"x_min":32,"x_max":572,"o":"m 572 715 l 572 564 l 32 564 l 32 715 l 196 715 l 196 944 l 408 944 l 408 715 l 572 715 m 428 367 q 390 274 428 313 q 297 236 351 236 q 205 274 243 236 q 167 367 167 313 q 205 459 167 421 q 297 497 243 497 q 390 459 351 497 q 428 367 428 421 m 32 171 l 572 171 l 572 19 l 408 19 l 408 -210 l 196 -210 l 196 19 l 32 19 l 32 171 z "},"ऽ":{"ha":824,"x_min":53,"x_max":722,"o":"m 406 -10 q 208 45 294 -10 q 53 210 121 100 l 172 311 q 382 147 285 149 q 456 172 429 149 q 483 244 483 196 q 452 331 483 286 q 361 436 421 375 l 282 517 q 184 637 217 583 q 151 753 151 690 q 201 881 151 833 q 344 929 251 929 l 722 929 l 722 772 l 401 772 q 346 739 346 772 q 365 692 346 718 q 428 621 383 667 l 503 544 q 629 391 581 465 q 678 244 678 317 q 642 110 678 168 q 545 22 607 53 q 406 -10 483 -10 z "},"ॐ":{"ha":1579,"x_min":0,"x_max":1535,"o":"m 1000 994 q 911 1032 949 994 q 874 1121 874 1069 q 911 1211 874 1174 q 1000 1249 949 1249 q 1089 1211 1051 1249 q 1126 1121 1126 1174 q 1090 1032 1126 1069 q 1000 994 1053 994 m 1001 726 q 798 785 888 726 q 660 939 708 844 l 785 1026 q 1001 885 869 885 q 1218 1026 1133 885 l 1343 939 q 1203 785 1292 843 q 1001 726 1115 726 m 1250 708 q 1399 668 1333 708 q 1499 561 1464 628 q 1535 417 1535 494 q 1501 276 1535 339 q 1404 178 1467 214 q 1261 143 1342 143 q 1019 263 1119 143 q 933 176 979 207 q 831 144 888 144 q 701 190 771 144 q 603 58 679 108 q 413 7 526 7 q 0 275 169 7 l 99 393 q 244 228 164 292 q 406 164 325 164 q 486 194 457 164 q 515 276 515 224 q 463 407 515 347 q 306 385 399 389 l 258 543 q 410 567 358 550 q 481 613 463 585 q 499 682 499 640 q 470 760 499 729 q 388 792 442 792 q 188 694 311 792 l 106 840 q 241 921 174 890 q 379 951 308 951 q 533 917 461 951 q 649 816 606 883 q 693 656 693 749 q 607 474 693 542 q 656 417 638 446 q 738 331 706 358 q 808 303 769 303 q 869 338 840 303 q 946 450 897 372 q 1032 581 993 529 q 1126 671 1071 633 q 1250 708 1181 708 m 1239 301 q 1314 337 1286 301 q 1342 428 1342 372 q 1317 515 1342 481 q 1251 550 1292 550 q 1176 510 1210 550 q 1096 388 1143 469 q 1239 301 1157 301 z "},"̦":{"ha":694,"x_min":-482,"x_max":-221,"o":"m -482 -265 q -401 -244 -424 -261 q -378 -200 -378 -228 q -447 -150 -378 -154 l -404 -47 q -265 -97 -308 -57 q -221 -192 -221 -136 q -281 -309 -221 -262 q -450 -361 -342 -356 l -482 -265 z "},"´":{"ha":694,"x_min":172,"x_max":535,"o":"m 307 1114 l 535 1114 l 336 819 l 172 819 l 307 1114 z "},"˘":{"ha":694,"x_min":99,"x_max":597,"o":"m 347 824 q 166 894 231 824 q 99 1104 101 965 l 242 1107 q 272 1000 244 1036 q 347 964 300 964 q 424 1000 396 964 q 454 1108 451 1036 l 597 1104 q 529 894 594 965 q 347 824 464 824 z "},"ˇ":{"ha":694,"x_min":85,"x_max":610,"o":"m 610 1111 l 451 819 l 242 819 l 85 1111 l 249 1111 l 347 949 l 444 1111 l 610 1111 z "},"¸":{"ha":694,"x_min":210,"x_max":496,"o":"m 371 -65 q 460 -101 425 -69 q 496 -178 496 -132 q 437 -285 496 -237 q 249 -337 378 -333 l 219 -243 q 314 -224 289 -237 q 339 -187 339 -210 q 326 -163 339 -172 q 293 -154 314 -154 q 253 -162 272 -154 l 210 -107 l 299 57 l 438 57 l 371 -65 z "},"ˆ":{"ha":694,"x_min":85,"x_max":610,"o":"m 444 819 l 347 982 l 249 819 l 85 819 l 242 1111 l 451 1111 l 610 819 l 444 819 z "},"¨":{"ha":694,"x_min":64,"x_max":631,"o":"m 178 913 q 98 947 132 913 q 64 1026 64 981 q 98 1106 64 1072 q 178 1140 132 1140 q 258 1106 224 1140 q 292 1026 292 1072 q 258 947 292 981 q 178 913 224 913 m 517 913 q 437 947 471 913 q 403 1026 403 981 q 437 1106 403 1072 q 517 1140 471 1140 q 597 1106 563 1140 q 631 1026 631 1072 q 597 947 631 981 q 517 913 563 913 z "},"˙":{"ha":694,"x_min":233,"x_max":461,"o":"m 347 913 q 267 947 301 913 q 233 1026 233 981 q 267 1106 233 1072 q 347 1140 301 1140 q 427 1106 393 1140 q 461 1026 461 1072 q 427 947 461 981 q 347 913 393 913 z "},"`":{"ha":694,"x_min":160,"x_max":522,"o":"m 160 1114 l 388 1114 l 522 819 l 358 819 l 160 1114 z "},"˝":{"ha":694,"x_min":61,"x_max":667,"o":"m 196 1114 l 389 1114 l 190 819 l 61 819 l 196 1114 m 474 1114 l 667 1114 l 468 819 l 339 819 l 474 1114 z "},"¯":{"ha":694,"x_min":85,"x_max":611,"o":"m 85 1086 l 611 1086 l 611 936 l 85 936 l 85 1086 z "},"˛":{"ha":694,"x_min":186,"x_max":557,"o":"m 365 -374 q 235 -331 283 -374 q 186 -215 186 -289 q 225 -92 186 -156 q 332 21 264 -28 l 500 21 q 354 -172 354 -96 q 368 -208 354 -196 q 406 -221 382 -221 q 500 -176 449 -221 l 557 -292 q 476 -349 529 -324 q 365 -374 422 -374 z "},"˚":{"ha":694,"x_min":147,"x_max":546,"o":"m 347 836 q 239 860 285 836 q 170 921 193 883 q 147 1001 147 958 q 170 1082 147 1044 q 239 1142 193 1119 q 347 1165 285 1165 q 455 1142 410 1165 q 523 1081 500 1119 q 546 1001 546 1043 q 523 921 546 958 q 455 860 500 883 q 347 836 410 836 m 347 929 q 398 949 379 929 q 417 1001 417 969 q 398 1052 417 1032 q 347 1072 379 1072 q 297 1052 315 1072 q 278 1001 278 1032 q 297 949 278 969 q 347 929 315 929 z "},"˜":{"ha":694,"x_min":81,"x_max":614,"o":"m 81 869 q 132 1040 88 978 q 246 1103 176 1103 q 300 1092 275 1103 q 356 1061 325 1081 q 402 1035 385 1043 q 438 1028 419 1028 q 473 1048 458 1028 q 497 1114 488 1068 l 614 1108 q 561 941 607 1007 q 449 875 515 875 q 393 885 418 875 q 331 918 368 896 q 288 942 304 935 q 257 950 272 950 q 222 930 236 950 q 197 864 207 910 l 81 869 z "},"ु":{"ha":0,"x_min":-618,"x_max":60,"o":"m -235 -450 q -618 -249 -436 -450 l -522 -135 q -381 -251 -446 -210 q -236 -292 -317 -292 q -162 -271 -192 -292 q -133 -217 -133 -250 q -160 -165 -133 -185 q -228 -146 -187 -146 q -367 -181 -297 -146 l -421 -37 q -228 13 -335 13 q -22 -49 -103 13 q 60 -217 60 -111 q 22 -339 60 -286 q -82 -421 -15 -392 q -235 -450 -149 -450 z "},"ू":{"ha":0,"x_min":-526,"x_max":153,"o":"m -232 13 q 153 -187 -31 13 l 56 -303 q -84 -187 -18 -229 q -231 -146 -150 -146 q -303 -167 -275 -146 q -332 -219 -332 -187 q -305 -272 -332 -251 q -239 -292 -278 -292 q -100 -257 -169 -292 l -44 -399 q -239 -450 -135 -450 q -445 -387 -364 -450 q -526 -219 -526 -325 q -489 -97 -526 -150 q -385 -16 -451 -44 q -232 13 -318 13 z "},"ृ":{"ha":0,"x_min":-429,"x_max":26,"o":"m -175 -393 q -308 -365 -250 -393 q -398 -288 -367 -337 q -429 -179 -429 -239 q -367 -31 -429 -99 q -182 86 -306 36 l -106 -51 q -224 -107 -186 -75 q -262 -175 -262 -139 q -240 -219 -262 -204 q -176 -235 -218 -235 q -103 -224 -142 -235 q -40 -194 -64 -212 l 26 -331 q -63 -376 -11 -358 q -175 -393 -115 -393 z "},"ॄ":{"ha":0,"x_min":-429,"x_max":161,"o":"m 161 -597 q 67 -651 121 -631 q -51 -671 13 -671 q -183 -643 -125 -671 q -272 -567 -240 -615 q -304 -458 -304 -518 q -286 -374 -304 -414 q -391 -298 -353 -350 q -429 -179 -429 -246 q -367 -31 -429 -99 q -182 86 -306 36 l -106 -51 q -224 -107 -186 -75 q -262 -175 -262 -139 q -240 -219 -262 -204 q -176 -235 -218 -235 q -103 -224 -142 -235 q -40 -194 -64 -212 l 26 -331 q -106 -386 -33 -374 q -137 -454 -137 -418 q -115 -498 -137 -483 q -53 -512 -93 -512 q 24 -499 -17 -512 q 92 -462 65 -486 l 161 -597 z "},"ॢ":{"ha":0,"x_min":-746,"x_max":85,"o":"m 85 -612 q -7 -667 40 -647 q -117 -687 -54 -687 q -259 -646 -197 -687 q -321 -536 -321 -604 q -294 -447 -321 -489 q -219 -349 -268 -406 q -173 -292 -187 -314 q -158 -253 -158 -271 q -169 -228 -158 -236 q -197 -219 -181 -219 q -267 -265 -236 -219 q -311 -382 -299 -310 l -478 -354 q -443 -226 -468 -285 q -496 -207 -467 -207 q -537 -226 -522 -207 q -553 -276 -553 -244 q -410 -492 -553 -389 l -519 -604 q -689 -435 -632 -515 q -746 -247 -746 -354 q -685 -103 -746 -158 q -533 -49 -624 -49 q -367 -119 -440 -49 q -325 -90 -349 -103 l -325 18 l -131 18 l -131 -69 q -12 -140 -57 -87 q 32 -254 32 -192 q 6 -336 32 -299 q -71 -424 -21 -374 q -115 -472 -101 -454 q -129 -504 -129 -489 q -92 -529 -129 -529 q -37 -514 -68 -529 q 21 -474 -7 -499 l 85 -612 z "},"ॣ":{"ha":0,"x_min":-746,"x_max":186,"o":"m 186 -824 q 106 -865 153 -849 q 6 -882 60 -882 q -149 -834 -90 -882 q -207 -710 -207 -786 q -203 -674 -207 -693 q -288 -620 -256 -656 q -321 -536 -321 -585 q -294 -447 -321 -489 q -219 -349 -268 -406 q -173 -292 -187 -314 q -158 -253 -158 -271 q -169 -228 -158 -236 q -197 -219 -181 -219 q -267 -265 -236 -219 q -311 -382 -299 -310 l -478 -354 q -443 -226 -468 -285 q -496 -207 -467 -207 q -537 -226 -522 -207 q -553 -276 -553 -244 q -410 -492 -553 -389 l -519 -604 q -689 -435 -632 -515 q -746 -247 -746 -354 q -685 -103 -746 -158 q -533 -49 -624 -49 q -367 -119 -440 -49 q -325 -90 -349 -103 l -325 18 l -131 18 l -131 -69 q -12 -140 -57 -87 q 32 -254 32 -192 q 6 -336 32 -299 q -71 -424 -21 -374 q -115 -472 -101 -454 q -129 -504 -129 -489 q -92 -529 -129 -529 q -37 -514 -68 -529 q 21 -474 -7 -499 l 85 -612 q -3 -665 39 -647 q -15 -693 -15 -678 q -3 -717 -15 -708 q 29 -725 8 -725 q 76 -714 50 -725 q 124 -686 101 -703 l 186 -824 z "},"ॅ":{"ha":0,"x_min":-544,"x_max":139,"o":"m -203 1011 q -406 1070 -317 1011 q -544 1224 -496 1129 l -419 1311 q -203 1169 -335 1169 q 14 1311 -71 1169 l 139 1224 q -1 1069 88 1128 q -203 1011 -89 1011 z "},"ँ":{"ha":0,"x_min":-544,"x_max":139,"o":"m 0 1011 m -203 1011 q -406 1070 -317 1011 q -544 1224 -496 1129 l -419 1311 q -203 1169 -335 1169 q 14 1311 -71 1169 l 139 1224 q -1 1069 88 1128 q -203 1011 -89 1011 m -331 1406 q -293 1496 -331 1458 q -204 1533 -256 1533 q -115 1496 -153 1533 q -78 1406 -78 1458 q -115 1317 -78 1354 q -204 1279 -153 1279 q -294 1317 -257 1279 q -331 1406 -331 1354 z "},"ॆ":{"ha":0,"x_min":-918,"x_max":-92,"o":"m -300 868 q -285 944 -285 896 q -310 1021 -285 990 q -393 1051 -335 1051 q -547 1043 -444 1051 q -693 1035 -647 1035 q -859 1080 -800 1035 q -918 1210 -918 1125 q -903 1297 -918 1251 q -862 1375 -887 1342 l -689 1335 q -725 1246 -725 1292 q -668 1193 -725 1193 q -531 1201 -625 1193 q -393 1210 -436 1210 q -169 1137 -246 1210 q -92 943 -92 1064 q -107 864 -92 899 l -300 868 z "},"े":{"ha":0,"x_min":-749,"x_max":-135,"o":"m -375 1007 q -470 1160 -421 1111 q -590 1208 -519 1208 q -715 1190 -656 1208 l -749 1339 q -592 1368 -678 1368 q -374 1288 -462 1368 q -204 1029 -286 1208 l -135 878 l -318 878 l -375 1007 z "},"ै":{"ha":0,"x_min":-756,"x_max":-104,"o":"m -207 879 l -200 867 l -356 867 l -428 976 q -587 1071 -487 1071 q -722 1043 -660 1071 l -756 1192 q -589 1232 -676 1232 q -381 1142 -481 1232 q -450 1267 -422 1225 q -510 1329 -478 1310 q -587 1349 -542 1349 q -689 1331 -640 1349 l -722 1479 q -565 1508 -650 1508 q -410 1463 -475 1508 q -288 1316 -346 1418 q -161 1029 -231 1214 l -104 879 l -207 879 z "},"ं":{"ha":0,"x_min":-325,"x_max":-72,"o":"m -325 1119 q -287 1210 -325 1172 q -199 1247 -250 1247 q -110 1210 -147 1247 q -72 1119 -72 1172 q -110 1031 -72 1068 q -199 993 -147 993 q -288 1031 -251 993 q -325 1119 -325 1068 z "},"्":{"ha":0,"x_min":-524,"x_max":100,"o":"m 33 -376 q -292 -219 -135 -257 l -292 -294 q -379 -311 -337 -311 q -483 -276 -443 -311 q -524 -193 -524 -242 q -479 -106 -524 -135 q -362 -76 -435 -76 q -123 -143 -253 -76 q 100 -287 7 -210 l 33 -376 z "},"़":{"ha":0,"x_min":-126,"x_max":126,"o":"m -126 -178 q -90 -89 -126 -126 q 0 -51 -53 -51 q 90 -89 53 -51 q 126 -178 126 -126 q 90 -267 126 -231 q 0 -304 53 -304 q -90 -267 -53 -304 q -126 -178 -126 -231 z "},"ऺ":{"ha":0,"x_min":-325,"x_max":-131,"o":"m -325 1296 l -131 1296 l -131 897 l -325 897 l -325 1296 z "},"ॖ":{"ha":0,"x_min":-676,"x_max":51,"o":"m -312 -336 q -529 -274 -433 -336 q -676 -108 -625 -212 l -537 -26 q -444 -136 -500 -93 q -312 -179 -389 -179 q -86 -26 -174 -179 l 51 -108 q -96 -274 0 -212 q -312 -336 -192 -336 z "},"ॗ":{"ha":0,"x_min":-676,"x_max":51,"o":"m -312 -336 q -529 -274 -433 -336 q -676 -108 -625 -212 l -537 -26 q -444 -136 -500 -93 q -312 -179 -389 -179 q -86 -26 -174 -179 l 51 -108 q -96 -274 0 -212 q -312 -336 -192 -336 m -312 -651 q -529 -590 -433 -651 q -676 -424 -625 -528 l -537 -342 q -444 -451 -500 -408 q -312 -494 -389 -494 q -86 -342 -174 -494 l 51 -424 q -96 -590 0 -528 q -312 -651 -192 -651 z "},"॑":{"ha":0,"x_min":-324,"x_max":-131,"o":"m -324 1432 l -131 1432 l -131 1046 l -324 1046 l -324 1432 z "},"॒":{"ha":0,"x_min":-614,"x_max":151,"o":"m -614 -233 l 151 -233 l 151 -392 l -614 -392 l -614 -233 z "},"॓":{"ha":0,"x_min":-631,"x_max":-110,"o":"m -631 1432 l -415 1432 l -110 1050 l -303 1050 l -631 1432 z "},"॔":{"ha":0,"x_min":-337,"x_max":183,"o":"m -31 1432 l 183 1432 l -144 1050 l -337 1050 l -31 1432 z "},"ः":{"ha":563,"x_min":150,"x_max":411,"o":"m 281 519 q 188 558 226 519 q 150 649 150 596 q 188 741 150 703 q 281 779 226 779 q 373 741 335 779 q 411 649 411 703 q 373 558 411 596 q 281 519 335 519 m 281 75 q 188 113 226 75 q 150 206 150 151 q 188 298 150 260 q 281 336 226 336 q 373 298 335 336 q 411 206 411 260 q 373 113 411 151 q 281 75 335 75 z "}}}
